<svg width="37" height="37" viewBox="0 0 37 37" fill="none" xmlns="http://www.w3.org/2000/svg">
<g clip-path="url(#clip0_330_2955)">
<path d="M24.5544 3.76215C25.3406 4.92707 25.8003 6.33047 25.8003 7.84227C25.8003 11.874 22.5317 15.1418 18.5 15.1418C14.4683 15.1418 11.1997 11.874 11.1997 7.84227C11.1997 3.81057 14.4683 0.541992 18.5 0.541992C20.1115 0.541992 21.6002 1.06375 22.807 1.94828" stroke="white" stroke-width="1.08398" stroke-miterlimit="10" stroke-linecap="round" stroke-linejoin="round"/>
<path d="M20.175 4.34332C20.175 4.34332 19.0232 3.4405 17.8677 3.76454C16.2331 4.22307 16.2035 6.05117 17.0692 6.73018C17.5663 7.12005 18.3142 7.44062 19.3222 7.79689C21.5783 8.59434 20.7443 11.7761 18.4494 11.7913C17.5538 11.7973 17.1351 11.7404 16.3484 11.2258" stroke="white" stroke-width="1.08398" stroke-miterlimit="10" stroke-linecap="round" stroke-linejoin="round"/>
<path d="M18.4999 2.73242V12.9524" stroke="white" stroke-width="1.08398" stroke-miterlimit="10" stroke-linecap="round" stroke-linejoin="round"/>
<path d="M4.92194 29.8878C6.13145 29.8878 7.11195 28.9073 7.11195 27.6978C7.11195 26.4883 6.13145 25.5078 4.92194 25.5078C3.71243 25.5078 2.73193 26.4883 2.73193 27.6978C2.73193 28.9073 3.71243 29.8878 4.92194 29.8878Z" stroke="white" stroke-width="1.08398" stroke-miterlimit="10" stroke-linecap="round" stroke-linejoin="round"/>
<path d="M6.18666 36.4583H9.30203V32.2243C9.30203 30.9344 8.25635 29.8887 6.96568 29.8887H2.87834C1.58768 29.8887 0.541992 30.9344 0.541992 32.2243V36.4583H3.65736" stroke="white" stroke-width="1.08398" stroke-miterlimit="10" stroke-linecap="round" stroke-linejoin="round"/>
<path d="M18.5001 29.8878C19.7096 29.8878 20.6901 28.9073 20.6901 27.6978C20.6901 26.4883 19.7096 25.5078 18.5001 25.5078C17.2906 25.5078 16.3101 26.4883 16.3101 27.6978C16.3101 28.9073 17.2906 29.8878 18.5001 29.8878Z" stroke="white" stroke-width="1.08398" stroke-miterlimit="10" stroke-linecap="round" stroke-linejoin="round"/>
<path d="M22.88 36.4577H14.12V32.2237C14.12 30.9335 15.1658 29.8877 16.456 29.8877H20.544C21.8341 29.8877 22.88 30.9336 22.88 32.2237L22.88 36.4577Z" stroke="white" stroke-width="1.08398" stroke-miterlimit="10" stroke-linecap="round" stroke-linejoin="round"/>
<path d="M32.078 29.8878C33.2875 29.8878 34.268 28.9073 34.268 27.6978C34.268 26.4883 33.2875 25.5078 32.078 25.5078C30.8684 25.5078 29.8879 26.4883 29.8879 27.6978C29.8879 28.9073 30.8684 29.8878 32.078 29.8878Z" stroke="white" stroke-width="1.08398" stroke-miterlimit="10" stroke-linecap="round" stroke-linejoin="round"/>
<path d="M33.3427 36.4583H36.458V32.2243C36.458 30.9344 35.4124 29.8887 34.1217 29.8887H30.0343C28.7437 29.8887 27.698 30.9344 27.698 32.2243V36.4583H30.8134" stroke="white" stroke-width="1.08398" stroke-miterlimit="10" stroke-linecap="round" stroke-linejoin="round"/>
<path d="M33.8301 21.4199L32.0781 23.1719L30.326 21.4199" stroke="white" stroke-width="1.08398" stroke-miterlimit="10" stroke-linecap="round" stroke-linejoin="round"/>
<path d="M18.5 23.1715V15.1416" stroke="white" stroke-width="1.08398" stroke-miterlimit="10" stroke-linecap="round" stroke-linejoin="round"/>
<path d="M20.2519 21.4199L18.4999 23.1719L16.7479 21.4199" stroke="white" stroke-width="1.08398" stroke-miterlimit="10" stroke-linecap="round" stroke-linejoin="round"/>
<path d="M4.922 23.172V18.5H32.078V23.172" stroke="white" stroke-width="1.08398" stroke-miterlimit="10" stroke-linecap="round" stroke-linejoin="round"/>
<path d="M6.67406 21.4199L4.92205 23.1719L3.17004 21.4199" stroke="white" stroke-width="1.08398" stroke-miterlimit="10" stroke-linecap="round" stroke-linejoin="round"/>
</g>
<defs>
<clipPath id="clip0_330_2955">
<rect width="37" height="37" fill="white"/>
</clipPath>
</defs>
</svg>
