<svg width="37" height="37" viewBox="0 0 37 37" fill="none" xmlns="http://www.w3.org/2000/svg">
<g clip-path="url(#clip0_330_3370)">
<path d="M15.9817 13.8186C15.9817 13.7276 15.8599 13.6963 15.8169 13.7765C15.2633 14.8119 14.1723 15.5167 12.9161 15.5167H7.88159V18.856C7.88159 21.2895 9.78834 23.5121 12.6726 23.5121C15.2401 23.5121 17.3289 21.4234 17.3289 18.856V15.4797C16.5619 15.317 15.9817 14.6324 15.9817 13.8186Z" stroke="white" stroke-width="1.08399" stroke-miterlimit="10" stroke-linecap="round" stroke-linejoin="round"/>
<path d="M4.48022 30.6865C4.48022 31.1548 4.48022 35.97 4.48022 36.3852" stroke="white" stroke-width="1.08399" stroke-miterlimit="10" stroke-linecap="round" stroke-linejoin="round"/>
<path d="M6.22034 14.998C5.64077 15.274 5.23926 15.8634 5.23926 16.5481C5.23926 17.4968 6.00831 18.2658 6.95701 18.2658H7.88172V15.5166H7.29984C6.86299 15.5166 6.47406 15.3139 6.22034 14.998Z" stroke="white" stroke-width="1.08399" stroke-miterlimit="10" stroke-linecap="round" stroke-linejoin="round"/>
<path d="M18.5388 14.8555C18.4369 15.2346 18.0902 15.5163 17.68 15.5163C17.5597 15.5163 17.4426 15.5027 17.3293 15.4785L17.3291 15.4793V18.2655H18.2538C19.2025 18.2655 19.9716 17.4964 19.9716 16.5477C19.9716 15.6963 19.3515 14.9915 18.5388 14.8555Z" stroke="white" stroke-width="1.08399" stroke-miterlimit="10" stroke-linecap="round" stroke-linejoin="round"/>
<path d="M20.7307 30.6865C20.7307 31.1548 20.7307 35.97 20.7307 36.3852" stroke="white" stroke-width="1.08399" stroke-miterlimit="10" stroke-linecap="round" stroke-linejoin="round"/>
<path d="M6.3999 26.0095L9.43137 29.1159C9.66999 29.3605 10.0621 29.3639 10.3049 29.1236L11.2319 28.2063C11.7115 27.7317 11.6986 26.9529 11.2033 26.4945L9.40962 24.834L6.3999 26.0095Z" stroke="white" stroke-width="1.08399" stroke-miterlimit="10" stroke-linecap="round" stroke-linejoin="round"/>
<path d="M14.9059 29.1236C15.1487 29.3639 15.5408 29.3605 15.7794 29.116L18.8033 26.0173C17.562 25.5366 16.324 25.0572 15.7855 24.8486L14.0075 26.4946C13.5122 26.9529 13.4993 27.7317 13.9789 28.2064L14.9059 29.1236Z" stroke="white" stroke-width="1.08399" stroke-miterlimit="10" stroke-linecap="round" stroke-linejoin="round"/>
<path d="M13.8025 30.6871L14.5777 28.7987L13.979 28.2062C13.7904 28.0195 13.6791 27.7857 13.6422 27.543H11.5688C11.5319 27.7857 11.4206 28.0195 11.232 28.2062L10.6333 28.7987L11.4085 30.6871H13.8025Z" stroke="white" stroke-width="1.08399" stroke-miterlimit="10" stroke-linecap="round" stroke-linejoin="round"/>
<path d="M10.7483 36.4575H14.4625L13.8025 30.6865H11.4083L10.7483 36.4575Z" stroke="white" stroke-width="1.08399" stroke-miterlimit="10" stroke-linecap="round" stroke-linejoin="round"/>
<path d="M34.5421 16.8164H25.8729C24.8147 16.8164 23.9568 17.6742 23.9568 18.7324V24.2014C23.9568 25.2596 24.8147 26.1174 25.8729 26.1174H34.5421C35.6003 26.1174 36.4581 25.2596 36.4581 24.2014V18.7325C36.4581 17.6743 35.6003 16.8164 34.5421 16.8164Z" stroke="white" stroke-width="1.08399" stroke-miterlimit="10" stroke-linecap="round" stroke-linejoin="round"/>
<path d="M34.5421 16.8164H25.8729C24.8147 16.8164 23.9568 17.6742 23.9568 18.7324V20.0695C23.9568 21.1277 24.8147 21.9855 25.8729 21.9855H34.5421C35.6003 21.9855 36.4581 21.1277 36.4581 20.0695V18.7325C36.4581 17.6743 35.6003 16.8164 34.5421 16.8164Z" stroke="white" stroke-width="1.08399" stroke-miterlimit="10" stroke-linecap="round" stroke-linejoin="round"/>
<path d="M32.797 16.7165V15.4158C32.797 14.7589 32.2645 14.2266 31.6077 14.2266H28.8071C28.1504 14.2266 27.6179 14.759 27.6179 15.4158V16.7165" stroke="white" stroke-width="1.08399" stroke-miterlimit="10" stroke-linecap="round" stroke-linejoin="round"/>
<path d="M27.2146 22.1729V25.8223" stroke="white" stroke-width="1.08399" stroke-miterlimit="10" stroke-linecap="round" stroke-linejoin="round"/>
<path d="M33.2 22.1729V25.8223" stroke="white" stroke-width="1.08399" stroke-miterlimit="10" stroke-linecap="round" stroke-linejoin="round"/>
<path d="M29.3857 5.67655L26.0246 0.816351C25.7717 0.450539 25.2311 0.450539 24.9781 0.816351L21.617 5.67655C21.3252 6.09851 21.6272 6.67462 22.1402 6.67462H23.3202C23.6716 6.67462 23.9564 6.9595 23.9564 7.31085V11.3291C23.9564 11.6804 24.2412 11.9653 24.5927 11.9653H26.41C26.7614 11.9653 27.0463 11.6804 27.0463 11.3291V7.31085C27.0463 6.9595 27.3311 6.67462 27.6825 6.67462H28.8625C29.3755 6.67462 29.6776 6.09851 29.3857 5.67655Z" stroke="white" stroke-width="1.08399" stroke-miterlimit="10" stroke-linecap="round" stroke-linejoin="round"/>
<path d="M10.7483 7.23438C9.93336 7.23438 9.27487 7.23438 9.20369 7.23438C7.38757 7.23438 5.91528 8.70666 5.91528 10.5228V14.1318C5.91528 14.8965 6.53518 15.5164 7.29991 15.5164H12.9163C14.1725 15.5164 15.2635 14.8116 15.8171 13.7762C15.8601 13.696 15.9818 13.7273 15.9818 13.8183C15.9818 14.7522 16.746 15.5164 17.68 15.5164C18.1695 15.5164 18.5701 15.1159 18.5701 14.6263C18.5701 13.8734 18.5701 11.6115 18.5701 10.8602C18.5701 9.97291 17.7959 9.32808 17.0266 9.38719C16.5816 9.42144 16.1735 9.1417 16.0879 8.70377C15.9436 7.96629 15.5785 7.23445 14.1522 7.23445C14.0924 7.23445 13.7529 7.23445 13.2776 7.23445" stroke="white" stroke-width="1.08399" stroke-miterlimit="10" stroke-linecap="round" stroke-linejoin="round"/>
<path d="M24.6688 31.6446V31.2606C24.6688 29.1629 23.207 27.7493 22.1154 27.3C21.7977 27.177 15.8285 24.8653 15.5179 24.7449C15.337 24.675 15.2167 24.5009 15.2162 24.3059L15.2149 22.754C14.4834 23.2327 13.6103 23.5122 12.6728 23.5122C11.639 23.5122 10.7317 23.2255 9.99183 22.7471V24.303C9.99183 24.4976 9.89831 24.6122 9.79064 24.6853L3.09545 27.3001C2.0038 27.7493 0.541992 29.1629 0.541992 31.2606V35.5253C0.541992 36.0406 0.959692 36.4583 1.47502 36.4583C1.97937 36.4583 23.2354 36.4583 23.7359 36.4583C24.2511 36.4583 24.6689 36.0406 24.6689 35.5253V34.1739" stroke="white" stroke-width="1.08399" stroke-miterlimit="10" stroke-linecap="round" stroke-linejoin="round"/>
</g>
<defs>
<clipPath id="clip0_330_3370">
<rect width="37" height="37" fill="white"/>
</clipPath>
</defs>
</svg>
