<svg width="37" height="37" viewBox="0 0 37 37" fill="none" xmlns="http://www.w3.org/2000/svg">
<g clip-path="url(#clip0_2173_8674)">
<path d="M24.5549 3.76215C25.3411 4.92707 25.8007 6.33047 25.8007 7.84227C25.8007 11.874 22.5322 15.1418 18.5005 15.1418C14.4688 15.1418 11.2002 11.874 11.2002 7.84227C11.2002 3.81057 14.4688 0.541992 18.5005 0.541992C20.112 0.541992 21.6007 1.06375 22.8075 1.94828" stroke="black" stroke-width="1.08398" stroke-miterlimit="10" stroke-linecap="round" stroke-linejoin="round"/>
<path d="M20.1752 4.34332C20.1752 4.34332 19.0234 3.4405 17.8679 3.76454C16.2333 4.22307 16.2037 6.05117 17.0694 6.73018C17.5665 7.12005 18.3144 7.44062 19.3224 7.79689C21.5785 8.59434 20.7446 11.7761 18.4496 11.7913C17.554 11.7973 17.1353 11.7404 16.3486 11.2258" stroke="black" stroke-width="1.08398" stroke-miterlimit="10" stroke-linecap="round" stroke-linejoin="round"/>
<path d="M18.5 2.73242V12.9524" stroke="black" stroke-width="1.08398" stroke-miterlimit="10" stroke-linecap="round" stroke-linejoin="round"/>
<path d="M4.92243 29.8878C6.13194 29.8878 7.11244 28.9073 7.11244 27.6978C7.11244 26.4883 6.13194 25.5078 4.92243 25.5078C3.71292 25.5078 2.73242 26.4883 2.73242 27.6978C2.73242 28.9073 3.71292 29.8878 4.92243 29.8878Z" stroke="black" stroke-width="1.08398" stroke-miterlimit="10" stroke-linecap="round" stroke-linejoin="round"/>
<path d="M6.18666 36.4583H9.30203V32.2243C9.30203 30.9344 8.25635 29.8887 6.96568 29.8887H2.87834C1.58768 29.8887 0.541992 30.9344 0.541992 32.2243V36.4583H3.65736" stroke="black" stroke-width="1.08398" stroke-miterlimit="10" stroke-linecap="round" stroke-linejoin="round"/>
<path d="M18.4996 29.8878C19.7091 29.8878 20.6896 28.9073 20.6896 27.6978C20.6896 26.4883 19.7091 25.5078 18.4996 25.5078C17.2901 25.5078 16.3096 26.4883 16.3096 27.6978C16.3096 28.9073 17.2901 29.8878 18.4996 29.8878Z" stroke="black" stroke-width="1.08398" stroke-miterlimit="10" stroke-linecap="round" stroke-linejoin="round"/>
<path d="M22.8802 36.4577H14.1201V32.2237C14.1201 30.9335 15.1659 29.8877 16.4561 29.8877H20.5441C21.8343 29.8877 22.8801 30.9336 22.8801 32.2237L22.8802 36.4577Z" stroke="black" stroke-width="1.08398" stroke-miterlimit="10" stroke-linecap="round" stroke-linejoin="round"/>
<path d="M32.0777 29.8878C33.2872 29.8878 34.2677 28.9073 34.2677 27.6978C34.2677 26.4883 33.2872 25.5078 32.0777 25.5078C30.8682 25.5078 29.8877 26.4883 29.8877 27.6978C29.8877 28.9073 30.8682 29.8878 32.0777 29.8878Z" stroke="black" stroke-width="1.08398" stroke-miterlimit="10" stroke-linecap="round" stroke-linejoin="round"/>
<path d="M33.3429 36.4583H36.4583V32.2243C36.4583 30.9344 35.4126 29.8887 34.1219 29.8887H30.0346C28.7439 29.8887 27.6982 30.9344 27.6982 32.2243V36.4583H30.8136" stroke="black" stroke-width="1.08398" stroke-miterlimit="10" stroke-linecap="round" stroke-linejoin="round"/>
<path d="M33.8302 21.4199L32.0782 23.1719L30.3262 21.4199" stroke="black" stroke-width="1.08398" stroke-miterlimit="10" stroke-linecap="round" stroke-linejoin="round"/>
<path d="M18.5 23.1715V15.1416" stroke="black" stroke-width="1.08398" stroke-miterlimit="10" stroke-linecap="round" stroke-linejoin="round"/>
<path d="M20.2521 21.4199L18.5001 23.1719L16.748 21.4199" stroke="black" stroke-width="1.08398" stroke-miterlimit="10" stroke-linecap="round" stroke-linejoin="round"/>
<path d="M4.92188 23.172V18.5H32.0779V23.172" stroke="black" stroke-width="1.08398" stroke-miterlimit="10" stroke-linecap="round" stroke-linejoin="round"/>
<path d="M6.67394 21.4199L4.92193 23.1719L3.16992 21.4199" stroke="black" stroke-width="1.08398" stroke-miterlimit="10" stroke-linecap="round" stroke-linejoin="round"/>
</g>
<defs>
<clipPath id="clip0_2173_8674">
<rect width="37" height="37" fill="white"/>
</clipPath>
</defs>
</svg>
