<svg width="37" height="37" viewBox="0 0 37 37" fill="none" xmlns="http://www.w3.org/2000/svg">
<g clip-path="url(#clip0_330_3429)">
<path d="M30.7104 29.7831C30.4107 29.7831 30.168 30.0259 30.168 30.3255V30.5613C30.168 31.3027 29.5648 31.9058 28.8234 31.9058H2.42934C1.68798 31.9058 1.08482 31.3027 1.08482 30.5613V7.91576H25.7548C26.0544 7.91576 26.2972 7.67298 26.2972 7.37336C26.2972 7.07373 26.0544 6.83095 25.7548 6.83095H1.08482V6.43911C1.08482 5.69774 1.68798 5.09458 2.42934 5.09458H28.8235C29.5649 5.09458 30.168 5.69774 30.168 6.43911V6.83095H28.0664C27.7667 6.83095 27.524 7.07373 27.524 7.37336C27.524 7.67298 27.7667 7.91576 28.0664 7.91576H30.168V17.3081C30.168 17.6077 30.4108 17.8505 30.7104 17.8505C31.0101 17.8505 31.2528 17.6077 31.2528 17.3081V6.43911C31.2528 5.09957 30.1631 4.00977 28.8235 4.00977H2.42934C1.08981 4.00977 0 5.09957 0 6.43911V30.5613C0 31.9008 1.08981 32.9906 2.42934 32.9906H28.8235C30.163 32.9906 31.2528 31.9009 31.2528 30.5613V30.3255C31.2528 30.026 31.01 29.7831 30.7104 29.7831Z" fill="white"/>
<path d="M36.5693 19.8888C36.2996 19.7306 35.9757 19.7275 35.703 19.88L32.9602 21.4141V20.9911C32.9602 19.8576 32.0381 18.9355 30.9047 18.9355H22.9163C21.7829 18.9355 20.8608 19.8576 20.8608 20.9911V21.717C20.8608 22.0166 21.1036 22.2594 21.4032 22.2594C21.7029 22.2594 21.9457 22.0166 21.9457 21.717V20.9911C21.9457 20.4559 22.3811 20.0204 22.9163 20.0204H30.9047C31.4399 20.0204 31.8754 20.4558 31.8754 20.9911V26.6431C31.8754 27.1783 31.44 27.6138 30.9047 27.6138H22.9163C22.3811 27.6138 21.9457 27.1784 21.9457 26.6431V24.0285C21.9457 23.7289 21.7029 23.4861 21.4032 23.4861C21.1036 23.4861 20.8608 23.7289 20.8608 24.0285V26.6431C20.8608 27.7765 21.7829 28.6986 22.9163 28.6986H30.9047C32.0382 28.6986 32.9603 27.7765 32.9603 26.6431V26.2201L35.7031 27.7542C35.8369 27.829 35.9829 27.8663 36.1287 27.8663C36.2805 27.8663 36.432 27.8259 36.5695 27.7453C36.8391 27.5871 37.0001 27.3062 37.0001 26.9935V20.6405C37 20.3279 36.8389 20.0469 36.5693 19.8888ZM35.9152 26.6299L32.9603 24.9771V22.6571L35.9152 21.0043V26.6299Z" fill="white"/>
<path d="M26.4528 26.2631C26.6944 26.2631 26.9356 26.1959 27.153 26.0621L28.9209 24.9736C29.3191 24.7283 29.5567 24.3028 29.5567 23.8351C29.5567 23.3675 29.3191 22.942 28.9209 22.6968L27.153 21.6083C26.7348 21.3506 26.2288 21.3401 25.8001 21.5796C25.3713 21.8192 25.1152 22.2555 25.1152 22.7467V24.9238C25.1152 25.415 25.3713 25.8513 25.8001 26.0909C26.006 26.2058 26.2296 26.2631 26.4528 26.2631ZM26.2001 22.7466C26.2001 22.618 26.2809 22.5535 26.3291 22.5266C26.3568 22.5112 26.4004 22.4931 26.4533 22.4931C26.4927 22.4931 26.5374 22.5032 26.5842 22.5321L28.352 23.6206C28.4563 23.6848 28.4719 23.7826 28.4719 23.8351C28.4719 23.8878 28.4563 23.9856 28.352 24.0498L26.5842 25.1383C26.4747 25.2058 26.3775 25.1708 26.3292 25.1437C26.281 25.1168 26.2001 25.0524 26.2001 24.9237V22.7466H26.2001Z" fill="white"/>
<path d="M24.3042 16.6749V10.2966C24.3042 9.59456 23.733 9.02344 23.0309 9.02344H7.73283C7.43327 9.02344 7.19042 9.26622 7.19042 9.56585C7.19042 9.86547 7.43327 10.1083 7.73283 10.1083H23.0309C23.1349 10.1083 23.2193 10.1927 23.2193 10.2966V16.6749C23.2193 16.7788 23.1348 16.8632 23.0309 16.8632H3.51418C3.41026 16.8632 3.32579 16.7787 3.32579 16.6749V10.2966C3.32579 10.1927 3.41026 10.1083 3.51418 10.1083H5.42129C5.72085 10.1083 5.9637 9.86547 5.9637 9.56585C5.9637 9.26622 5.72085 9.02344 5.42129 9.02344H3.51418C2.81209 9.02344 2.24097 9.59456 2.24097 10.2966V16.6749C2.24097 17.3769 2.81209 17.948 3.51418 17.948H23.0309C23.733 17.9481 24.3042 17.3769 24.3042 16.6749Z" fill="white"/>
<path d="M5.27534 11.0864C5.04088 11.1518 4.87866 11.3654 4.87866 11.6089V15.2533C4.87866 15.5529 5.12152 15.7957 5.42107 15.7957C5.72063 15.7957 5.96348 15.5529 5.96348 15.2533V13.5534L7.1617 15.5341C7.26172 15.6994 7.43941 15.7958 7.62579 15.7958C7.67417 15.7958 7.7232 15.7893 7.77151 15.7758C8.00598 15.7104 8.1682 15.4968 8.1682 15.2533V11.6089C8.1682 11.3093 7.92534 11.0665 7.62579 11.0665C7.32623 11.0665 7.08338 11.3093 7.08338 11.6089V13.3088L5.88516 11.3281C5.75925 11.1199 5.50995 11.021 5.27534 11.0864Z" fill="white"/>
<path d="M11.6354 12.1512C11.935 12.1512 12.1778 11.9084 12.1778 11.6088C12.1778 11.3092 11.935 11.0664 11.6354 11.0664H9.82158C9.34997 11.0664 8.96631 11.4501 8.96631 11.9217V14.9403C8.96631 15.4119 9.34997 15.7956 9.82158 15.7956H11.6354C11.935 15.7956 12.1778 15.5528 12.1778 15.2532C12.1778 14.9535 11.935 14.7107 11.6354 14.7107H10.0511V13.9734H10.5721C10.8716 13.9734 11.1145 13.7306 11.1145 13.431C11.1145 13.1314 10.8716 12.8886 10.5721 12.8886H10.0511V12.1512H11.6354Z" fill="white"/>
<path d="M13.8787 15.7897C14.1148 15.8249 14.3462 15.702 14.4489 15.4865L14.7715 14.8091L15.0563 15.5566C15.1371 15.7685 15.3399 15.9058 15.5628 15.9058C15.5818 15.9058 15.6009 15.9048 15.6202 15.9028C15.8649 15.8769 16.0615 15.6895 16.0992 15.4462L16.6793 11.6918C16.725 11.3957 16.5222 11.1186 16.2261 11.0729C15.9296 11.0271 15.6529 11.23 15.6072 11.5261L15.34 13.2549L15.3336 13.238C15.2562 13.0351 15.0654 12.898 14.8485 12.8892C14.6311 12.8807 14.4303 13.002 14.337 13.198L14.2351 13.4119L13.957 11.5297C13.9132 11.2334 13.6375 11.0279 13.3411 11.0725C13.0447 11.1162 12.8401 11.392 12.8838 11.6884L13.4224 15.3328C13.4574 15.5687 13.6426 15.7544 13.8787 15.7897Z" fill="white"/>
<path d="M17.9736 14.8208C17.674 14.8208 17.4312 15.0636 17.4312 15.3632C17.4312 15.6629 17.674 15.9056 17.9736 15.9056H19.6417C20.2108 15.9056 20.6738 15.4426 20.6738 14.8735V13.9207C20.6738 13.3516 20.2108 12.8886 19.6417 12.8886H18.516V12.1512H20.1315C20.4311 12.1512 20.6739 11.9084 20.6739 11.6088C20.6739 11.3092 20.4311 11.0664 20.1315 11.0664H18.4633C17.8942 11.0664 17.4312 11.5294 17.4312 12.0985V12.9413C17.4312 13.5104 17.8942 13.9734 18.4633 13.9734H19.5891V14.8207H17.9736V14.8208Z" fill="white"/>
<path d="M8.01215 19.9374C8.01215 19.3042 7.497 18.7891 6.86383 18.7891H4.94934C4.31617 18.7891 3.80103 19.3042 3.80103 19.9374V21.8519C3.80103 22.4851 4.31617 23.0003 4.94934 23.0003H6.86383C7.497 23.0003 8.01215 22.4851 8.01215 21.8519V19.9374ZM6.92733 21.8519C6.92733 21.8869 6.89883 21.9154 6.86383 21.9154H4.94934C4.91434 21.9154 4.88584 21.8869 4.88584 21.8519V19.9373C4.88584 19.9023 4.91434 19.8738 4.94934 19.8738H6.86383C6.89883 19.8738 6.92733 19.9023 6.92733 19.9373V21.8519Z" fill="white"/>
<path d="M6.86383 25.1777H4.94934C4.31617 25.1777 3.80103 25.6929 3.80103 26.3261V28.2406C3.80103 28.8739 4.31617 29.389 4.94934 29.389H6.86383C7.497 29.389 8.01215 28.8739 8.01215 28.2406V26.3261C8.01215 25.6929 7.497 25.1777 6.86383 25.1777ZM6.92733 28.2405C6.92733 28.2755 6.89883 28.3041 6.86383 28.3041H4.94934C4.91434 28.3041 4.88584 28.2755 4.88584 28.2405V26.326C4.88584 26.291 4.91434 26.2625 4.94934 26.2625H6.86383C6.89883 26.2625 6.92733 26.291 6.92733 26.326V28.2405Z" fill="white"/>
<path d="M17.9735 20.3525H9.69866C9.3991 20.3525 9.15625 20.5953 9.15625 20.8949C9.15625 21.1946 9.3991 21.4374 9.69866 21.4374H17.9734C18.273 21.4374 18.5159 21.1946 18.5159 20.8949C18.5159 20.5953 18.2731 20.3525 17.9735 20.3525Z" fill="white"/>
<path d="M17.9735 26.7402H9.69866C9.3991 26.7402 9.15625 26.983 9.15625 27.2826C9.15625 27.5823 9.3991 27.8251 9.69866 27.8251H17.9734C18.273 27.8251 18.5159 27.5823 18.5159 27.2826C18.5159 26.983 18.2731 26.7402 17.9735 26.7402Z" fill="white"/>
</g>
<defs>
<clipPath id="clip0_330_3429">
<rect width="37" height="37" fill="white"/>
</clipPath>
</defs>
</svg>
