<svg width="37" height="37" viewBox="0 0 37 37" fill="none" xmlns="http://www.w3.org/2000/svg">
<path d="M23.467 21.191L15.695 28.963L11.532 24.8C10.9027 24.1707 9.88246 24.1707 9.25325 24.8L4.67753 29.3757C4.04824 30.005 4.04824 31.0252 4.67753 31.6545L8.31025 35.2872C9.19609 36.173 10.446 36.5921 11.6868 36.4194L16.0326 35.8146C17.2388 35.6467 18.3573 35.09 19.2185 34.2288L33.1814 20.2659C34.0426 19.4047 34.5993 18.2862 34.7672 17.0799L35.3721 12.7342C35.5448 11.4934 35.1256 10.2434 34.2398 9.35762L30.6071 5.7249C29.9778 5.09561 28.9576 5.09561 28.3283 5.7249L23.7526 10.3006C23.1233 10.9299 23.1233 11.9501 23.7526 12.5794L27.9156 16.7424L25.2629 19.3951" stroke="white" stroke-width="1.08398" stroke-miterlimit="10" stroke-linecap="round" stroke-linejoin="round"/>
<path d="M6.44971 33.4265L13.3039 26.5723" stroke="white" stroke-width="1.08398" stroke-miterlimit="10" stroke-linecap="round" stroke-linejoin="round"/>
<path d="M25.5244 14.3512L32.3787 7.49707" stroke="white" stroke-width="1.08398" stroke-miterlimit="10" stroke-linecap="round" stroke-linejoin="round"/>
<path d="M18.8994 7.89844C17.4526 7.89844 16.0644 8.15498 14.7781 8.62471" stroke="white" stroke-width="1.08398" stroke-miterlimit="10" stroke-linecap="round" stroke-linejoin="round"/>
<path d="M6.85132 19.9469C6.85132 19.0071 6.9595 18.0922 7.16401 17.2139" stroke="white" stroke-width="1.08398" stroke-miterlimit="10" stroke-linecap="round" stroke-linejoin="round"/>
<path d="M9.26562 19.9476C9.26562 14.6353 13.5875 10.3135 18.8998 10.3135" stroke="white" stroke-width="1.08398" stroke-miterlimit="10" stroke-linecap="round" stroke-linejoin="round"/>
<path d="M11.6802 19.9472C11.6802 15.9599 14.9125 12.7275 18.8998 12.7275" stroke="white" stroke-width="1.08398" stroke-miterlimit="10" stroke-linecap="round" stroke-linejoin="round"/>
<path d="M14.0231 0.541992H2.34692C1.92958 0.541992 1.59131 0.880268 1.59131 1.2976V10.7759C1.59131 11.1932 1.92958 11.5315 2.34692 11.5315H6.16052L7.66119 14.533C7.87697 14.9646 8.49297 14.9646 8.70875 14.533L10.2095 11.5315H14.0231C14.4404 11.5315 14.7787 11.1932 14.7787 10.7759V1.2976C14.7787 0.880268 14.4404 0.541992 14.0231 0.541992Z" stroke="white" stroke-width="1.08398" stroke-miterlimit="10" stroke-linecap="round" stroke-linejoin="round"/>
<path d="M8.18494 9.71558C10.1165 9.71558 11.6824 8.14973 11.6824 6.21814C11.6824 4.28656 10.1165 2.7207 8.18494 2.7207C6.25336 2.7207 4.6875 4.28656 4.6875 6.21814C4.6875 8.14973 6.25336 9.71558 8.18494 9.71558Z" stroke="white" stroke-width="1.08398" stroke-miterlimit="10" stroke-linecap="round" stroke-linejoin="round"/>
<path d="M8.18495 2.7207C8.18495 2.7207 5.60066 6.24972 8.18495 9.71565" stroke="white" stroke-width="1.08398" stroke-miterlimit="10" stroke-linecap="round" stroke-linejoin="round"/>
<path d="M8.18506 2.7207C8.18506 2.7207 10.7693 6.24972 8.18506 9.71565" stroke="white" stroke-width="1.08398" stroke-miterlimit="10" stroke-linecap="round" stroke-linejoin="round"/>
</svg>
