<svg width="37" height="37" viewBox="0 0 37 37" fill="none" xmlns="http://www.w3.org/2000/svg">
<g clip-path="url(#clip0_330_4026)">
<path d="M36.458 25.8857V28.2049C36.458 28.8434 35.9404 29.361 35.3019 29.361H1.6981C1.05956 29.361 0.541992 28.8434 0.541992 28.2049V25.8857H36.458Z" stroke="white" stroke-width="1.08398" stroke-miterlimit="10" stroke-linecap="round" stroke-linejoin="round"/>
<path d="M35.3019 6.13184C35.9404 6.13184 36.458 6.64947 36.458 7.28794V25.8856H0.541992V7.28801C0.541992 6.64947 1.05963 6.13191 1.6981 6.13191" stroke="white" stroke-width="1.08398" stroke-miterlimit="10" stroke-linecap="round" stroke-linejoin="round"/>
<path d="M22.0336 29.3613H14.9661V33.7643H22.0336V31.9083" stroke="white" stroke-width="1.08398" stroke-miterlimit="10" stroke-linecap="round" stroke-linejoin="round"/>
<path d="M26.1757 36.1938H10.8242C10.5825 36.1938 10.3865 35.9978 10.3865 35.7561V34.2014C10.3865 33.9597 10.5825 33.7637 10.8242 33.7637H26.1756C26.4174 33.7637 26.6134 33.9597 26.6134 34.2014V35.7561C26.6134 35.9979 26.4174 36.1938 26.1757 36.1938Z" stroke="white" stroke-width="1.08398" stroke-miterlimit="10" stroke-linecap="round" stroke-linejoin="round"/>
<path d="M17.8373 10.3033H2.45559C1.39906 10.3033 0.541992 9.44691 0.541992 8.38967V7.28834C0.541992 6.65023 1.05941 6.13281 1.69824 6.13281H15.2996" stroke="white" stroke-width="1.08398" stroke-miterlimit="10" stroke-linecap="round" stroke-linejoin="round"/>
<path d="M29.5024 6.13281H35.3018C35.9406 6.13281 36.458 6.65023 36.458 7.28834V8.38967C36.458 9.44691 35.6009 10.3033 34.5444 10.3033H29.5024" stroke="white" stroke-width="1.08398" stroke-miterlimit="10" stroke-linecap="round" stroke-linejoin="round"/>
<path d="M28.2457 12.4703H19.0937C18.3998 12.4703 17.8374 11.9078 17.8374 11.2139V2.062C17.8374 1.36811 18.3999 0.805664 19.0937 0.805664H28.2457C28.9396 0.805664 29.502 1.36818 29.502 2.062V11.2139C29.502 11.9078 28.9395 12.4703 28.2457 12.4703Z" stroke="white" stroke-width="1.08398" stroke-miterlimit="10" stroke-linecap="round" stroke-linejoin="round"/>
<path d="M24.6706 3.64648L22.668 9.62856" stroke="white" stroke-width="1.08398" stroke-miterlimit="10" stroke-linecap="round" stroke-linejoin="round"/>
<path d="M26.39 9.08366C27.0193 9.08366 27.5295 8.57349 27.5295 7.94417C27.5295 7.31485 27.0193 6.80469 26.39 6.80469C25.7607 6.80469 25.2505 7.31485 25.2505 7.94417C25.2505 8.57349 25.7607 9.08366 26.39 9.08366Z" stroke="white" stroke-width="1.08398" stroke-miterlimit="10" stroke-linecap="round" stroke-linejoin="round"/>
<path d="M20.9481 6.47038C21.5774 6.47038 22.0876 5.96021 22.0876 5.33089C22.0876 4.70157 21.5774 4.19141 20.9481 4.19141C20.3188 4.19141 19.8086 4.70157 19.8086 5.33089C19.8086 5.96021 20.3188 6.47038 20.9481 6.47038Z" stroke="white" stroke-width="1.08398" stroke-miterlimit="10" stroke-linecap="round" stroke-linejoin="round"/>
<circle cx="2.80884" cy="8.21777" r="0.541992" fill="white"/>
<path d="M7.51087 8.21777H5.32007" stroke="white" stroke-width="1.08398" stroke-miterlimit="10" stroke-linecap="round" stroke-linejoin="round"/>
<path d="M30.7361 28.2139V29.3608" stroke="white" stroke-width="1.08398" stroke-miterlimit="10" stroke-linecap="round" stroke-linejoin="round"/>
<path d="M12.4768 20.2146H5.56783C5.12506 20.2146 4.76611 19.8557 4.76611 19.4129V14.8096H14.082C14.5398 14.8096 14.8577 15.2653 14.6996 15.695L13.2292 19.6898C13.1132 20.0051 12.8127 20.2146 12.4768 20.2146Z" stroke="white" stroke-width="1.08398" stroke-miterlimit="10" stroke-linecap="round" stroke-linejoin="round"/>
<path d="M6.68552 20.2148L5.33864 21.8907C5.10826 22.1773 5.31233 22.6031 5.68002 22.6031H12.3506" stroke="white" stroke-width="1.08398" stroke-miterlimit="10" stroke-linecap="round" stroke-linejoin="round"/>
<path d="M4.76638 14.8099V13.0116C4.76638 12.6816 4.49885 12.4141 4.16888 12.4141H2.97925" stroke="white" stroke-width="1.08398" stroke-miterlimit="10" stroke-linecap="round" stroke-linejoin="round"/>
<path d="M6.81812 23.7749V22.6035" stroke="white" stroke-width="1.08398" stroke-miterlimit="10" stroke-linecap="round" stroke-linejoin="round"/>
<path d="M11.0776 23.7749V22.6035" stroke="white" stroke-width="1.08398" stroke-miterlimit="10" stroke-linecap="round" stroke-linejoin="round"/>
<path d="M4.76611 17.5127H14.0307" stroke="white" stroke-width="1.08398" stroke-miterlimit="10" stroke-linecap="round" stroke-linejoin="round"/>
<path d="M7.69482 14.8096V20.2146" stroke="white" stroke-width="1.08398" stroke-miterlimit="10" stroke-linecap="round" stroke-linejoin="round"/>
<path d="M11.3667 14.8096L10.3875 20.2146" stroke="white" stroke-width="1.08398" stroke-miterlimit="10" stroke-linecap="round" stroke-linejoin="round"/>
<path d="M24.7734 25.8853H17.8374V15.5695C17.8374 15.1498 18.1776 14.8096 18.5973 14.8096H24.0134C24.4332 14.8096 24.7734 15.1498 24.7734 15.5695V25.8853Z" stroke="white" stroke-width="1.08398" stroke-miterlimit="10" stroke-linecap="round" stroke-linejoin="round"/>
<path d="M19.9331 19.0459V17.2695C19.9331 17.0683 20.0962 16.9053 20.2973 16.9053H22.3135C22.5147 16.9053 22.6777 17.0683 22.6777 17.2695V19.0459C22.6777 19.2471 22.5146 19.4101 22.3135 19.4101H20.2973C20.0962 19.4101 19.9331 19.2471 19.9331 19.0459Z" stroke="white" stroke-width="1.08398" stroke-miterlimit="10" stroke-linecap="round" stroke-linejoin="round"/>
<path d="M33.821 25.8853H26.885V15.5695C26.885 15.1498 27.2252 14.8096 27.645 14.8096H33.061C33.4808 14.8096 33.821 15.1498 33.821 15.5695V25.8853Z" stroke="white" stroke-width="1.08398" stroke-miterlimit="10" stroke-linecap="round" stroke-linejoin="round"/>
<path d="M28.9807 19.0459V17.2695C28.9807 17.0683 29.1438 16.9053 29.3449 16.9053H31.3611C31.5623 16.9053 31.7253 17.0683 31.7253 17.2695V19.0459C31.7253 19.2471 31.5623 19.4101 31.3611 19.4101H29.3449C29.1438 19.4101 28.9807 19.2471 28.9807 19.0459Z" stroke="white" stroke-width="1.08398" stroke-miterlimit="10" stroke-linecap="round" stroke-linejoin="round"/>
<path d="M19.9331 21.8525H22.6777" stroke="white" stroke-width="1.08398" stroke-miterlimit="10" stroke-linecap="round" stroke-linejoin="round"/>
<path d="M20.7158 23.7744H21.8953" stroke="white" stroke-width="1.08398" stroke-miterlimit="10" stroke-linecap="round" stroke-linejoin="round"/>
<path d="M28.9807 21.8525H31.7253" stroke="white" stroke-width="1.08398" stroke-miterlimit="10" stroke-linecap="round" stroke-linejoin="round"/>
<path d="M29.7632 23.7744H30.9426" stroke="white" stroke-width="1.08398" stroke-miterlimit="10" stroke-linecap="round" stroke-linejoin="round"/>
</g>
<defs>
<clipPath id="clip0_330_4026">
<rect width="37" height="37" fill="white"/>
</clipPath>
</defs>
</svg>
