<svg width="37" height="37" viewBox="0 0 37 37" fill="none" xmlns="http://www.w3.org/2000/svg">
<g clip-path="url(#clip0_330_3994)">
<path d="M24.1034 11.1221L24.175 11.0024C23.9815 10.6491 23.8253 10.2723 23.7099 9.87814L21.8579 9.41535V7.1444L23.7099 6.68082C23.8253 6.28733 23.9815 5.91068 24.175 5.55658L23.1931 3.9207L24.7991 2.31467L26.4351 3.29654C26.7884 3.10309 27.1651 2.94685 27.5593 2.83152L28.0221 0.979492H30.2938L30.7566 2.83152C31.1508 2.94685 31.5275 3.10309 31.8808 3.29654L33.5167 2.31467L35.1228 3.9207L34.1409 5.55665C34.3344 5.91068 34.4906 6.2874 34.6059 6.68089L36.458 7.14447V9.41549L34.6059 9.87828C34.4906 10.2725 34.3344 10.6491 34.1409 11.0025L35.1228 12.6385L33.5167 14.2445L31.8808 13.2626C31.5275 13.4561 31.1508 13.6123 30.7566 13.7277L30.2938 15.5797H28.8659M29.158 9.7396C28.3516 9.7396 27.698 9.08596 27.698 8.27962C27.698 7.47328 28.3516 6.81964 29.158 6.81964C29.9643 6.81964 30.6179 7.47328 30.6179 8.27962C30.6179 9.08596 29.9643 9.7396 29.158 9.7396Z" stroke="white" stroke-width="1.08398" stroke-miterlimit="10" stroke-linecap="round" stroke-linejoin="round"/>
<path d="M19.4043 18.4782C19.4043 18.4782 18.8128 17.9763 17.9905 18.2054C17.1516 18.4393 17.0281 19.4636 17.6297 19.8884C17.9337 20.103 18.3894 20.2438 18.957 20.5168C20.4111 21.2164 19.7948 22.861 18.4428 22.87C17.9152 22.8735 17.6686 22.84 17.2051 22.5368" stroke="white" stroke-width="1.08398" stroke-miterlimit="10" stroke-linecap="round" stroke-linejoin="round"/>
<path d="M18.4995 17.5332V23.5541" stroke="white" stroke-width="1.08398" stroke-miterlimit="10" stroke-linecap="round" stroke-linejoin="round"/>
<path d="M27.4061 17.7695H23.4641" stroke="white" stroke-width="1.08398" stroke-miterlimit="10" stroke-linecap="round" stroke-linejoin="round"/>
<path d="M23.4641 23.3174H27.4061" stroke="white" stroke-width="1.08398" stroke-miterlimit="10" stroke-linecap="round" stroke-linejoin="round"/>
<path d="M23.4641 25.5071V15.5791" stroke="white" stroke-width="1.08398" stroke-miterlimit="10" stroke-linecap="round" stroke-linejoin="round"/>
<path d="M27.406 25.5079V21.8086" stroke="white" stroke-width="1.08398" stroke-miterlimit="10" stroke-linecap="round" stroke-linejoin="round"/>
<path d="M27.406 19.2791V15.5791" stroke="white" stroke-width="1.08398" stroke-miterlimit="10" stroke-linecap="round" stroke-linejoin="round"/>
<path d="M13.536 17.7695H9.59399" stroke="white" stroke-width="1.08398" stroke-miterlimit="10" stroke-linecap="round" stroke-linejoin="round"/>
<path d="M9.59399 23.3174H13.536" stroke="white" stroke-width="1.08398" stroke-miterlimit="10" stroke-linecap="round" stroke-linejoin="round"/>
<path d="M19.595 12.2942C19.595 11.6895 19.1047 11.1992 18.5 11.1992C17.8953 11.1992 17.405 11.6895 17.405 12.2942V13.3892H19.595V12.2942H19.595Z" stroke="white" stroke-width="1.08398" stroke-miterlimit="10" stroke-linecap="round" stroke-linejoin="round"/>
<path d="M9.01001 13.3893L17.5996 8.37873C17.7112 8.31362 17.8381 8.2793 17.9674 8.2793H19.0327C19.162 8.2793 19.2889 8.31362 19.4005 8.37873L27.9901 13.3893" stroke="white" stroke-width="1.08398" stroke-miterlimit="10" stroke-linecap="round" stroke-linejoin="round"/>
<path d="M13.5361 23.3939V15.5791" stroke="white" stroke-width="1.08398" stroke-miterlimit="10" stroke-linecap="round" stroke-linejoin="round"/>
<path d="M9.59399 24.1729V15.5791" stroke="white" stroke-width="1.08398" stroke-miterlimit="10" stroke-linecap="round" stroke-linejoin="round"/>
<path d="M15.3962 13.3896H28.8658C29.1888 13.3896 29.4497 13.6513 29.4497 13.9736V14.9954C29.4497 15.3184 29.1888 15.5793 28.8658 15.5793H8.1342C7.81117 15.5793 7.55029 15.3184 7.55029 14.9954V13.9736C7.55029 13.6513 7.81117 13.3896 8.1342 13.3896H12.8669" stroke="white" stroke-width="1.08398" stroke-miterlimit="10" stroke-linecap="round" stroke-linejoin="round"/>
<path d="M23.4641 25.5078H28.5741C29.0579 25.5078 29.4501 25.9 29.4501 26.3838V27.5218" stroke="white" stroke-width="1.08398" stroke-miterlimit="10" stroke-linecap="round" stroke-linejoin="round"/>
<path d="M5.21411 34.8516H7.84212" stroke="white" stroke-width="1.08398" stroke-miterlimit="10" stroke-linecap="round" stroke-linejoin="round"/>
<path d="M7.84212 25.5078H5.21411" stroke="white" stroke-width="1.08398" stroke-miterlimit="10" stroke-linecap="round" stroke-linejoin="round"/>
<path d="M35.9448 23.5044C35.2606 22.8202 34.1513 22.8202 33.4671 23.5044L27.9599 29.0116H22.8799C23.8476 29.0116 24.6319 28.2272 24.6319 27.2596C24.6319 26.292 23.8476 25.5076 22.8799 25.5076H17.332L16.2066 24.5951C15.1873 23.7686 13.9149 23.3176 12.6026 23.3176C11.3158 23.3176 10.0667 23.7512 9.05675 24.5485L7.84204 25.5076V34.8516L18.4163 35.5147C19.1218 35.5589 19.8296 35.4747 20.505 35.2661L28.7199 32.7291C29.1741 32.5889 29.5871 32.34 29.9231 32.0039L35.9449 25.9821C36.629 25.2979 36.629 24.1886 35.9448 23.5044Z" stroke="white" stroke-width="1.08398" stroke-miterlimit="10" stroke-linecap="round" stroke-linejoin="round"/>
<circle cx="2.87793" cy="26.6758" r="0.541992" fill="white"/>
<circle cx="2.87793" cy="29.0117" r="0.541992" fill="white"/>
<path d="M0.541992 30.2755V36.0192H5.21396V24.3389H0.541992V27.7462" stroke="white" stroke-width="1.08398" stroke-miterlimit="10" stroke-linecap="round" stroke-linejoin="round"/>
<path d="M22.88 29.0117H16.602L15.8354 29.7782" stroke="white" stroke-width="1.08398" stroke-miterlimit="10" stroke-linecap="round" stroke-linejoin="round"/>
</g>
<defs>
<clipPath id="clip0_330_3994">
<rect width="37" height="37" fill="white"/>
</clipPath>
</defs>
</svg>
