<svg width="37" height="37" viewBox="0 0 37 37" fill="none" xmlns="http://www.w3.org/2000/svg">
<g clip-path="url(#clip0_330_3958)">
<path d="M30.1093 5.40916C29.9458 5.15847 29.61 5.08765 29.3592 5.25119L28.0079 6.1324L25.7071 5.68363L27.6486 4.11713C27.8815 3.92916 27.918 3.58792 27.73 3.35501C27.542 3.12203 27.2009 3.08553 26.9678 3.27357L24.3168 5.41249L22.5521 5.06829C22.2584 5.01083 21.9737 5.2027 21.9164 5.49653C21.8591 5.79036 22.0508 6.07495 22.3446 6.13225L24.1093 6.47645L25.7623 9.45488C25.8613 9.6333 26.0461 9.73397 26.2366 9.73397C26.3256 9.73397 26.4158 9.712 26.4992 9.66575C26.7608 9.5205 26.8553 9.19061 26.71 8.92886L25.4994 6.74767L27.8003 7.19644L28.7215 8.52092C28.8268 8.67239 28.9954 8.75347 29.1669 8.75347C29.2737 8.75347 29.3816 8.72196 29.4759 8.65642C29.7216 8.48551 29.7823 8.14774 29.6114 7.90204L28.8836 6.85556L29.9513 6.15928C30.2021 5.99574 30.2728 5.65992 30.1093 5.40916Z" fill="white"/>
<path d="M27.2304 11.266C26.9365 11.2087 26.652 11.4005 26.5947 11.6942L26.0253 14.614C25.968 14.9077 26.1597 15.1924 26.4535 15.2497C26.4885 15.2565 26.5235 15.2598 26.5578 15.2598C26.8119 15.2598 27.0387 15.0802 27.0892 14.8214L27.6587 11.9017C27.716 11.6079 27.5242 11.3233 27.2304 11.266Z" fill="white"/>
<path d="M29.0231 15.1984L29.5925 12.2787C29.6498 11.9849 29.4581 11.7003 29.1643 11.643C28.8707 11.5856 28.5858 11.7774 28.5286 12.0712L27.9591 14.9909C27.9018 15.2846 28.0935 15.5693 28.3873 15.6266C28.4223 15.6335 28.4573 15.6367 28.4916 15.6367C28.7458 15.6367 28.9726 15.4571 29.0231 15.1984Z" fill="white"/>
<path d="M30.3212 16.0035C30.3561 16.0104 30.3911 16.0136 30.4254 16.0136C30.6796 16.0136 30.9064 15.8341 30.9569 15.5753L31.5263 12.6556C31.5836 12.3618 31.3919 12.0772 31.0981 12.0199C30.8042 11.9626 30.5197 12.1543 30.4624 12.4481L29.8929 15.3678C29.8357 15.6616 30.0274 15.9462 30.3212 16.0035Z" fill="white"/>
<path d="M26.3642 30.6364C26.3991 30.6433 26.4341 30.6465 26.4684 30.6465C26.7226 30.6465 26.9494 30.467 26.9999 30.2082L28.7573 21.1976C28.8146 20.9038 28.6229 20.6192 28.3291 20.5619C28.0353 20.5046 27.7506 20.6963 27.6933 20.9901L25.9359 30.0007C25.8786 30.2945 26.0703 30.5791 26.3642 30.6364Z" fill="white"/>
<path d="M11.8938 12.9775C8.62821 12.9775 5.97144 15.6343 5.97144 18.9C5.97144 22.1657 8.62821 24.8225 11.8938 24.8225C15.1594 24.8225 17.8163 22.1656 17.8163 18.9C17.8163 15.6344 15.1595 12.9775 11.8938 12.9775ZM11.8938 23.7385C11.7296 23.7385 11.3702 23.4148 11.0536 22.5232C10.8902 22.0631 10.7624 21.5271 10.6733 20.9425C11.0701 20.968 11.4785 20.9815 11.8938 20.9815C12.3091 20.9815 12.7176 20.968 13.1145 20.9425C13.0253 21.5271 12.8975 22.0631 12.7341 22.5232C12.4175 23.4148 12.0582 23.7385 11.8938 23.7385ZM11.8938 19.8975C11.4372 19.8975 10.9881 19.8803 10.556 19.8476C10.5359 19.5386 10.5253 19.2219 10.5253 18.9C10.5253 18.5781 10.5359 18.2614 10.556 17.9524C10.9881 17.9197 11.4372 17.9025 11.8938 17.9025C12.3505 17.9025 12.7996 17.9197 13.2317 17.9524C13.2518 18.2614 13.2625 18.5781 13.2625 18.9C13.2625 19.2219 13.2518 19.5386 13.2317 19.8476C12.7996 19.8803 12.3505 19.8975 11.8938 19.8975ZM7.0659 18.9C7.14279 18.7925 7.49501 18.5206 8.43649 18.2788C8.75027 18.1982 9.09562 18.13 9.46338 18.0744C9.44864 18.3482 9.44127 18.6242 9.44127 18.8999C9.44127 19.1756 9.44864 19.4517 9.46338 19.7256C9.09562 19.6699 8.75019 19.6017 8.43649 19.5211C7.49487 19.2795 7.14279 19.0075 7.0659 18.9ZM11.8938 14.0615C12.0581 14.0615 12.4175 14.3852 12.7341 15.2768C12.8975 15.737 13.0253 16.273 13.1145 16.8576C12.7176 16.832 12.3091 16.8185 11.8938 16.8185C11.4785 16.8185 11.0701 16.8321 10.6733 16.8576C10.7624 16.273 10.8902 15.737 11.0536 15.2768C11.3702 14.3852 11.7296 14.0615 11.8938 14.0615ZM14.3244 18.0744C14.6922 18.13 15.0376 18.1982 15.3513 18.2788C16.2928 18.5205 16.6449 18.7925 16.7219 18.9C16.645 19.0075 16.2928 19.2795 15.3513 19.5212C15.0376 19.6018 14.6922 19.67 14.3244 19.7256C14.3391 19.4517 14.3465 19.1757 14.3465 18.9C14.3465 18.6243 14.3391 18.3482 14.3244 18.0744ZM16.5325 17.5261C16.3281 17.4413 16.1002 17.3626 15.8475 17.2903C15.3674 17.1529 14.8175 17.0437 14.2223 16.9649C14.0903 15.9652 13.854 15.0456 13.5163 14.3422C14.9629 14.8588 16.093 16.0451 16.5325 17.5261ZM10.2714 14.3423C9.93376 15.0457 9.69745 15.9653 9.56549 16.965C8.97031 17.0439 8.42037 17.153 7.94031 17.2904C7.6876 17.3626 7.45967 17.4414 7.25531 17.5262C7.69475 16.0451 8.82484 14.8588 10.2714 14.3423ZM7.25531 20.2738C7.45967 20.3586 7.6876 20.4373 7.94031 20.5096C8.42037 20.647 8.97031 20.7562 9.56549 20.8351C9.69745 21.8348 9.93376 22.7544 10.2714 23.4578C8.82484 22.9412 7.69475 21.7549 7.25531 20.2738ZM13.5163 23.4577C13.854 22.7543 14.0903 21.8347 14.2223 20.835C14.8175 20.7562 15.3674 20.6469 15.8475 20.5096C16.1002 20.4373 16.3281 20.3585 16.5325 20.2738C16.093 21.7549 14.9629 22.9412 13.5163 23.4577Z" fill="white"/>
<path d="M17.6375 28.7895V26.8008C17.6375 26.1976 17.1469 25.707 16.5438 25.707H7.24389C6.64076 25.707 6.15015 26.1976 6.15015 26.8008V28.7895C6.15015 29.3927 6.64076 29.8833 7.24389 29.8833H16.5438C17.1469 29.8833 17.6375 29.3927 17.6375 28.7895ZM7.23413 28.7895V26.8008C7.23413 26.7954 7.23854 26.791 7.24389 26.791H16.5438C16.5491 26.791 16.5535 26.7954 16.5535 26.8008V28.7895C16.5535 28.7949 16.5491 28.7993 16.5438 28.7993H7.24389C7.23847 28.7993 7.23413 28.7949 7.23413 28.7895Z" fill="white"/>
<path d="M16.2443 31.6455C16.2443 31.3461 16.0017 31.1035 15.7023 31.1035H8.08569C7.7863 31.1035 7.5437 31.3461 7.5437 31.6455C7.5437 31.9449 7.7863 32.1875 8.08569 32.1875H15.7023C16.0017 32.1875 16.2443 31.9448 16.2443 31.6455Z" fill="white"/>
<path d="M10.2537 33.4082C9.95427 33.4082 9.71167 33.6508 9.71167 33.9502C9.71167 34.2496 9.95427 34.4922 10.2537 34.4922H13.5343C13.8337 34.4922 14.0763 34.2496 14.0763 33.9502C14.0763 33.6508 13.8337 33.4082 13.5343 33.4082H10.2537Z" fill="white"/>
<path d="M34.6621 2.57833L33.2142 2.29591C32.9204 2.23853 32.6358 2.4304 32.5785 2.72416C32.5212 3.01792 32.7129 3.30257 33.0068 3.35988L34.4546 3.64229C34.6791 3.68609 34.8262 3.9044 34.7824 4.12893L28.6557 35.5418C28.6118 35.7663 28.393 35.9133 28.169 35.8697L22.6625 34.7956V32.9501L23.9451 33.2003C24.0852 33.2278 24.2324 33.1984 24.3516 33.1179C24.4708 33.0376 24.5533 32.9131 24.5808 32.7721L26.7428 21.6869C26.8001 21.3932 26.6084 21.1085 26.3145 21.0512C26.0207 20.9939 25.7361 21.1856 25.6788 21.4795L23.6206 32.0326L22.6625 31.8457V17.5247L26.3114 18.2363L26.0941 19.3502C26.0368 19.644 26.2285 19.9287 26.5224 19.986C26.5574 19.9928 26.5923 19.9961 26.6267 19.9961C26.8808 19.9961 27.1076 19.8166 27.1581 19.5578L27.479 17.9119C27.5363 17.6182 27.3446 17.3335 27.0508 17.2762L22.6624 16.4203V10.7474C22.6624 10.4481 22.4198 10.2054 22.1204 10.2054H19.1775L20.8911 1.41969C20.9349 1.19523 21.1528 1.04774 21.3778 1.09182L30.8797 2.94507C31.1739 3.00274 31.4581 2.81066 31.5154 2.51683C31.5727 2.22307 31.381 1.93841 31.0872 1.88111L21.5853 0.0278551C20.7746 -0.130262 19.9855 0.40089 19.8273 1.21214L18.0732 10.2054H3.57421C2.22393 10.2054 1.12549 11.3039 1.12549 12.6541V30.5623C1.12549 30.8616 1.36808 31.1042 1.66748 31.1042C1.96688 31.1042 2.20947 30.8616 2.20947 30.5623V12.6541C2.20947 11.9016 2.82171 11.2894 3.57421 11.2894H21.5785V35.916H3.57421C2.82171 35.916 2.20947 35.3038 2.20947 34.5512V32.7293C2.20947 32.4299 1.96688 32.1873 1.66748 32.1873C1.36808 32.1873 1.12549 32.4299 1.12549 32.7293V34.5512C1.12549 35.9015 2.22393 37 3.57421 37H22.1205C22.4199 37 22.6625 36.7574 22.6625 36.458V35.9001L27.9615 36.9336C28.058 36.9525 28.154 36.9615 28.2489 36.9615C28.9513 36.9615 29.5802 36.464 29.7196 35.7494L35.8464 4.33648C36.0045 3.52522 35.4732 2.73652 34.6621 2.57833Z" fill="white"/>
</g>
<defs>
<clipPath id="clip0_330_3958">
<rect width="37" height="37" fill="white"/>
</clipPath>
</defs>
</svg>
