<svg width="37" height="37" viewBox="0 0 37 37" fill="none" xmlns="http://www.w3.org/2000/svg">
<g clip-path="url(#clip0_330_2764)">
<path d="M32.4317 12.0941H29.7646V6.84551C29.7646 5.94674 29.4072 5.10904 28.8223 4.49658L27.0989 2.69327C25.6364 1.18638 25.4518 0.760668 24.5807 0.337842C24.176 0.135859 23.6428 0 23.1051 0H10.517C8.6418 0 7.11678 1.52574 7.11678 3.40024V21.7368H6.39969C5.31787 21.7368 4.43804 22.6166 4.43804 23.6984C4.43804 24.2368 4.65599 24.7243 5.00764 25.0788C4.65599 25.4334 4.43804 25.9209 4.43804 26.4593C4.43804 26.6612 4.46637 26.7811 4.47656 26.8473C0.219679 27.2803 -1.47611 32.5492 1.63934 35.4089C2.58024 36.2727 3.82913 36.7624 5.18339 36.7072C5.63093 36.7072 14.8449 36.7036 14.8566 36.7036C15.9377 36.7036 16.8182 35.8237 16.8182 34.7419C16.8182 34.2035 16.6003 33.716 16.2486 33.3615C16.5792 33.028 16.7913 32.5783 16.8153 32.0784H17.5514V32.4715C17.5514 34.9686 19.5827 37 22.0799 37H32.4317C34.9289 37 36.9602 34.9686 36.9602 32.4715V16.6226C36.9603 14.1255 34.9289 12.0941 32.4317 12.0941ZM27.8044 5.11489C27.8044 5.11489 27.8051 5.11489 27.8059 5.11633C27.8066 5.11633 27.8066 5.11633 27.8066 5.11633C27.8073 5.11778 27.8087 5.11922 27.8095 5.11995L27.8102 5.12067C27.8116 5.12284 27.8131 5.12428 27.8145 5.12501C27.8152 5.12573 27.816 5.12645 27.8167 5.1279C27.8174 5.12862 27.8181 5.12862 27.8181 5.12934C27.8189 5.13006 27.8196 5.13006 27.8203 5.13151C27.8218 5.13223 27.8225 5.13368 27.8232 5.1344H24.9105V2.05538C27.1934 4.46826 27.7078 5.01242 27.8044 5.11489ZM6.39969 22.8992H14.8566C15.297 22.8992 15.6558 23.2582 15.6558 23.6984C15.6558 24.1395 15.2969 24.4976 14.8566 24.4976H6.39969C5.95938 24.4976 5.60051 24.1395 5.60051 23.6984C5.60043 23.2581 5.95938 22.8992 6.39969 22.8992ZM6.39969 25.6601H14.8566C15.297 25.6601 15.6558 26.019 15.6558 26.4593C15.6558 26.9003 15.2969 27.2584 14.8566 27.2584H9.0152C8.77759 27.1495 8.53131 27.0608 8.27918 26.9925C7.90282 26.89 7.51338 26.8319 7.11671 26.8217C7.00268 26.8189 6.88857 26.8196 6.77453 26.8246H5.68983C5.63245 26.7149 5.60043 26.5907 5.60043 26.4592C5.60043 26.019 5.95938 25.6601 6.39969 25.6601ZM15.6558 29.2202C15.6558 29.6612 15.2969 30.0194 14.8566 30.0194H11.6039C11.3831 29.4315 11.0503 28.8903 10.6173 28.421H14.8566C15.2969 28.421 15.6558 28.7799 15.6558 29.2202ZM3.57194 28.1769C3.21812 28.5125 2.90348 28.9114 2.65648 29.351H1.97935C2.42183 28.8024 2.97184 28.4122 3.57194 28.1769ZM1.36104 30.4407H2.20749C2.18863 30.5221 2.09266 30.8352 2.04908 31.3119H1.15472C1.18963 31.0126 1.25864 30.7205 1.36104 30.4407ZM1.45477 33.3215C1.32621 33.0294 1.23393 32.7207 1.18161 32.4017H2.06946C2.22859 33.3041 2.23726 33.1486 2.27723 33.3215H1.45477ZM2.17988 34.4113C2.53659 34.4106 2.7437 34.4127 2.79234 34.4099C3.00957 34.7528 3.27109 35.0703 3.5741 35.3558C3.04736 35.1488 2.57879 34.8328 2.17988 34.4113ZM7.13926 35.6181C5.0127 35.7097 3.21227 34.0626 3.12216 31.9309C2.97611 28.5373 7.02949 26.5828 9.58183 28.9259C12.098 31.2356 10.5664 35.4771 7.13926 35.6181ZM14.8566 35.5411H10.1654C10.6848 35.1015 11.1113 34.5574 11.4143 33.9427H14.8566C15.297 33.9427 15.6558 34.3017 15.6558 34.7419C15.6558 35.1829 15.2969 35.5411 14.8566 35.5411ZM15.6493 32.0784C15.6013 32.4736 15.2642 32.7803 14.8566 32.7803H11.8153C11.9207 32.2761 11.9505 31.7326 11.8858 31.1819H14.8566C15.3463 31.1818 15.7118 31.62 15.6493 32.0784ZM17.5514 30.9159H16.5022C16.4289 30.8018 16.3438 30.6965 16.2486 30.6006C17.0079 29.8348 17.0086 28.6055 16.2486 27.8398C16.6003 27.4852 16.8182 26.9977 16.8182 26.4593C16.8182 25.921 16.6003 25.4335 16.2486 25.0789C17.4706 23.8467 16.5974 21.7368 14.8566 21.7368H8.27918V3.40024C8.27918 2.1666 9.28323 1.16246 10.517 1.16246H23.7481V5.71571C23.7481 6.03685 24.0082 6.29694 24.3293 6.29694H28.5331C28.6544 6.76775 28.5795 6.61223 28.6021 12.094H22.0799C19.5827 12.094 17.5514 14.1254 17.5514 16.6225V30.9159ZM35.8705 32.4715C35.8705 34.3677 34.328 35.9102 32.4317 35.9102H22.08C20.1844 35.9102 18.6412 34.3678 18.6412 32.4715V16.6226C18.6412 14.7264 20.1844 13.1839 22.08 13.1839H32.4318C34.328 13.1839 35.8706 14.7263 35.8706 16.6226V32.4715H35.8705Z" fill="white"/>
<path d="M32.3933 14.4199H22.1185C21.1081 14.4199 20.2891 15.239 20.2891 16.2493V18.2437C20.2891 19.2541 21.1081 20.0731 22.1185 20.0731H24.0954C24.3963 20.0731 24.6402 19.8291 24.6402 19.5282C24.6402 19.2273 24.3963 18.9834 24.0954 18.9834H22.1185C21.7117 18.9834 21.3788 18.6505 21.3788 18.2437V16.2493C21.3788 15.8425 21.7117 15.5097 22.1185 15.5097H32.3933C32.8016 15.5097 33.1329 15.8417 33.1329 16.2493V18.2437C33.1329 18.6513 32.8016 18.9834 32.3933 18.9834H26.4451C26.1442 18.9834 25.9002 19.2273 25.9002 19.5282C25.9002 19.8291 26.1442 20.0731 26.4451 20.0731H32.3933C33.4025 20.0731 34.2227 19.2521 34.2227 18.2437V16.2493C34.2227 15.2409 33.4024 14.4199 32.3933 14.4199Z" fill="white"/>
<path d="M23.2918 25.9023H21.4297C20.8012 25.9023 20.2891 26.4138 20.2891 27.043V28.9044C20.2891 29.5336 20.8013 30.045 21.4297 30.045H23.2918C23.9211 30.045 24.4325 29.5335 24.4325 28.9044V27.043C24.4325 26.4138 23.921 25.9023 23.2918 25.9023ZM23.3426 28.9044C23.3426 28.9327 23.3194 28.9553 23.2918 28.9553H21.4296C21.402 28.9553 21.3788 28.9327 21.3788 28.9044V27.043C21.3788 27.0147 21.402 26.9921 21.4296 26.9921H23.2918C23.3194 26.9921 23.3426 27.0147 23.3426 27.043V28.9044Z" fill="white"/>
<path d="M33.1409 21.0342H31.2794C30.6502 21.0342 30.1388 21.5457 30.1388 22.1748V24.0362C30.1388 24.6655 30.6503 25.1769 31.2794 25.1769H33.1409C33.7701 25.1769 34.2815 24.6654 34.2815 24.0362V22.1748C34.2815 21.5457 33.77 21.0342 33.1409 21.0342ZM33.1917 24.0362C33.1917 24.0646 33.1692 24.0871 33.1409 24.0871H31.2794C31.2518 24.0871 31.2286 24.0646 31.2286 24.0362C31.2511 22.1945 31.1813 22.1239 31.2794 22.1239H33.1409C33.1692 22.1239 33.1917 22.1465 33.1917 22.1748V24.0362Z" fill="white"/>
<path d="M23.2918 21.0342H21.4297C20.8012 21.0342 20.2891 21.5457 20.2891 22.1748V24.0362C20.2891 24.6655 20.8013 25.1769 21.4297 25.1769H23.2918C23.9211 25.1769 24.4325 24.6654 24.4325 24.0362V22.1748C24.4325 21.5457 23.921 21.0342 23.2918 21.0342ZM23.3426 24.0362C23.3426 24.0646 23.3194 24.0871 23.2918 24.0871H21.4296C21.402 24.0871 21.3788 24.0646 21.3788 24.0362V22.1748C21.3788 22.1465 21.402 22.1239 21.4296 22.1239H23.2918C23.3194 22.1239 23.3426 22.1465 23.3426 22.1748V24.0362Z" fill="white"/>
<path d="M24.1455 30.9156C23.9362 30.6802 23.6311 30.5312 23.2918 30.5312H21.4297C21.0904 30.5312 20.7852 30.6802 20.5767 30.9156C20.1808 31.3595 20.3152 31.8434 20.2891 32.078V33.5333C20.2891 34.1625 20.8013 34.6739 21.4297 34.6739H23.2918C23.921 34.6739 24.4325 34.1625 24.4325 33.5333V32.078C24.4063 31.8485 24.5393 31.3595 24.1455 30.9156ZM23.2918 33.5842C21.4522 33.5616 21.3788 33.6314 21.3788 33.5333C21.3788 31.5622 21.357 31.621 21.4297 31.621H23.2918C23.3812 31.621 23.326 31.7452 23.3427 32.078C23.3427 32.078 23.3899 33.5842 23.2918 33.5842Z" fill="white"/>
<path d="M32.8517 25.9023H31.5686C30.7804 25.9023 30.1388 26.5439 30.1388 27.3322V33.1133C30.1388 33.9743 30.8392 34.6747 31.6994 34.6747H32.721C33.582 34.6747 34.2816 33.9743 34.2816 33.1133V27.3322C34.2816 26.5439 33.6408 25.9023 32.8517 25.9023ZM32.721 33.5848H31.6994C31.4401 33.5848 31.2286 33.3734 31.2286 33.1133V27.3322C31.2286 27.1447 31.3812 26.9922 31.5686 26.9922H32.8517C33.0392 26.9922 33.1917 27.1447 33.1917 27.3322V33.1133C33.1918 33.3734 32.9811 33.5848 32.721 33.5848Z" fill="white"/>
<path d="M14.0663 15.8279C13.4019 15.5838 12.9219 15.4074 12.9219 14.7919C12.9219 14.2309 13.2945 13.9465 14.0293 13.9465C14.8092 13.9465 15.0192 14.2898 15.294 14.2898C15.593 14.2898 15.7584 13.9725 15.7584 13.753C15.7584 13.299 15.0179 13.0739 14.356 13.0145V12.6052C14.356 12.3205 14.1244 12.0889 13.8396 12.0889C13.5549 12.0889 13.3233 12.3205 13.3233 12.6052V13.0798C12.4182 13.2947 11.9208 13.9199 11.9208 14.8462C11.9208 16.1144 12.8545 16.4653 13.6049 16.7473C14.3396 17.0234 14.9199 17.2415 14.9199 18.0803C14.9199 18.7731 14.5353 19.1244 13.7764 19.1244C12.6658 19.1244 12.6554 18.3745 12.2318 18.3745C11.9695 18.3745 11.7582 18.6682 11.7582 18.9113C11.7582 19.3407 12.3977 19.9051 13.3233 20.0516V20.4471C13.3233 20.7318 13.5549 20.9634 13.8396 20.9634C14.1244 20.9634 14.356 20.7318 14.356 20.4471V20.041C15.3517 19.8536 15.9211 19.1225 15.9211 18.026C15.921 16.5094 14.8927 16.1316 14.0663 15.8279Z" fill="white"/>
<path d="M28.9778 30.851C28.773 30.6533 28.4939 30.5312 28.1873 30.5312H26.3252C25.9859 30.5312 25.6807 30.6802 25.4715 30.9156C25.077 31.3602 25.2107 31.8434 25.1845 32.078V33.5333C25.1845 34.1625 25.696 34.6739 26.3252 34.6739H28.1873C28.8158 34.6739 29.3272 34.1625 29.3272 33.5333V31.6712C29.3272 31.3494 29.1928 31.058 28.9778 30.851ZM28.1873 33.5842C26.3477 33.5616 26.2743 33.6314 26.2743 33.5333V31.6712C26.2743 31.6436 26.2976 31.621 26.3252 31.621H28.1873C28.2149 31.621 28.2375 31.6436 28.2375 31.6712C28.2156 33.5152 28.2839 33.5842 28.1873 33.5842Z" fill="white"/>
<path d="M28.1872 21.0342H26.3251C25.6959 21.0342 25.1844 21.5457 25.1844 22.1748V24.0362C25.1844 24.6655 25.6959 25.1769 26.3251 25.1769H28.1872C28.334 25.1769 28.4735 25.1493 28.6021 25.0984C29.0264 24.932 29.3272 24.5186 29.3272 24.0362V22.1747C29.3271 21.5434 28.8128 21.0342 28.1872 21.0342ZM28.1872 24.0871H26.3251C26.2975 24.0871 26.2742 24.0646 26.2742 24.0362V22.1748C26.2742 22.0768 26.3418 22.1458 28.1872 22.1239C28.2148 22.1239 28.2374 22.1465 28.2374 22.1748V24.0362C28.2374 24.0646 28.2148 24.0871 28.1872 24.0871Z" fill="white"/>
<path d="M28.6021 25.9808C28.4735 25.9299 28.334 25.9023 28.1872 25.9023H26.3251C25.6959 25.9023 25.1844 26.4138 25.1844 27.043V28.9044C25.1844 29.5336 25.6959 30.045 26.3251 30.045H28.1872C28.8157 30.045 29.3271 29.5335 29.3271 28.9044V27.043C29.3271 26.5606 29.0264 26.1472 28.6021 25.9808ZM28.2374 28.9044C28.2374 28.9327 28.2148 28.9553 28.1872 28.9553H26.3251C26.2975 28.9553 26.2742 28.9327 26.2742 28.9044V27.043C26.2742 27.0147 26.2975 26.9921 26.3251 26.9921H28.1872C28.2148 26.9921 28.2374 27.0147 28.2374 27.043V28.9044Z" fill="white"/>
<path d="M25.0421 7.44629H23.6733C23.3725 7.44629 23.1284 7.6904 23.1284 7.99117C23.1284 8.29266 23.3725 8.53605 23.6733 8.53605H25.0421C25.3429 8.53605 25.587 8.29266 25.587 7.99117C25.587 7.6904 25.3429 7.44629 25.0421 7.44629Z" fill="white"/>
<path d="M21.4936 7.44629H11.8307C11.5299 7.44629 11.2858 7.6904 11.2858 7.99117C11.2858 8.29266 11.5299 8.53605 11.8307 8.53605H21.4937C21.7945 8.53605 22.0386 8.29266 22.0386 7.99117C22.0386 7.6904 21.7945 7.44629 21.4936 7.44629Z" fill="white"/>
<path d="M13.5627 10.1514H11.8307C11.5299 10.1514 11.2858 10.3955 11.2858 10.6962C11.2858 10.997 11.5299 11.2411 11.8307 11.2411H13.5627C13.8635 11.2411 14.1076 10.997 14.1076 10.6962C14.1076 10.3955 13.8635 10.1514 13.5627 10.1514Z" fill="white"/>
<path d="M25.0421 10.1514H15.7423C15.4415 10.1514 15.1974 10.3955 15.1974 10.6962C15.1974 10.997 15.4415 11.2411 15.7423 11.2411H25.0421C25.3428 11.2411 25.5869 10.997 25.5869 10.6962C25.587 10.3955 25.3428 10.1514 25.0421 10.1514Z" fill="white"/>
<path d="M6.66531 30.7247C6.66531 30.5878 6.71575 30.5484 6.76294 30.5223C6.90935 30.4413 7.24524 30.4174 7.55295 30.5757C7.63468 30.6177 7.72733 30.6653 7.84787 30.6653C8.3853 30.6653 8.81037 29.6667 7.52657 29.4459V29.4116C7.52657 29.1071 7.27885 28.8594 6.97439 28.8594C6.66994 28.8594 6.42221 29.1071 6.42221 29.4116V29.5163C5.88426 29.7115 5.57995 30.1551 5.57995 30.7573C5.57995 31.6866 6.25513 31.9403 6.74827 32.1256C7.2185 32.3023 7.3811 32.3796 7.3811 32.6994C7.3811 32.8994 7.32726 33.0845 6.93638 33.0845C6.36678 33.0845 6.435 32.6342 6.00871 32.6342C5.70743 32.6342 5.48218 32.9322 5.48218 33.1986C5.48218 33.5762 5.87472 33.9344 6.42221 34.0797V34.121C6.42221 34.4255 6.66994 34.6732 6.97439 34.6732C7.27885 34.6732 7.52657 34.4256 7.52657 34.121V34.0652C8.11901 33.8748 8.46653 33.3647 8.46653 32.6669C8.46653 31.0111 6.66531 31.2598 6.66531 30.7247Z" fill="white"/>
</g>
<defs>
<clipPath id="clip0_330_2764">
<rect width="37" height="37" fill="white"/>
</clipPath>
</defs>
</svg>
