<svg width="37" height="38" viewBox="0 0 37 38" fill="none" xmlns="http://www.w3.org/2000/svg">
<g clip-path="url(#clip0_330_3875)">
<path d="M1.70972 26.6239V16.5176H35.2901V18.0395" stroke="white" stroke-width="1.08398" stroke-miterlimit="10" stroke-linecap="round" stroke-linejoin="round"/>
<path d="M35.2901 20.5693V33.1623H1.70972V29.1538" stroke="white" stroke-width="1.08398" stroke-miterlimit="10" stroke-linecap="round" stroke-linejoin="round"/>
<path d="M9.52108 23.7873C10.7608 23.7873 11.7658 22.7823 11.7658 21.5426C11.7658 20.3028 10.7608 19.2979 9.52108 19.2979C8.28136 19.2979 7.27637 20.3028 7.27637 21.5426C7.27637 22.7823 8.28136 23.7873 9.52108 23.7873Z" stroke="white" stroke-width="1.08398" stroke-miterlimit="10" stroke-linecap="round" stroke-linejoin="round"/>
<path d="M14.0105 33.1623H5.03149V25.8925C5.03149 24.7303 5.97369 23.7881 7.13594 23.7881H11.9061C13.0683 23.7881 14.0105 24.7303 14.0105 25.8925V33.1623Z" stroke="white" stroke-width="1.08398" stroke-miterlimit="10" stroke-linecap="round" stroke-linejoin="round"/>
<path d="M7.13599 33.1621V27.0146" stroke="white" stroke-width="1.08398" stroke-miterlimit="10" stroke-linecap="round" stroke-linejoin="round"/>
<path d="M11.906 33.1621V27.0146" stroke="white" stroke-width="1.08398" stroke-miterlimit="10" stroke-linecap="round" stroke-linejoin="round"/>
<path d="M18.5006 23.7873C19.7403 23.7873 20.7453 22.7823 20.7453 21.5426C20.7453 20.3028 19.7403 19.2979 18.5006 19.2979C17.2609 19.2979 16.2559 20.3028 16.2559 21.5426C16.2559 22.7823 17.2609 23.7873 18.5006 23.7873Z" stroke="white" stroke-width="1.08398" stroke-miterlimit="10" stroke-linecap="round" stroke-linejoin="round"/>
<path d="M22.9895 33.1623H14.0105V25.8925C14.0105 24.7303 14.9527 23.7881 16.1149 23.7881H20.8851C22.0473 23.7881 22.9895 24.7303 22.9895 25.8925V33.1623Z" stroke="white" stroke-width="1.08398" stroke-miterlimit="10" stroke-linecap="round" stroke-linejoin="round"/>
<path d="M16.115 33.1621V27.0146" stroke="white" stroke-width="1.08398" stroke-miterlimit="10" stroke-linecap="round" stroke-linejoin="round"/>
<path d="M20.885 33.1621V27.0146" stroke="white" stroke-width="1.08398" stroke-miterlimit="10" stroke-linecap="round" stroke-linejoin="round"/>
<path d="M27.4791 23.7873C28.7188 23.7873 29.7238 22.7823 29.7238 21.5426C29.7238 20.3028 28.7188 19.2979 27.4791 19.2979C26.2394 19.2979 25.2344 20.3028 25.2344 21.5426C25.2344 22.7823 26.2394 23.7873 27.4791 23.7873Z" stroke="white" stroke-width="1.08398" stroke-miterlimit="10" stroke-linecap="round" stroke-linejoin="round"/>
<path d="M31.9685 33.1623H22.9895V25.8925C22.9895 24.7303 23.9317 23.7881 25.0939 23.7881H29.8641C31.0263 23.7881 31.9685 24.7303 31.9685 25.8925V33.1623Z" stroke="white" stroke-width="1.08398" stroke-miterlimit="10" stroke-linecap="round" stroke-linejoin="round"/>
<path d="M25.094 33.1621V27.0146" stroke="white" stroke-width="1.08398" stroke-miterlimit="10" stroke-linecap="round" stroke-linejoin="round"/>
<path d="M29.864 33.1621V27.0146" stroke="white" stroke-width="1.08398" stroke-miterlimit="10" stroke-linecap="round" stroke-linejoin="round"/>
<path d="M35.2899 14.6201V16.5181H1.70996V14.6201" stroke="white" stroke-width="1.08398" stroke-miterlimit="10" stroke-linecap="round" stroke-linejoin="round"/>
<path d="M35.2899 35.0601V33.1621H1.70996V35.0601" stroke="white" stroke-width="1.08398" stroke-miterlimit="10" stroke-linecap="round" stroke-linejoin="round"/>
<path d="M9.01001 12.7222V10.5322H27.99V12.7222" stroke="white" stroke-width="1.08398" stroke-miterlimit="10" stroke-linecap="round" stroke-linejoin="round"/>
<path d="M24.2538 12.7227H36.458V14.6204H0.541992V12.7227H21.7245" stroke="white" stroke-width="1.08398" stroke-miterlimit="10" stroke-linecap="round" stroke-linejoin="round"/>
<path d="M15.7991 10.5318V8.12287C15.7991 6.63117 17.0084 5.42188 18.5001 5.42188C19.9918 5.42188 21.2011 6.63117 21.2011 8.12287V10.5318" stroke="white" stroke-width="1.08398" stroke-miterlimit="10" stroke-linecap="round" stroke-linejoin="round"/>
<path d="M22.15 1.04199H18.5V3.232H22.15V1.04199Z" stroke="white" stroke-width="1.08398" stroke-miterlimit="10" stroke-linecap="round" stroke-linejoin="round"/>
<path d="M18.5 1.04199V5.42201" stroke="white" stroke-width="1.08398" stroke-miterlimit="10" stroke-linecap="round" stroke-linejoin="round"/>
<path d="M25.7999 10.5318H11.2V9.80189C11.2 7.38288 13.161 5.42188 15.58 5.42188H21.42C23.839 5.42188 25.8 7.38288 25.8 9.80189V10.5318H25.7999Z" stroke="white" stroke-width="1.08398" stroke-miterlimit="10" stroke-linecap="round" stroke-linejoin="round"/>
<path d="M36.458 35.0596H0.541992V36.9576H36.458V35.0596Z" stroke="white" stroke-width="1.08398" stroke-miterlimit="10" stroke-linecap="round" stroke-linejoin="round"/>
</g>
<defs>
<clipPath id="clip0_330_3875">
<rect width="37" height="37" fill="white" transform="translate(0 0.5)"/>
</clipPath>
</defs>
</svg>
