<svg width="37" height="37" viewBox="0 0 37 37" fill="none" xmlns="http://www.w3.org/2000/svg">
<g clip-path="url(#clip0_344_504)">
<path d="M31.1617 27.3843C33.389 24.4144 33.1532 20.1701 30.4536 17.4705C29.8217 16.8387 29.1051 16.3422 28.3401 15.9802V9.30687L19.0334 0H0.012085V37H28.3402V29.6916C28.7885 29.4795 29.22 29.221 29.6278 28.9163L35.4464 34.7994L36.9879 33.2749L31.1617 27.3843ZM19.6683 3.70094L24.6393 8.67188H19.6683V3.70094ZM26.1722 34.832H2.18005V2.16797H17.5004V10.8398H26.1722V15.3288C23.886 15.0015 21.4779 15.7154 19.7228 17.4705C16.7643 20.429 16.7643 25.2429 19.7228 28.2014C21.4576 29.9361 23.8563 30.6745 26.1722 30.343V34.832ZM28.9208 26.6684C26.8075 28.7815 23.3691 28.7815 21.2559 26.6684C19.1427 24.5551 19.1427 21.1167 21.2559 19.0035C23.3691 16.8903 26.8075 16.8901 28.9208 19.0035C31.034 21.1167 31.034 24.5552 28.9208 26.6684Z" fill="white"/>
<path d="M19.6686 13.0801H4.34827V15.248H19.6686V13.0801Z" fill="white"/>
<path d="M15.3326 17.416H4.34827V19.584H15.3326V17.416Z" fill="white"/>
<path d="M15.3326 26.0879H4.34827V28.2559H15.3326V26.0879Z" fill="white"/>
<path d="M15.3326 21.752H4.34827V23.9199H15.3326V21.752Z" fill="white"/>
</g>
<defs>
<clipPath id="clip0_344_504">
<rect width="37" height="37" fill="white"/>
</clipPath>
</defs>
</svg>
