<svg width="37" height="37" viewBox="0 0 37 37" fill="none" xmlns="http://www.w3.org/2000/svg">
<path d="M12.5738 11.2252L12.7336 10.0069C12.8043 9.46879 12.5209 8.95386 12.0286 8.72561L11.3862 8.42773C11.3404 8.40647 11.3084 8.36403 11.3007 8.31407L11.2416 7.93153C11.5982 7.59482 11.821 7.11792 11.821 6.58998V5.86711C11.821 4.8494 10.993 4.02148 9.97529 4.02148C8.95758 4.02148 8.12966 4.8494 8.12966 5.86711V6.58998C8.12966 7.11792 8.35249 7.59482 8.70908 7.93153L8.68001 8.11958C8.65254 8.29636 8.65933 8.3837 8.56433 8.42787L7.92215 8.72561C7.42978 8.95386 7.14643 9.46879 7.217 10.0069L7.37686 11.2251C7.43578 11.6751 7.82245 12.0144 8.27628 12.0144H11.6742C12.1282 12.0144 12.5148 11.6751 12.5738 11.2252ZM9.21417 5.86711C9.21417 5.44741 9.55565 5.106 9.97536 5.106C10.3951 5.106 10.7365 5.44748 10.7365 5.86711V6.58998C10.7365 7.00969 10.395 7.35109 9.97536 7.35109H9.97529C9.55558 7.35109 9.21417 7.00961 9.21417 6.58998V5.86711ZM11.6583 9.8658L11.5187 10.9299H8.43202L8.29241 9.8658C8.2838 9.80015 8.31829 9.73739 8.37837 9.70948L9.02055 9.41175C9.39615 9.23764 9.65817 8.88944 9.72158 8.48044L9.73098 8.41949C9.81095 8.43011 9.8925 8.43561 9.97529 8.43561C10.0581 8.43561 10.1396 8.43011 10.2195 8.41949L10.2288 8.47971C10.292 8.88908 10.5542 9.2375 10.9299 9.41175L11.5723 9.70963C11.6324 9.73739 11.6669 9.80015 11.6583 9.8658Z" fill="white"/>
<path d="M15.5989 11.1011C15.8984 11.1011 16.1411 10.8584 16.1411 10.5589C16.1411 10.2593 15.8984 10.0166 15.5989 10.0166H14.1251C13.8256 10.0166 13.5829 10.2593 13.5829 10.5589C13.5829 10.8584 13.8256 11.1011 14.1251 11.1011H15.5989Z" fill="white"/>
<path d="M19.3728 11.1011C19.6723 11.1011 19.915 10.8584 19.915 10.5589C19.915 10.2593 19.6723 10.0166 19.3728 10.0166H17.8991C17.5995 10.0166 17.3568 10.2593 17.3568 10.5589C17.3568 10.8584 17.5995 11.1011 17.8991 11.1011H19.3728Z" fill="white"/>
<path d="M23.6889 10.5589C23.6889 10.2593 23.4462 10.0166 23.1467 10.0166H21.6729C21.3733 10.0166 21.1306 10.2593 21.1306 10.5589C21.1306 10.8584 21.3733 11.1011 21.6729 11.1011H23.1467C23.4462 11.1011 23.6889 10.8584 23.6889 10.5589Z" fill="white"/>
<path d="M10.8778 13.502H8.40102C8.10148 13.502 7.85876 13.7447 7.85876 14.0442C7.85876 14.3438 8.10148 14.5865 8.40102 14.5865H10.8778C11.1774 14.5865 11.4201 14.3438 11.4201 14.0442C11.4201 13.7447 11.1773 13.502 10.8778 13.502Z" fill="white"/>
<path d="M22.1204 13.502H13.2464C12.9468 13.502 12.7041 13.7447 12.7041 14.0442C12.7041 14.3438 12.9468 14.5865 13.2464 14.5865H22.1204C22.4199 14.5865 22.6626 14.3438 22.6626 14.0442C22.6626 13.7447 22.4199 13.502 22.1204 13.502Z" fill="white"/>
<path d="M10.8778 15.5039H8.40102C8.10148 15.5039 7.85876 15.7466 7.85876 16.0462C7.85876 16.3457 8.10148 16.5884 8.40102 16.5884H10.8778C11.1774 16.5884 11.4201 16.3457 11.4201 16.0462C11.4201 15.7466 11.1773 15.5039 10.8778 15.5039Z" fill="white"/>
<path d="M22.1204 15.5039H13.2464C12.9468 15.5039 12.7041 15.7466 12.7041 16.0462C12.7041 16.3457 12.9468 16.5884 13.2464 16.5884H22.1204C22.4199 16.5884 22.6626 16.3457 22.6626 16.0462C22.6626 15.7466 22.4199 15.5039 22.1204 15.5039Z" fill="white"/>
<path d="M10.8778 17.5068H8.40102C8.10148 17.5068 7.85876 17.7496 7.85876 18.0491C7.85876 18.3486 8.10148 18.5914 8.40102 18.5914H10.8778C11.1774 18.5914 11.4201 18.3486 11.4201 18.0491C11.4201 17.7496 11.1773 17.5068 10.8778 17.5068Z" fill="white"/>
<path d="M22.1204 17.5068H13.2464C12.9468 17.5068 12.7041 17.7496 12.7041 18.0491C12.7041 18.3486 12.9468 18.5914 13.2464 18.5914H22.1204C22.4199 18.5914 22.6626 18.3486 22.6626 18.0491C22.6626 17.7496 22.4199 17.5068 22.1204 17.5068Z" fill="white"/>
<path d="M10.8778 19.5088H8.40102C8.10148 19.5088 7.85876 19.7515 7.85876 20.051C7.85876 20.3506 8.10148 20.5933 8.40102 20.5933H10.8778C11.1774 20.5933 11.4201 20.3506 11.4201 20.051C11.4201 19.7515 11.1773 19.5088 10.8778 19.5088Z" fill="white"/>
<path d="M10.8778 21.5107H8.40102C8.10148 21.5107 7.85876 21.7535 7.85876 22.053C7.85876 22.3525 8.10148 22.5953 8.40102 22.5953H10.8778C11.1774 22.5953 11.4201 22.3525 11.4201 22.053C11.4201 21.7535 11.1773 21.5107 10.8778 21.5107Z" fill="white"/>
<path d="M10.8778 23.5137H8.40102C8.10148 23.5137 7.85876 23.7564 7.85876 24.0559C7.85876 24.3555 8.10148 24.5982 8.40102 24.5982H10.8778C11.1774 24.5982 11.4201 24.3555 11.4201 24.0559C11.4201 23.7564 11.1773 23.5137 10.8778 23.5137Z" fill="white"/>
<path d="M23.689 5.99472C23.689 5.60133 23.3689 5.28125 22.9755 5.28125H14.0176C13.6242 5.28125 13.3041 5.60133 13.3041 5.99472V8.28688C13.3041 8.68027 13.6242 9.00034 14.0176 9.00034H22.9754C23.3688 9.00034 23.689 8.68027 23.689 8.28688V5.99472H23.689ZM22.6045 7.91583H14.3886V6.36577H22.6045V7.91583Z" fill="white"/>
<path d="M24.678 22.0605C23.5245 22.0605 22.5861 22.999 22.5861 24.1526V24.9099C21.7791 24.9889 21.1465 25.6713 21.1465 26.4986V30.369C21.1465 31.2493 21.8626 31.9654 22.7428 31.9654H26.6132C27.4935 31.9654 28.2096 31.2493 28.2096 30.369V26.4986C28.2096 25.6713 27.5769 24.9889 26.77 24.9099V24.1526C26.77 22.999 25.8315 22.0605 24.678 22.0605ZM23.6706 24.1526C23.6706 23.597 24.1225 23.1451 24.678 23.1451C25.2336 23.1451 25.6855 23.597 25.6855 24.1526V24.9022H23.6707V24.1526H23.6706ZM27.1251 26.4986V30.369C27.1251 30.6512 26.8954 30.8808 26.6132 30.8808H22.7428C22.4606 30.8808 22.231 30.6512 22.231 30.369V26.4986C22.231 26.2163 22.4606 25.9867 22.7428 25.9867H26.6132C26.8955 25.9867 27.1251 26.2163 27.1251 26.4986Z" fill="white"/>
<path d="M24.678 27.4102C24.3785 27.4102 24.1357 27.6529 24.1357 27.9524V28.621C24.1357 28.9205 24.3785 29.1632 24.678 29.1632C24.9775 29.1632 25.2203 28.9205 25.2203 28.621V27.9524C25.2203 27.6529 24.9775 27.4102 24.678 27.4102Z" fill="white"/>
<path d="M33.956 22.5057L32.5939 22.2059C30.0998 21.6568 27.8478 20.3047 26.1911 18.3732V14.7572C26.1911 14.4577 25.9484 14.215 25.6489 14.215C25.3493 14.215 25.1066 14.4577 25.1066 14.7572V17.4128C24.9701 17.3702 24.826 17.3479 24.6782 17.3479C24.2322 17.3479 23.82 17.5504 23.5474 17.9036C23.097 18.4873 22.5946 19.0241 22.0488 19.5088H13.2466C12.9471 19.5088 12.7044 19.7515 12.7044 20.051C12.7044 20.3506 12.9471 20.5933 13.2466 20.5933H20.6226C20.0758 20.9469 19.4999 21.2554 18.9009 21.5146C18.8807 21.5123 18.8604 21.5111 18.8396 21.5111H13.2466C12.9471 21.5111 12.7044 21.7538 12.7044 22.0533C12.7044 22.3529 12.9471 22.5956 13.2466 22.5956H15.1355C14.7641 22.7698 14.5042 23.1148 14.4345 23.5134H13.2466C12.9471 23.5134 12.7044 23.7561 12.7044 24.0556C12.7044 24.3552 12.9471 24.5979 13.2466 24.5979H14.5583C14.9432 26.4657 15.5589 28.1715 16.4 29.705H9.29355V26.9638C9.29355 26.3367 8.7834 25.8266 8.15633 25.8266H5.41525V3.21863C5.41525 3.18074 5.44612 3.14987 5.48401 3.14987H25.0379C25.0758 3.14987 25.1066 3.18074 25.1066 3.21863V12.6605C25.1066 12.96 25.3493 13.2028 25.6489 13.2028C25.9484 13.2028 26.1911 12.96 26.1911 12.6605V3.21863C26.1911 2.58267 25.6738 2.06535 25.0379 2.06535H23.2959V1.1532C23.2959 0.517314 22.7786 0 22.1427 0H6.81218C6.51264 0 6.26992 0.242715 6.26992 0.542258C6.26992 0.841801 6.51264 1.08452 6.81218 1.08452H22.1427C22.1805 1.08452 22.2114 1.11539 22.2114 1.1532V2.06528H5.48401C4.84805 2.06528 4.33074 2.58259 4.33074 3.21855V26.3687C4.33399 26.5264 4.39125 26.6539 4.48951 26.7522L5.50303 27.7657H3.21253C3.17464 27.7657 3.14384 27.7349 3.14384 27.697V1.1532C3.14384 1.11532 3.17464 1.08452 3.21253 1.08452H4.71545C5.01499 1.08452 5.25771 0.841801 5.25771 0.542258C5.25771 0.242715 5.01499 0 4.71545 0H3.21253C2.57664 0 2.05933 0.517314 2.05933 1.1532V27.697C2.05933 28.3329 2.57664 28.8502 3.21253 28.8502H6.58754L8.36796 30.6306C8.46506 30.7277 8.60113 30.7894 8.75144 30.7894H17.0515C17.7343 31.8309 18.5328 32.7822 19.4453 33.6394C19.6636 33.8444 20.0067 33.8338 20.2118 33.6156C20.4169 33.3972 20.4062 33.0541 20.188 32.849C17.727 30.5369 16.1508 27.4793 15.5033 23.7615C15.4874 23.6707 15.5448 23.5844 15.6337 23.5647C16.2492 23.3325 20.955 23.0381 24.4062 18.566C24.496 18.4497 24.6152 18.4323 24.6784 18.4323C24.7414 18.4323 24.8606 18.4496 24.9504 18.566C26.7894 20.9491 29.4212 22.6178 32.3608 23.2649L33.7229 23.5647C33.8118 23.5842 33.8691 23.6706 33.8534 23.7614C32.8641 29.441 29.8621 33.4007 24.6784 35.8591C23.6176 35.3552 22.6343 34.7773 21.7522 34.1392C21.5096 33.9636 21.1705 34.018 20.995 34.2607C20.8194 34.5033 20.8738 34.8423 21.1164 35.0179C22.118 35.7425 23.2401 36.3927 24.4516 36.9503C24.5236 36.9834 24.6009 37 24.6784 37C24.7558 37 24.8331 36.9834 24.9051 36.9503C30.4974 34.3764 33.8675 30.0017 34.9218 23.9476C35.0373 23.2837 34.6131 22.6503 33.956 22.5057ZM6.18208 26.911H8.15648C8.18547 26.911 8.20918 26.9347 8.20918 26.9637V28.9381L6.18208 26.911Z" fill="white"/>
</svg>
