<svg width="37" height="37" viewBox="0 0 37 37" fill="none" xmlns="http://www.w3.org/2000/svg">
<path d="M23.1105 35.3656H4.77637C3.97812 35.3656 3.33105 34.7185 3.33105 33.9203V4.75488C3.33105 3.95664 3.97812 3.30957 4.77637 3.30957H9.94972" stroke="white" stroke-width="1.08398" stroke-linecap="round" stroke-linejoin="round"/>
<path d="M21.468 3.30957H26.6454C27.4437 3.30957 28.0907 3.95664 28.0907 4.75488V22.0714" stroke="white" stroke-width="1.08398" stroke-linecap="round" stroke-linejoin="round"/>
<path d="M6.22168 14.3818V32.5501H11.2832" stroke="white" stroke-width="1.08398" stroke-linecap="round" stroke-linejoin="round"/>
<path d="M6.22168 11.8472V6.12598H10.0163" stroke="white" stroke-width="1.08398" stroke-linecap="round" stroke-linejoin="round"/>
<path d="M20.3047 32.5508H13.8196" stroke="white" stroke-width="1.08398" stroke-linecap="round" stroke-linejoin="round"/>
<path d="M21.417 6.12598H25.2001V23.6331" stroke="white" stroke-width="1.08398" stroke-linecap="round" stroke-linejoin="round"/>
<path d="M11.7363 16.9424H8.8457V19.833H11.7363V16.9424Z" stroke="white" stroke-width="1.08398" stroke-linecap="round" stroke-linejoin="round"/>
<path d="M13.9043 17.3037H18.2094" stroke="white" stroke-width="1.08398" stroke-linecap="round" stroke-linejoin="round"/>
<path d="M13.9043 19.4717H21.8535" stroke="white" stroke-width="1.08398" stroke-linecap="round" stroke-linejoin="round"/>
<path d="M11.7363 23.4463H8.8457V26.3369H11.7363V23.4463Z" stroke="white" stroke-width="1.08398" stroke-linecap="round" stroke-linejoin="round"/>
<path d="M13.9043 23.8076H17.6728" stroke="white" stroke-width="1.08398" stroke-linecap="round" stroke-linejoin="round"/>
<path d="M13.9043 25.9756H16.6118" stroke="white" stroke-width="1.08398" stroke-linecap="round" stroke-linejoin="round"/>
<path d="M14.8157 7.0235H10.8035C10.4046 7.0235 10.0808 6.69975 10.0808 6.30084V3.13488C10.0808 2.73598 10.4046 2.41223 10.8035 2.41223H12.7929C12.7929 1.89625 13.0025 1.42797 13.3407 1.08977C13.6789 0.751563 14.1472 0.541992 14.6632 0.541992H16.7589C17.7916 0.541992 18.6291 1.37955 18.6291 2.41223H20.6186C21.0175 2.41223 21.3412 2.73598 21.3412 3.13488V6.30084C21.3412 6.69975 21.0175 7.0235 20.6186 7.0235H17.3522" stroke="white" stroke-width="1.08398" stroke-linecap="round" stroke-linejoin="round"/>
<path d="M14.3379 4.36133H17.084" stroke="white" stroke-width="1.08398" stroke-linecap="round" stroke-linejoin="round"/>
<path d="M18.2402 10.7568H16.7949V9.31152H14.627V10.7568H13.1816V12.9248H14.627V14.3701H16.7949V12.9248H18.2402V10.7568Z" stroke="white" stroke-width="1.08398" stroke-linecap="round" stroke-linejoin="round"/>
<path d="M32.8542 24.1895C33.3832 24.9656 33.6679 25.8812 33.6693 26.8409C33.6708 28.1048 33.1801 29.2943 32.2876 30.1897L26.6263 35.8662C26.2462 36.2477 25.7403 36.458 25.2012 36.458C24.6629 36.458 24.157 36.2477 23.7762 35.8662L18.1149 30.1897C17.2224 29.2943 16.7317 28.1048 16.7332 26.8409C16.7353 25.5763 17.2289 24.3882 18.1243 23.495C19.0182 22.604 20.2048 22.1133 21.4673 22.1133C22.7341 22.1133 23.9243 22.6069 24.819 23.5044L25.2012 23.8874L25.5835 23.5044C26.4782 22.6069 27.6691 22.1133 28.9359 22.1133C29.6347 22.1133 30.3111 22.2636 30.9268 22.5505" stroke="white" stroke-width="1.08398" stroke-linecap="round" stroke-linejoin="round"/>
<path d="M25.2016 23.8877L25.1941 23.8953" stroke="white" stroke-width="1.08398" stroke-linecap="round" stroke-linejoin="round"/>
<path d="M17.4622 29.2561H19.8777L20.6408 28.0105L21.9127 30.205L23.2355 25.5195L25.1943 32.858L27.1531 26.5871L28.4249 30.6202L29.7477 28.0105L30.5109 29.2561H32.9402" stroke="white" stroke-width="1.08398" stroke-linecap="round" stroke-linejoin="round"/>
</svg>
