<svg width="37" height="37" viewBox="0 0 37 37" fill="none" xmlns="http://www.w3.org/2000/svg">
<g clip-path="url(#clip0_330_2978)">
<path d="M4.64538 18.7143C2.15677 16.8823 0.541992 13.9322 0.541992 10.605C0.541992 5.04732 5.04732 0.541992 10.605 0.541992C15.419 0.541992 19.4435 3.92236 20.4343 8.43889" stroke="white" stroke-width="1.08398" stroke-miterlimit="10" stroke-linecap="round" stroke-linejoin="round"/>
<path d="M20.4323 12.7803C19.4382 17.2923 15.4158 20.6682 10.605 20.6682C9.27951 20.6682 8.01385 20.412 6.85486 19.9462" stroke="white" stroke-width="1.08398" stroke-miterlimit="10" stroke-linecap="round" stroke-linejoin="round"/>
<path d="M16.0861 5.42186C17.3661 6.77482 18.1521 8.59981 18.1521 10.6049C18.1521 14.7665 14.7664 18.1522 10.6048 18.1522C6.44326 18.1522 3.05762 14.7665 3.05762 10.6049C3.05762 6.44333 6.44333 3.05762 10.6049 3.05762C11.8369 3.05762 13.0009 3.35434 14.0291 3.88007" stroke="white" stroke-width="1.08398" stroke-miterlimit="10" stroke-linecap="round" stroke-linejoin="round"/>
<path d="M12.969 12.3102C12.969 13.2516 12.2058 14.0185 11.2644 14.0185H9.10376V10.6064H11.2644C12.2058 10.6064 12.969 11.3688 12.969 12.3102Z" stroke="white" stroke-width="1.08398" stroke-miterlimit="10" stroke-linecap="round" stroke-linejoin="round"/>
<path d="M12.9688 8.89872C12.9688 7.95731 12.2057 7.19043 11.2643 7.19043H9.10364V10.6025H11.2643C12.2057 10.6025 12.9688 9.84005 12.9688 8.89872Z" stroke="white" stroke-width="1.08398" stroke-miterlimit="10" stroke-linecap="round" stroke-linejoin="round"/>
<path d="M9.10359 7.19043H8.02539" stroke="white" stroke-width="1.08398" stroke-miterlimit="10" stroke-linecap="round" stroke-linejoin="round"/>
<path d="M9.10359 14.0186H8.02539" stroke="white" stroke-width="1.08398" stroke-miterlimit="10" stroke-linecap="round" stroke-linejoin="round"/>
<path d="M9.10364 7.19044V6.1123" stroke="white" stroke-width="1.08398" stroke-miterlimit="10" stroke-linecap="round" stroke-linejoin="round"/>
<path d="M11.26 7.19044V6.1123" stroke="white" stroke-width="1.08398" stroke-miterlimit="10" stroke-linecap="round" stroke-linejoin="round"/>
<path d="M9.10364 15.0967V14.0186" stroke="white" stroke-width="1.08398" stroke-miterlimit="10" stroke-linecap="round" stroke-linejoin="round"/>
<path d="M11.26 15.0967V14.0186" stroke="white" stroke-width="1.08398" stroke-miterlimit="10" stroke-linecap="round" stroke-linejoin="round"/>
<path d="M17.7928 10.6055H14.2627" stroke="white" stroke-width="1.08398" stroke-miterlimit="10" stroke-linecap="round" stroke-linejoin="round"/>
<path d="M14.9934 7.2627V8.54404H17.4525" stroke="white" stroke-width="1.08398" stroke-miterlimit="10" stroke-linecap="round" stroke-linejoin="round"/>
<path d="M14.9934 14.0235V12.7422H17.4525" stroke="white" stroke-width="1.08398" stroke-miterlimit="10" stroke-linecap="round" stroke-linejoin="round"/>
<path d="M3.41711 10.6055H6.94722" stroke="white" stroke-width="1.08398" stroke-miterlimit="10" stroke-linecap="round" stroke-linejoin="round"/>
<path d="M6.21657 7.2627V8.54404H3.75745" stroke="white" stroke-width="1.08398" stroke-miterlimit="10" stroke-linecap="round" stroke-linejoin="round"/>
<path d="M6.21657 14.0235V12.7422H3.75745" stroke="white" stroke-width="1.08398" stroke-miterlimit="10" stroke-linecap="round" stroke-linejoin="round"/>
<path d="M19.4307 19.1317C21.2386 17.3977 23.6926 16.332 26.3955 16.332C31.9532 16.332 36.4585 20.8374 36.4585 26.395C36.4585 31.9527 31.9532 36.458 26.3955 36.458C21.5896 36.458 17.5707 33.0891 16.5713 28.584" stroke="white" stroke-width="1.08398" stroke-miterlimit="10" stroke-linecap="round" stroke-linejoin="round"/>
<path d="M16.5717 24.2038C16.8211 23.0803 17.2584 22.0275 17.8488 21.0801" stroke="white" stroke-width="1.08398" stroke-miterlimit="10" stroke-linecap="round" stroke-linejoin="round"/>
<path d="M33.9405 26.2143C33.942 26.2744 33.9426 26.3346 33.9426 26.3949C33.9426 30.5565 30.5569 33.9422 26.3953 33.9422C22.2338 33.9422 18.8481 30.5565 18.8481 26.3949C18.8481 22.2334 22.2339 18.8477 26.3954 18.8477C29.6023 18.8477 32.3484 20.8581 33.4396 23.6848" stroke="white" stroke-width="1.08398" stroke-miterlimit="10" stroke-linecap="round" stroke-linejoin="round"/>
<path d="M27.8217 23.3318C27.8217 23.3318 27.0527 22.4545 25.8019 22.8313C24.6534 23.1773 24.298 24.5586 25.1062 25.4897C25.525 25.9722 26.2286 26.1302 27.1374 26.4514C29.1713 27.1704 28.4194 30.0387 26.3505 30.0526C25.543 30.0579 25.1656 30.0067 24.4563 29.5427" stroke="white" stroke-width="1.08398" stroke-miterlimit="10" stroke-linecap="round" stroke-linejoin="round"/>
<path d="M26.3959 30.1748V31.3629" stroke="white" stroke-width="1.08398" stroke-miterlimit="10" stroke-linecap="round" stroke-linejoin="round"/>
<path d="M26.3959 21.4268V22.6148" stroke="white" stroke-width="1.08398" stroke-miterlimit="10" stroke-linecap="round" stroke-linejoin="round"/>
<path d="M9.06665 24.9492V20.7578" stroke="white" stroke-width="1.08398" stroke-miterlimit="10" stroke-linecap="round" stroke-linejoin="round"/>
<path d="M11.9573 20.7578V24.877" stroke="white" stroke-width="1.08398" stroke-miterlimit="10" stroke-linecap="round" stroke-linejoin="round"/>
<path d="M9.06665 24.9494C9.06665 26.5459 10.3609 27.8401 11.9573 27.8401H14.8479V29.2195C14.8479 29.5286 15.211 29.6951 15.4452 29.4931L18.7218 26.6684C18.8891 26.5243 18.8891 26.2653 18.7218 26.1211L15.4452 23.2964C15.211 23.0945 14.8479 23.2609 14.8479 23.57V24.9494H9.06665Z" stroke="white" stroke-width="1.08398" stroke-miterlimit="10" stroke-linecap="round" stroke-linejoin="round"/>
<path d="M27.9329 12.0498V16.2412" stroke="white" stroke-width="1.08398" stroke-miterlimit="10" stroke-linecap="round" stroke-linejoin="round"/>
<path d="M25.0422 16.2412V12.1221" stroke="white" stroke-width="1.08398" stroke-miterlimit="10" stroke-linecap="round" stroke-linejoin="round"/>
<path d="M27.933 12.05C27.933 10.4536 26.6387 9.15941 25.0423 9.15941H22.1517V7.78C22.1517 7.47085 21.7886 7.30442 21.5544 7.50633L18.2778 10.3311C18.1105 10.4752 18.1105 10.7342 18.2778 10.8784L21.5544 13.7031C21.7886 13.905 22.1517 13.7386 22.1517 13.4294V12.05H27.933Z" stroke="white" stroke-width="1.08398" stroke-miterlimit="10" stroke-linecap="round" stroke-linejoin="round"/>
</g>
<defs>
<clipPath id="clip0_330_2978">
<rect width="37" height="37" fill="white"/>
</clipPath>
</defs>
</svg>
