<svg width="311" height="197" viewBox="0 0 311 197" fill="none" xmlns="http://www.w3.org/2000/svg">
<rect x="0.531616" y="0.0664062" width="309.937" height="196.128" rx="6.95409" fill="url(#paint0_linear_35_492)"/>
<mask id="mask0_35_492" style="mask-type:alpha" maskUnits="userSpaceOnUse" x="0" y="0" width="311" height="197">
<rect x="0.531616" y="0.00195312" width="309.937" height="196.192" rx="6.95409" fill="#E0E0E0"/>
</mask>
<g mask="url(#mask0_35_492)">
<path d="M0.528931 6.95628C0.528931 3.11565 3.64238 0.00219727 7.48302 0.00219727H303.626C307.466 0.00219727 310.58 3.11565 310.58 6.95628V189.296C310.58 193.136 307.466 196.25 303.626 196.25H7.483C3.64236 196.25 0.528931 193.136 0.528931 189.296V6.95628Z" fill="url(#paint1_linear_35_492)"/>
<path d="M7.48303 0.278564H303.626C307.314 0.278597 310.303 3.26824 310.303 6.9563V189.296C310.303 192.984 307.314 195.974 303.626 195.974H7.48303C3.7951 195.974 0.805529 192.984 0.805298 189.296V6.9563C0.805298 3.26822 3.79496 0.278564 7.48303 0.278564Z" stroke="white" stroke-opacity="0.5" stroke-width="0.552472"/>
<mask id="mask1_35_492" style="mask-type:alpha" maskUnits="userSpaceOnUse" x="0" y="-1" width="311" height="198">
<path d="M0.408325 6.77562C0.408325 2.93498 3.52178 -0.178467 7.36241 -0.178467H303.505C307.346 -0.178467 310.459 2.93498 310.459 6.77562V189.115C310.459 192.956 307.346 196.069 303.505 196.069H7.36239C3.52176 196.069 0.408325 192.956 0.408325 189.115V6.77562Z" fill="url(#paint2_linear_35_492)"/>
<path d="M7.36243 0.0979004H303.505C307.193 0.0979334 310.183 3.08758 310.183 6.77563V189.115C310.183 192.803 307.193 195.793 303.505 195.793H7.36243C3.6745 195.793 0.684923 192.803 0.684692 189.115V6.77563C0.684692 3.08756 3.67435 0.0979004 7.36243 0.0979004Z" stroke="white" stroke-opacity="0.5" stroke-width="0.552472"/>
</mask>
<g mask="url(#mask1_35_492)">
<g filter="url(#filter0_f_35_492)">
<ellipse cx="37.4904" cy="-10.6004" rx="188.508" ry="59.7153" fill="#0989DB" fill-opacity="0.4"/>
</g>
<g opacity="0.4">
<g filter="url(#filter1_f_35_492)">
<ellipse cx="389.619" cy="195.644" rx="188.508" ry="59.7153" fill="#0989DB"/>
</g>
<g filter="url(#filter2_f_35_492)">
<ellipse cx="153.873" cy="199.832" rx="177.972" ry="56.3777" fill="#A05EF4"/>
</g>
<g filter="url(#filter3_f_35_492)">
<ellipse cx="-84.1968" cy="181.031" rx="142.377" ry="45.102" fill="#D539FD"/>
</g>
</g>
</g>
<g filter="url(#filter4_di_35_492)">
<path d="M22.3337 170.723C21.7138 170.721 21.184 170.557 20.7446 170.233C20.3051 169.908 19.969 169.436 19.7362 168.816C19.5034 168.196 19.3869 167.449 19.3869 166.576C19.3869 165.705 19.5034 164.96 19.7362 164.343C19.9716 163.726 20.309 163.255 20.7485 162.931C21.1906 162.606 21.719 162.444 22.3337 162.444C22.9485 162.444 23.4756 162.608 23.915 162.934C24.3545 163.259 24.6906 163.73 24.9234 164.347C25.1589 164.962 25.2766 165.705 25.2766 166.576C25.2766 167.452 25.1602 168.2 24.9274 168.82C24.6945 169.438 24.3584 169.91 23.9189 170.237C23.4795 170.561 22.9511 170.723 22.3337 170.723ZM22.3337 169.676C22.8778 169.676 23.3029 169.41 23.609 168.879C23.9176 168.348 24.072 167.58 24.072 166.576C24.072 165.909 24.0013 165.345 23.8601 164.885C23.7214 164.422 23.5213 164.071 23.2597 163.833C23.0008 163.592 22.6921 163.472 22.3337 163.472C21.7922 163.472 21.3672 163.739 21.0585 164.273C20.7498 164.806 20.5942 165.574 20.5916 166.576C20.5916 167.245 20.6609 167.812 20.7995 168.275C20.9408 168.735 21.1409 169.084 21.3999 169.322C21.6588 169.558 21.9701 169.676 22.3337 169.676ZM26.6685 170.59V169.711L29.3877 166.894C29.6781 166.588 29.9175 166.319 30.1058 166.089C30.2968 165.856 30.4393 165.635 30.5335 165.426C30.6277 165.217 30.6748 164.994 30.6748 164.759C30.6748 164.492 30.612 164.262 30.4864 164.068C30.3609 163.872 30.1895 163.722 29.9724 163.617C29.7553 163.51 29.5107 163.456 29.2386 163.456C28.9509 163.456 28.6998 163.515 28.4853 163.633C28.2708 163.751 28.106 163.917 27.9909 164.131C27.8758 164.346 27.8182 164.597 27.8182 164.885H26.6607C26.6607 164.395 26.7732 163.968 26.9981 163.602C27.2231 163.235 27.5318 162.952 27.9242 162.75C28.3165 162.546 28.7626 162.444 29.2622 162.444C29.767 162.444 30.2117 162.545 30.5963 162.746C30.9834 162.945 31.2856 163.217 31.5027 163.562C31.7198 163.905 31.8284 164.292 31.8284 164.724C31.8284 165.022 31.7721 165.314 31.6596 165.599C31.5498 165.884 31.3575 166.202 31.0828 166.552C30.8082 166.9 30.4262 167.323 29.9371 167.82L28.3401 169.491V169.55H31.9578V170.59H26.6685ZM36.5212 162.177L33.9315 171.798H32.8839L35.4736 162.177H36.5212ZM40.2999 170.7C39.761 170.7 39.2797 170.607 38.8559 170.421C38.4347 170.235 38.1012 169.978 37.8553 169.648C37.612 169.316 37.4812 168.931 37.4629 168.495H38.695C38.7107 168.733 38.7905 168.939 38.9344 169.114C39.0809 169.287 39.2718 169.421 39.5072 169.515C39.7427 169.609 40.0043 169.656 40.292 169.656C40.6085 169.656 40.8884 169.601 41.1317 169.491C41.3776 169.381 41.5699 169.228 41.7085 169.032C41.8471 168.833 41.9165 168.604 41.9165 168.345C41.9165 168.076 41.8471 167.839 41.7085 167.635C41.5725 167.429 41.3724 167.266 41.1082 167.149C40.8466 167.031 40.53 166.972 40.1586 166.972H39.4798V165.983H40.1586C40.4568 165.983 40.7184 165.93 40.9434 165.822C41.1709 165.715 41.3488 165.566 41.477 165.375C41.6052 165.182 41.6693 164.955 41.6693 164.696C41.6693 164.448 41.613 164.232 41.5005 164.049C41.3907 163.863 41.2337 163.718 41.0297 163.613C40.8283 163.509 40.5902 163.456 40.3155 163.456C40.054 163.456 39.8094 163.505 39.5818 163.602C39.3568 163.696 39.1737 163.832 39.0325 164.01C38.8912 164.185 38.8153 164.395 38.8049 164.641H37.6317C37.6447 164.207 37.7729 163.825 38.0162 163.496C38.2621 163.166 38.5865 162.908 38.9893 162.723C39.3921 162.537 39.8395 162.444 40.3312 162.444C40.8466 162.444 41.2913 162.545 41.6653 162.746C42.042 162.945 42.3324 163.21 42.5364 163.543C42.7431 163.875 42.8451 164.239 42.8425 164.634C42.8451 165.083 42.7195 165.465 42.4658 165.779C42.2147 166.093 41.8798 166.304 41.4613 166.411V166.474C41.9949 166.555 42.4082 166.767 42.7012 167.109C42.9968 167.452 43.1433 167.877 43.1407 168.385C43.1433 168.827 43.0204 169.223 42.7718 169.574C42.526 169.924 42.1898 170.2 41.7634 170.402C41.337 170.6 40.8492 170.7 40.2999 170.7ZM47.4216 170.723C46.8016 170.721 46.2719 170.557 45.8324 170.233C45.393 169.908 45.0568 169.436 44.824 168.816C44.5912 168.196 44.4748 167.449 44.4748 166.576C44.4748 165.705 44.5912 164.96 44.824 164.343C45.0594 163.726 45.3969 163.255 45.8363 162.931C46.2784 162.606 46.8068 162.444 47.4216 162.444C48.0363 162.444 48.5634 162.608 49.0029 162.934C49.4423 163.259 49.7785 163.73 50.0113 164.347C50.2467 164.962 50.3644 165.705 50.3644 166.576C50.3644 167.452 50.248 168.2 50.0152 168.82C49.7824 169.438 49.4462 169.91 49.0068 170.237C48.5673 170.561 48.0389 170.723 47.4216 170.723ZM47.4216 169.676C47.9657 169.676 48.3907 169.41 48.6968 168.879C49.0055 168.348 49.1598 167.58 49.1598 166.576C49.1598 165.909 49.0892 165.345 48.9479 164.885C48.8093 164.422 48.6092 164.071 48.3476 163.833C48.0886 163.592 47.7799 163.472 47.4216 163.472C46.8801 163.472 46.455 163.739 46.1463 164.273C45.8376 164.806 45.682 165.574 45.6794 166.576C45.6794 167.245 45.7487 167.812 45.8874 168.275C46.0286 168.735 46.2287 169.084 46.4877 169.322C46.7467 169.558 47.058 169.676 47.4216 169.676Z" fill="white"/>
</g>
<path d="M25.5473 115.853C24.5235 115.853 23.609 115.677 22.8038 115.324C22.0036 114.971 21.3699 114.481 20.9027 113.855C20.4405 113.224 20.192 112.493 20.1572 111.663H22.4981C22.528 112.115 22.6795 112.508 22.9529 112.841C23.2312 113.169 23.5941 113.423 24.0414 113.602C24.4887 113.78 24.9857 113.87 25.5324 113.87C26.1338 113.87 26.6656 113.766 27.1278 113.557C27.595 113.348 27.9603 113.057 28.2238 112.685C28.4872 112.307 28.6189 111.872 28.6189 111.38C28.6189 110.868 28.4872 110.418 28.2238 110.03C27.9653 109.638 27.5851 109.33 27.0831 109.106C26.5861 108.882 25.9847 108.771 25.2789 108.771H23.9892V106.892H25.2789C25.8455 106.892 26.3425 106.79 26.77 106.586C27.2024 106.382 27.5404 106.099 27.7839 105.736C28.0274 105.368 28.1492 104.939 28.1492 104.447C28.1492 103.974 28.0423 103.564 27.8286 103.216C27.6199 102.864 27.3217 102.588 26.934 102.389C26.5513 102.19 26.099 102.091 25.5771 102.091C25.0801 102.091 24.6154 102.183 24.183 102.367C23.7556 102.545 23.4077 102.804 23.1393 103.142C22.8709 103.475 22.7268 103.875 22.7069 104.342H20.4778C20.5026 103.517 20.7462 102.791 21.2084 102.165C21.6756 101.539 22.2919 101.049 23.0573 100.697C23.8227 100.344 24.6726 100.167 25.607 100.167C26.5861 100.167 27.431 100.359 28.1417 100.741C28.8574 101.119 29.4091 101.623 29.7968 102.255C30.1894 102.886 30.3833 103.577 30.3783 104.327C30.3833 105.182 30.1447 105.908 29.6626 106.504C29.1855 107.101 28.5493 107.501 27.7541 107.704V107.824C28.768 107.978 29.5533 108.38 30.1099 109.031C30.6716 109.683 30.9499 110.49 30.9449 111.454C30.9499 112.294 30.7163 113.047 30.2441 113.713C29.7769 114.379 29.1383 114.904 28.3281 115.286C27.518 115.664 26.5911 115.853 25.5473 115.853ZM34.2822 112.662V110.798L40.88 100.376H42.3487V103.119H41.4168L36.6977 110.59V110.709H45.7409V112.662H34.2822ZM41.5212 115.644V112.096L41.5361 111.246V100.376H43.7205V115.644H41.5212ZM54.2185 115.853C53.2841 115.853 52.4442 115.674 51.6986 115.316C50.9581 114.953 50.3666 114.456 49.9243 113.825C49.4819 113.194 49.2459 112.473 49.216 111.663H51.4526C51.5073 112.319 51.798 112.859 52.3249 113.281C52.8517 113.703 53.4829 113.915 54.2185 113.915C54.805 113.915 55.3244 113.78 55.7766 113.512C56.2339 113.239 56.5917 112.863 56.8502 112.386C57.1136 111.909 57.2453 111.365 57.2453 110.754C57.2453 110.132 57.1111 109.578 56.8427 109.091C56.5744 108.604 56.2041 108.221 55.7319 107.943C55.2647 107.665 54.7279 107.523 54.1216 107.518C53.6594 107.518 53.1946 107.598 52.7275 107.757C52.2603 107.916 51.8825 108.124 51.5943 108.383L49.4844 108.07L50.3418 100.376H58.7364V102.352H52.2578L51.7732 106.623H51.8626C52.1609 106.335 52.556 106.094 53.048 105.9C53.545 105.706 54.0769 105.61 54.6434 105.61C55.5729 105.61 56.4004 105.831 57.126 106.273C57.8567 106.715 58.4307 107.319 58.8482 108.085C59.2707 108.845 59.4794 109.72 59.4744 110.709C59.4794 111.698 59.2558 112.58 58.8035 113.356C58.3562 114.131 57.7349 114.742 56.9397 115.19C56.1494 115.632 55.2424 115.853 54.2185 115.853ZM68.077 115.853C67.1426 115.853 66.3026 115.674 65.5571 115.316C64.8165 114.953 64.2251 114.456 63.7827 113.825C63.3404 113.194 63.1043 112.473 63.0745 111.663H65.3111C65.3657 112.319 65.6565 112.859 66.1833 113.281C66.7102 113.703 67.3414 113.915 68.077 113.915C68.6634 113.915 69.1828 113.78 69.6351 113.512C70.0924 113.239 70.4502 112.863 70.7087 112.386C70.9721 111.909 71.1038 111.365 71.1038 110.754C71.1038 110.132 70.9696 109.578 70.7012 109.091C70.4328 108.604 70.0625 108.221 69.5904 107.943C69.1232 107.665 68.5864 107.523 67.98 107.518C67.5178 107.518 67.0531 107.598 66.5859 107.757C66.1187 107.916 65.741 108.124 65.4527 108.383L63.3429 108.07L64.2002 100.376H72.5948V102.352H66.1162L65.6316 106.623H65.7211C66.0193 106.335 66.4144 106.094 66.9065 105.9C67.4035 105.706 67.9353 105.61 68.5019 105.61C69.4313 105.61 70.2589 105.831 70.9845 106.273C71.7151 106.715 72.2892 107.319 72.7067 108.085C73.1291 108.845 73.3379 109.72 73.3329 110.709C73.3379 111.698 73.1142 112.58 72.6619 113.356C72.2146 114.131 71.5933 114.742 70.7981 115.19C70.0079 115.632 69.1008 115.853 68.077 115.853ZM82.9709 112.662V110.798L89.5687 100.376H91.0374V103.119H90.1055L85.3864 110.59V110.709H94.4296V112.662H82.9709ZM90.2099 115.644V112.096L90.2248 111.246V100.376H92.4092V115.644H90.2099ZM102.907 115.853C101.973 115.853 101.133 115.674 100.387 115.316C99.6468 114.953 99.0553 114.456 98.613 113.825C98.1706 113.194 97.9346 112.473 97.9047 111.663H100.141C100.196 112.319 100.487 112.859 101.014 113.281C101.54 113.703 102.172 113.915 102.907 113.915C103.494 113.915 104.013 113.78 104.465 113.512C104.923 113.239 105.28 112.863 105.539 112.386C105.802 111.909 105.934 111.365 105.934 110.754C105.934 110.132 105.8 109.578 105.531 109.091C105.263 108.604 104.893 108.221 104.421 107.943C103.953 107.665 103.417 107.523 102.81 107.518C102.348 107.518 101.883 107.598 101.416 107.757C100.949 107.916 100.571 108.124 100.283 108.383L98.1731 108.07L99.0305 100.376H107.425V102.352H100.946L100.462 106.623H100.551C100.85 106.335 101.245 106.094 101.737 105.9C102.234 105.706 102.766 105.61 103.332 105.61C104.262 105.61 105.089 105.831 105.815 106.273C106.545 106.715 107.119 107.319 107.537 108.085C107.959 108.845 108.168 109.72 108.163 110.709C108.168 111.698 107.944 112.58 107.492 113.356C107.045 114.131 106.424 114.742 105.628 115.19C104.838 115.632 103.931 115.853 102.907 115.853ZM117.056 115.853C116.376 115.843 115.705 115.719 115.043 115.48C114.387 115.242 113.791 114.844 113.254 114.287C112.717 113.731 112.288 112.983 111.964 112.043C111.646 111.104 111.487 109.931 111.487 108.525C111.487 107.193 111.619 106.01 111.882 104.976C112.151 103.942 112.536 103.07 113.038 102.359C113.54 101.643 114.146 101.099 114.857 100.726C115.568 100.354 116.366 100.167 117.25 100.167C118.16 100.167 118.967 100.346 119.673 100.704C120.379 101.062 120.951 101.556 121.388 102.188C121.83 102.819 122.111 103.537 122.23 104.342H119.956C119.802 103.706 119.497 103.187 119.04 102.784C118.582 102.381 117.986 102.18 117.25 102.18C116.132 102.18 115.26 102.667 114.633 103.641C114.012 104.616 113.699 105.97 113.694 107.704H113.806C114.069 107.272 114.392 106.904 114.775 106.601C115.163 106.293 115.595 106.057 116.072 105.893C116.554 105.724 117.061 105.639 117.593 105.639C118.478 105.639 119.278 105.856 119.994 106.288C120.714 106.715 121.288 107.307 121.716 108.062C122.143 108.818 122.357 109.683 122.357 110.657C122.357 111.631 122.136 112.513 121.694 113.303C121.256 114.094 120.64 114.72 119.845 115.182C119.049 115.639 118.12 115.863 117.056 115.853ZM117.049 113.915C117.635 113.915 118.16 113.771 118.622 113.482C119.084 113.194 119.45 112.806 119.718 112.319C119.986 111.832 120.121 111.288 120.121 110.687C120.121 110.1 119.989 109.566 119.725 109.084C119.467 108.602 119.109 108.219 118.652 107.936C118.2 107.652 117.683 107.511 117.101 107.511C116.659 107.511 116.249 107.595 115.871 107.764C115.498 107.933 115.17 108.167 114.887 108.465C114.604 108.763 114.38 109.106 114.216 109.494C114.057 109.876 113.977 110.281 113.977 110.709C113.977 111.28 114.109 111.81 114.373 112.297C114.641 112.784 115.006 113.177 115.468 113.475C115.936 113.768 116.462 113.915 117.049 113.915ZM125.912 115.644V113.974L131.079 108.621C131.631 108.04 132.085 107.531 132.443 107.093C132.806 106.651 133.077 106.231 133.256 105.833C133.435 105.436 133.524 105.013 133.524 104.566C133.524 104.059 133.405 103.621 133.166 103.254C132.928 102.881 132.602 102.595 132.19 102.396C131.777 102.193 131.312 102.091 130.796 102.091C130.249 102.091 129.772 102.203 129.364 102.426C128.957 102.65 128.644 102.965 128.425 103.373C128.206 103.781 128.097 104.258 128.097 104.804H125.897C125.897 103.875 126.111 103.062 126.539 102.367C126.966 101.671 127.553 101.131 128.298 100.749C129.044 100.361 129.891 100.167 130.84 100.167C131.8 100.167 132.644 100.359 133.375 100.741C134.111 101.119 134.685 101.636 135.097 102.292C135.51 102.943 135.716 103.679 135.716 104.499C135.716 105.065 135.609 105.619 135.395 106.161C135.187 106.703 134.821 107.307 134.3 107.973C133.778 108.634 133.052 109.437 132.123 110.381L129.088 113.557V113.669H135.962V115.644H125.912ZM146.538 115.644L153.202 102.463V102.352H145.494V100.376H155.588V102.419L148.946 115.644H146.538ZM159.945 115.644L166.61 102.463V102.352H158.901V100.376H168.996V102.419L162.353 115.644H159.945ZM178.221 100.376V115.644H175.909V102.687H175.82L172.167 105.073V102.866L175.977 100.376H178.221ZM188.506 115.898C187.328 115.893 186.322 115.582 185.487 114.966C184.652 114.35 184.013 113.452 183.571 112.275C183.128 111.097 182.907 109.678 182.907 108.018C182.907 106.363 183.128 104.949 183.571 103.776C184.018 102.603 184.659 101.708 185.494 101.092C186.334 100.475 187.338 100.167 188.506 100.167C189.674 100.167 190.676 100.478 191.511 101.099C192.346 101.715 192.984 102.61 193.427 103.783C193.874 104.951 194.098 106.363 194.098 108.018C194.098 109.683 193.876 111.104 193.434 112.282C192.992 113.455 192.353 114.352 191.518 114.973C190.683 115.59 189.679 115.898 188.506 115.898ZM188.506 113.907C189.54 113.907 190.348 113.403 190.929 112.394C191.516 111.385 191.809 109.926 191.809 108.018C191.809 106.75 191.675 105.679 191.406 104.804C191.143 103.925 190.763 103.259 190.266 102.806C189.774 102.349 189.187 102.12 188.506 102.12C187.477 102.12 186.67 102.627 186.083 103.641C185.497 104.655 185.201 106.114 185.196 108.018C185.196 109.29 185.328 110.366 185.591 111.246C185.86 112.12 186.24 112.784 186.732 113.236C187.224 113.684 187.815 113.907 188.506 113.907ZM209.293 115.853C208.27 115.853 207.355 115.677 206.55 115.324C205.75 114.971 205.116 114.481 204.649 113.855C204.187 113.224 203.938 112.493 203.903 111.663H206.244C206.274 112.115 206.426 112.508 206.699 112.841C206.977 113.169 207.34 113.423 207.787 113.602C208.235 113.78 208.732 113.87 209.279 113.87C209.88 113.87 210.412 113.766 210.874 113.557C211.341 113.348 211.706 113.057 211.97 112.685C212.233 112.307 212.365 111.872 212.365 111.38C212.365 110.868 212.233 110.418 211.97 110.03C211.711 109.638 211.331 109.33 210.829 109.106C210.332 108.882 209.731 108.771 209.025 108.771H207.735V106.892H209.025C209.592 106.892 210.089 106.79 210.516 106.586C210.948 106.382 211.286 106.099 211.53 105.736C211.774 105.368 211.895 104.939 211.895 104.447C211.895 103.974 211.788 103.564 211.575 103.216C211.366 102.864 211.068 102.588 210.68 102.389C210.297 102.19 209.845 102.091 209.323 102.091C208.826 102.091 208.362 102.183 207.929 102.367C207.502 102.545 207.154 102.804 206.885 103.142C206.617 103.475 206.473 103.875 206.453 104.342H204.224C204.249 103.517 204.492 102.791 204.954 102.165C205.422 101.539 206.038 101.049 206.803 100.697C207.569 100.344 208.419 100.167 209.353 100.167C210.332 100.167 211.177 100.359 211.888 100.741C212.604 101.119 213.155 101.623 213.543 102.255C213.936 102.886 214.129 103.577 214.124 104.327C214.129 105.182 213.891 105.908 213.409 106.504C212.932 107.101 212.295 107.501 211.5 107.704V107.824C212.514 107.978 213.299 108.38 213.856 109.031C214.418 109.683 214.696 110.49 214.691 111.454C214.696 112.294 214.462 113.047 213.99 113.713C213.523 114.379 212.884 114.904 212.074 115.286C211.264 115.664 210.337 115.853 209.293 115.853ZM223.389 115.853C222.454 115.853 221.614 115.674 220.869 115.316C220.128 114.953 219.537 114.456 219.094 113.825C218.652 113.194 218.416 112.473 218.386 111.663H220.623C220.677 112.319 220.968 112.859 221.495 113.281C222.022 113.703 222.653 113.915 223.389 113.915C223.975 113.915 224.494 113.78 224.947 113.512C225.404 113.239 225.762 112.863 226.02 112.386C226.284 111.909 226.415 111.365 226.415 110.754C226.415 110.132 226.281 109.578 226.013 109.091C225.744 108.604 225.374 108.221 224.902 107.943C224.435 107.665 223.898 107.523 223.292 107.518C222.829 107.518 222.365 107.598 221.898 107.757C221.43 107.916 221.053 108.124 220.764 108.383L218.655 108.07L219.512 100.376H227.906V102.352H221.428L220.943 106.623H221.033C221.331 106.335 221.726 106.094 222.218 105.9C222.715 105.706 223.247 105.61 223.814 105.61C224.743 105.61 225.57 105.831 226.296 106.273C227.027 106.715 227.601 107.319 228.018 108.085C228.441 108.845 228.649 109.72 228.645 110.709C228.649 111.698 228.426 112.58 227.974 113.356C227.526 114.131 226.905 114.742 226.11 115.19C225.319 115.632 224.412 115.853 223.389 115.853ZM237.523 115.898C236.345 115.893 235.338 115.582 234.504 114.966C233.669 114.35 233.03 113.452 232.588 112.275C232.145 111.097 231.924 109.678 231.924 108.018C231.924 106.363 232.145 104.949 232.588 103.776C233.035 102.603 233.676 101.708 234.511 101.092C235.351 100.475 236.355 100.167 237.523 100.167C238.691 100.167 239.692 100.478 240.527 101.099C241.362 101.715 242.001 102.61 242.443 103.783C242.891 104.951 243.114 106.363 243.114 108.018C243.114 109.683 242.893 111.104 242.451 112.282C242.008 113.455 241.37 114.352 240.535 114.973C239.7 115.59 238.696 115.898 237.523 115.898ZM237.523 113.907C238.557 113.907 239.364 113.403 239.946 112.394C240.532 111.385 240.826 109.926 240.826 108.018C240.826 106.75 240.691 105.679 240.423 104.804C240.16 103.925 239.779 103.259 239.282 102.806C238.79 102.349 238.204 102.12 237.523 102.12C236.494 102.12 235.686 102.627 235.1 103.641C234.513 104.655 234.218 106.114 234.213 108.018C234.213 109.29 234.344 110.366 234.608 111.246C234.876 112.12 235.256 112.784 235.749 113.236C236.241 113.684 236.832 113.907 237.523 113.907ZM246.703 115.644L253.368 102.463V102.352H245.659V100.376H255.754V102.419L249.111 115.644H246.703Z" fill="white"/>
<path d="M30.2826 25.6626C30.0425 23.9861 28.4988 22.6939 26.7149 22.6939C23.4903 22.6939 22.2553 25.5578 22.2553 28.5265C22.2553 31.3556 23.456 34.2195 26.7149 34.2195C28.9104 34.2195 30.1454 32.6478 30.4198 30.4125H33.9189C33.5416 34.6386 30.7286 37.3628 26.7149 37.3628C21.6378 37.3628 18.6533 33.4511 18.6533 28.5615C18.6533 23.5321 21.6378 19.5854 26.7149 19.5854C30.3169 19.5854 33.3357 21.7858 33.7817 25.6975H30.2826V25.6626Z" fill="white"/>
<path d="M35.5309 19.9692H38.7898V36.9433H35.5309V19.9692Z" fill="white"/>
<path d="M44.0382 31.5996C44.1412 33.7301 45.136 34.708 46.9541 34.708C48.2577 34.708 49.3212 33.8698 49.527 33.1014H52.4086C51.4824 36.0003 49.527 37.2227 46.8512 37.2227C43.112 37.2227 40.8136 34.5683 40.8136 30.7614C40.8136 27.0942 43.2835 24.2651 46.8512 24.2651C50.8992 24.2651 52.8203 27.7577 52.6144 31.5647H44.0382V31.5996ZM49.3555 29.4691C49.0467 27.7577 48.3606 26.8497 46.7483 26.8497C44.69 26.8497 44.1069 28.5261 44.0382 29.4691H49.3555Z" fill="white"/>
<path d="M61.0876 36.9432H57.4513L53.4033 24.6492H56.7995L59.3037 33.0314H59.338L61.8423 24.6492H65.0669L61.0876 36.9432Z" fill="white"/>
<path d="M69.1154 31.5996C69.2183 33.7301 70.2131 34.708 72.0313 34.708C73.3349 34.708 74.3983 33.8698 74.6041 33.1014H77.4858C76.5595 36.0003 74.6041 37.2227 71.9284 37.2227C68.1892 37.2227 65.8907 34.5683 65.8907 30.7614C65.8907 27.0942 68.3264 24.2651 71.9284 24.2651C75.9763 24.2651 77.8974 27.7577 77.6916 31.5647H69.1154V31.5996ZM74.4326 29.4691C74.1239 27.7577 73.4378 26.8497 71.8255 26.8497C69.7672 26.8497 69.1497 28.5261 69.1154 29.4691H74.4326Z" fill="white"/>
<path d="M79.6126 24.6493H82.7V26.9195H82.7343C83.043 26.1511 83.5919 25.4875 84.2437 25.0335C84.9298 24.5795 85.6845 24.3 86.5078 24.3C86.7479 24.3 86.9881 24.335 87.2282 24.4048V27.5482C86.8509 27.4783 86.4392 27.4434 86.0618 27.4434C83.6948 27.4434 82.8372 29.2246 82.8372 31.3901V36.9433H79.5782V24.6493H79.6126Z" fill="white"/>
<path d="M100.573 25.0688C100.127 22.6589 98.2743 21.4715 95.9759 21.4715C92.0652 21.4715 90.4185 24.7894 90.4185 28.3519C90.4185 32.2287 92.0652 35.4419 95.9759 35.4419C98.8575 35.4419 100.47 33.3463 100.71 30.5523H102.871C102.459 34.7783 99.9209 37.3628 95.8044 37.3628C90.7273 37.3628 88.223 33.4511 88.223 28.5265C88.223 23.567 90.9331 19.5854 95.9759 19.5854C99.4064 19.5854 102.219 21.4715 102.7 25.1038H100.573V25.0688Z" fill="white"/>
<path d="M115.77 36.9081C115.358 37.1526 114.843 37.2574 114.363 37.2574C113.368 37.2574 112.717 36.6985 112.717 35.3714C111.653 36.6636 110.212 37.2574 108.531 37.2574C106.37 37.2574 104.621 36.2445 104.621 33.7997C104.621 31.0056 106.61 30.4118 108.634 30.0277C110.795 29.6085 112.614 29.7483 112.614 28.2115C112.614 26.4652 111.207 26.1509 109.972 26.1509C108.326 26.1509 107.125 26.6748 107.022 28.4909H105.067C105.169 25.4523 107.434 24.3696 110.075 24.3696C112.202 24.3696 114.535 24.8586 114.535 27.7575V34.0791C114.535 35.0221 114.535 35.4412 115.152 35.4412C115.358 35.4412 115.564 35.4063 115.735 35.3364V36.9081H115.77ZM112.614 30.5865C111.859 31.1453 110.384 31.1802 109.08 31.4247C107.777 31.6692 106.713 32.1232 106.713 33.6251C106.713 34.9522 107.811 35.4412 109.012 35.4412C111.584 35.4412 112.648 33.7648 112.648 32.6471V30.5865H112.614Z" fill="white"/>
<path d="M117.519 24.6494H119.371V27.2339H119.406C120.332 25.278 121.67 24.3001 123.762 24.37V26.5004C120.606 26.5004 119.474 28.3515 119.474 31.46V36.9434H117.519V24.6494Z" fill="white"/>
<path d="M135.392 36.9433H133.437V35.2669H133.402C132.751 36.629 131.241 37.2227 129.629 37.2227C125.992 37.2227 124.174 34.2191 124.174 30.7614C124.174 27.3037 125.958 24.3699 129.594 24.3699C130.795 24.3699 132.545 24.824 133.437 26.2909H133.471V19.9692H135.426L135.392 36.9433ZM129.903 35.4415C132.51 35.4415 133.54 33.1015 133.54 30.7963C133.54 28.3864 132.476 26.1512 129.8 26.1512C127.125 26.1512 126.233 28.4912 126.233 30.9011C126.233 33.2062 127.399 35.4415 129.903 35.4415Z" fill="white"/>
<path d="M139.612 33.0665C139.68 34.8826 141.19 35.4414 142.802 35.4414C144.003 35.4414 145.684 35.162 145.684 33.6253C145.684 32.0885 143.762 31.8091 141.807 31.3551C139.852 30.901 137.931 30.2374 137.931 27.8974C137.931 25.4176 140.298 24.4048 142.356 24.4048C144.963 24.4048 147.056 25.243 147.227 28.2467H145.272C145.135 26.675 143.797 26.186 142.528 26.186C141.361 26.186 140.023 26.5353 140.023 27.7577C140.023 29.2246 142.082 29.4341 143.9 29.8882C145.855 30.3422 147.776 31.0058 147.776 33.3808C147.776 36.3146 145.135 37.2576 142.733 37.2576C140.092 37.2576 137.828 36.14 137.725 33.1014L139.612 33.0665Z" fill="white"/>
<path d="M258.545 155.94H247.067V176.567H258.545V155.94Z" fill="#FF5F00"/>
<path d="M247.796 166.255C247.794 164.268 248.244 162.307 249.112 160.52C249.98 158.733 251.243 157.167 252.806 155.941C250.871 154.42 248.547 153.474 246.099 153.211C243.652 152.948 241.18 153.38 238.966 154.455C236.752 155.531 234.885 157.208 233.579 159.295C232.273 161.381 231.581 163.793 231.581 166.255C231.581 168.716 232.273 171.128 233.579 173.214C234.885 175.301 236.752 176.978 238.966 178.054C241.18 179.129 243.652 179.561 246.099 179.298C248.547 179.035 250.871 178.089 252.806 176.568C251.243 175.342 249.98 173.776 249.112 171.989C248.244 170.202 247.794 168.241 247.796 166.255Z" fill="#EB001B"/>
<path d="M274.031 166.254C274.031 168.716 273.338 171.128 272.032 173.214C270.727 175.301 268.86 176.977 266.646 178.053C264.432 179.129 261.96 179.56 259.513 179.298C257.066 179.035 254.741 178.089 252.806 176.568C254.368 175.34 255.63 173.774 256.498 171.987C257.366 170.201 257.817 168.24 257.817 166.254C257.817 164.268 257.366 162.308 256.498 160.521C255.63 158.735 254.368 157.168 252.806 155.941C254.741 154.42 257.066 153.474 259.513 153.211C261.96 152.948 264.432 153.379 266.646 154.455C268.86 155.531 270.727 157.208 272.032 159.295C273.338 161.381 274.031 163.793 274.031 166.254Z" fill="#F79E1B"/>
<path d="M272.779 174.382V173.96H272.949V173.874H272.516V173.96H272.686V174.382H272.779ZM273.62 174.382V173.873H273.487L273.335 174.223L273.182 173.873H273.049V174.382H273.143V173.998L273.286 174.329H273.383L273.527 173.997V174.382H273.62Z" fill="#F79E1B"/>
<path d="M17.159 67.0034V58.2761H22.2215V58.9921H17.9558V62.2776H21.953V62.9935H17.9558V66.2875H22.3067V67.0034H17.159ZM24.1263 67.0034V60.458H24.8635V61.4636H24.9317C25.0624 61.1256 25.2797 60.86 25.5837 60.6668C25.8905 60.4707 26.2584 60.3727 26.6874 60.3727C27.1391 60.3727 27.5098 60.4793 27.7996 60.6923C28.0922 60.9026 28.311 61.1923 28.4558 61.5617H28.5112C28.659 61.198 28.899 60.9097 29.2314 60.6966C29.5666 60.4807 29.9729 60.3727 30.4502 60.3727C31.0581 60.3727 31.5382 60.5645 31.8905 60.948C32.2428 61.3287 32.4189 61.8855 32.4189 62.6185V67.0034H31.6604V62.6185C31.6604 62.1014 31.5283 61.7136 31.2641 61.4551C30.9999 61.1966 30.6519 61.0673 30.22 61.0673C29.72 61.0673 29.3351 61.2207 29.0652 61.5276C28.7953 61.8344 28.6604 62.2236 28.6604 62.6952V67.0034H27.8848V62.5503C27.8848 62.1071 27.7612 61.7492 27.5141 61.4764C27.2669 61.2037 26.9189 61.0673 26.47 61.0673C26.1689 61.0673 25.8976 61.1412 25.6561 61.2889C25.4175 61.4367 25.2286 61.6426 25.0894 61.9068C24.953 62.1682 24.8848 62.4693 24.8848 62.8102V67.0034H24.1263ZM34.4271 69.458V60.458H35.1643V61.7065H35.2538C35.3447 61.5105 35.4697 61.3102 35.6288 61.1057C35.7879 60.8983 35.9981 60.7236 36.2595 60.5815C36.5237 60.4395 36.8561 60.3685 37.2566 60.3685C37.7964 60.3685 38.268 60.5105 38.6714 60.7946C39.0776 61.0759 39.393 61.4707 39.6174 61.9793C39.8447 62.485 39.9583 63.0744 39.9583 63.7477C39.9583 64.4239 39.8447 65.0162 39.6174 65.5247C39.393 66.0332 39.0776 66.4296 38.6714 66.7136C38.268 66.9977 37.7992 67.1398 37.2651 67.1398C36.8703 67.1398 36.5393 67.0688 36.2723 66.9267C36.008 66.7847 35.7936 66.61 35.6288 66.4026C35.4669 66.1923 35.3419 65.9878 35.2538 65.7889H35.1856V69.458H34.4271ZM35.1771 63.735C35.1771 64.2634 35.2552 64.7321 35.4115 65.1412C35.5705 65.5475 35.7978 65.8671 36.0933 66.1C36.3916 66.3301 36.7524 66.4452 37.1757 66.4452C37.6103 66.4452 37.9768 66.3259 38.2751 66.0872C38.5762 65.8457 38.8049 65.5205 38.9612 65.1114C39.1203 64.7023 39.1998 64.2435 39.1998 63.735C39.1998 63.2321 39.1217 62.779 38.9654 62.3756C38.812 61.9722 38.5848 61.6526 38.2836 61.4168C37.9825 61.1781 37.6132 61.0588 37.1757 61.0588C36.7495 61.0588 36.3873 61.1739 36.089 61.404C35.7907 61.6313 35.5634 61.9466 35.4072 62.35C35.2538 62.7506 35.1771 63.2122 35.1771 63.735ZM42.3809 58.2761V67.0034H41.6224V58.2761H42.3809ZM46.9321 67.1398C46.3667 67.1398 45.8667 66.9963 45.4321 66.7094C45.0002 66.4225 44.6622 66.0261 44.4178 65.5205C44.1735 65.0119 44.0514 64.4253 44.0514 63.7605C44.0514 63.0901 44.1735 62.5006 44.4178 61.9921C44.6622 61.4807 45.0002 61.083 45.4321 60.7989C45.8667 60.5119 46.3667 60.3685 46.9321 60.3685C47.4974 60.3685 47.996 60.5119 48.4278 60.7989C48.8596 61.0858 49.1977 61.4835 49.442 61.9921C49.6892 62.5006 49.8127 63.0901 49.8127 63.7605C49.8127 64.4253 49.6906 65.0119 49.4463 65.5205C49.2019 66.0261 48.8624 66.4225 48.4278 66.7094C47.996 66.9963 47.4974 67.1398 46.9321 67.1398ZM46.9321 66.4452C47.3866 66.4452 47.7715 66.323 48.0869 66.0787C48.4022 65.8344 48.6409 65.5091 48.8028 65.1028C48.9676 64.6966 49.0499 64.2492 49.0499 63.7605C49.0499 63.2719 48.9676 62.823 48.8028 62.4139C48.6409 62.0048 48.4022 61.6767 48.0869 61.4296C47.7715 61.1824 47.3866 61.0588 46.9321 61.0588C46.4803 61.0588 46.0954 61.1824 45.7772 61.4296C45.4619 61.6767 45.2218 62.0048 45.0571 62.4139C44.8951 62.823 44.8142 63.2719 44.8142 63.7605C44.8142 64.2492 44.8951 64.6966 45.0571 65.1028C45.2218 65.5091 45.4619 65.8344 45.7772 66.0787C46.0926 66.323 46.4775 66.4452 46.9321 66.4452ZM51.7719 69.458C51.6213 69.458 51.4807 69.4438 51.35 69.4153C51.2193 69.3869 51.1156 69.3557 51.0389 69.3216L51.2435 68.6526C51.502 68.7321 51.7321 68.7605 51.9338 68.7378C52.1355 68.7179 52.3145 68.627 52.4708 68.4651C52.627 68.306 52.7662 68.0617 52.8884 67.7321L53.127 67.0673L50.7193 60.458H51.5418L53.485 66.002H53.5446L55.4878 60.458H56.3102L53.5404 68.0389C53.4239 68.3543 53.2804 68.6171 53.11 68.8273C52.9395 69.0403 52.7421 69.198 52.5176 69.3003C52.296 69.4054 52.0475 69.458 51.7719 69.458ZM60.2062 67.1398C59.5954 67.1398 59.067 66.9977 58.621 66.7136C58.1749 66.4267 57.8298 66.0304 57.5855 65.5247C57.344 65.0162 57.2232 64.431 57.2232 63.769C57.2232 63.11 57.344 62.5247 57.5855 62.0134C57.8298 61.4992 58.1664 61.0972 58.5954 60.8074C59.0272 60.5148 59.5258 60.3685 60.0911 60.3685C60.4463 60.3685 60.7886 60.4338 61.1181 60.5645C61.4477 60.6923 61.7431 60.8898 62.0045 61.1568C62.2687 61.421 62.4775 61.7548 62.6309 62.1582C62.7843 62.5588 62.861 63.0332 62.861 63.5815V63.9565H57.7474V63.2875H62.0855C62.0855 62.8671 62.0002 62.4892 61.8298 62.154C61.6622 61.8159 61.4278 61.5489 61.1267 61.3528C60.8284 61.1568 60.4832 61.0588 60.0911 61.0588C59.6764 61.0588 59.3113 61.1696 58.996 61.3912C58.6806 61.6128 58.4335 61.9054 58.2545 62.269C58.0784 62.6327 57.9889 63.0304 57.986 63.4622V63.8628C57.986 64.3827 58.0755 64.8372 58.2545 65.2264C58.4363 65.6128 58.6934 65.9125 59.0258 66.1256C59.3582 66.3386 59.7517 66.4452 60.2062 66.4452C60.5159 66.4452 60.7872 66.3969 61.0201 66.3003C61.2559 66.2037 61.4534 66.0744 61.6124 65.9125C61.7744 65.7477 61.8965 65.5673 61.9789 65.3713L62.6991 65.6057C62.5997 65.8813 62.4363 66.1355 62.209 66.3685C61.9846 66.6014 61.7034 66.7889 61.3653 66.931C61.0301 67.0702 60.6437 67.1398 60.2062 67.1398ZM67.1789 67.1398C66.5681 67.1398 66.0397 66.9977 65.5936 66.7136C65.1476 66.4267 64.8024 66.0304 64.5581 65.5247C64.3166 65.0162 64.1959 64.431 64.1959 63.769C64.1959 63.11 64.3166 62.5247 64.5581 62.0134C64.8024 61.4992 65.1391 61.0972 65.5681 60.8074C65.9999 60.5148 66.4985 60.3685 67.0638 60.3685C67.4189 60.3685 67.7612 60.4338 68.0908 60.5645C68.4203 60.6923 68.7158 60.8898 68.9772 61.1568C69.2414 61.421 69.4502 61.7548 69.6036 62.1582C69.757 62.5588 69.8337 63.0332 69.8337 63.5815V63.9565H64.72V63.2875H69.0581C69.0581 62.8671 68.9729 62.4892 68.8024 62.154C68.6348 61.8159 68.4004 61.5489 68.0993 61.3528C67.801 61.1568 67.4558 61.0588 67.0638 61.0588C66.649 61.0588 66.284 61.1696 65.9686 61.3912C65.6533 61.6128 65.4061 61.9054 65.2272 62.269C65.051 62.6327 64.9615 63.0304 64.9587 63.4622V63.8628C64.9587 64.3827 65.0482 64.8372 65.2272 65.2264C65.409 65.6128 65.6661 65.9125 65.9985 66.1256C66.3308 66.3386 66.7243 66.4452 67.1789 66.4452C67.4885 66.4452 67.7598 66.3969 67.9928 66.3003C68.2286 66.2037 68.426 66.0744 68.5851 65.9125C68.747 65.7477 68.8692 65.5673 68.9516 65.3713L69.6718 65.6057C69.5723 65.8813 69.409 66.1355 69.1817 66.3685C68.9573 66.6014 68.676 66.7889 68.3379 66.931C68.0027 67.0702 67.6164 67.1398 67.1789 67.1398ZM75.0379 67.0034V58.2761H77.9825C78.5507 58.2761 79.0237 58.3756 79.4015 58.5744C79.7822 58.7733 80.0677 59.0446 80.258 59.3884C80.4484 59.7321 80.5436 60.1227 80.5436 60.5602C80.5436 60.9239 80.4825 61.235 80.3603 61.4935C80.2382 61.752 80.072 61.9608 79.8617 62.1199C79.6515 62.279 79.4171 62.394 79.1586 62.4651V62.5332C79.4399 62.5531 79.7126 62.6526 79.9768 62.8315C80.241 63.0077 80.4583 63.2548 80.6288 63.573C80.7992 63.8912 80.8845 64.2719 80.8845 64.7151C80.8845 65.1554 80.7865 65.5489 80.5904 65.8955C80.3944 66.2392 80.0933 66.5105 79.687 66.7094C79.2836 66.9054 78.7694 67.0034 78.1444 67.0034H75.0379ZM75.8348 66.2875H78.1444C78.8177 66.2875 79.3149 66.1384 79.6359 65.8401C79.9598 65.5418 80.1217 65.1668 80.1217 64.7151C80.1217 64.3827 80.0407 64.0815 79.8788 63.8117C79.7197 63.5389 79.4938 63.323 79.2012 63.1639C78.9115 63.0048 78.5705 62.9253 78.1785 62.9253H75.8348V66.2875ZM75.8348 62.2179H78.0549C78.3987 62.2179 78.6998 62.1469 78.9583 62.0048C79.2169 61.8628 79.4186 61.6668 79.5634 61.4168C79.7083 61.1668 79.7808 60.8813 79.7808 60.5602C79.7808 60.0972 79.6302 59.7207 79.3291 59.431C79.0279 59.1384 78.5791 58.9921 77.9825 58.9921H75.8348V62.2179ZM85.296 67.1398C84.6852 67.1398 84.1568 66.9977 83.7108 66.7136C83.2648 66.4267 82.9196 66.0304 82.6753 65.5247C82.4338 65.0162 82.3131 64.431 82.3131 63.769C82.3131 63.11 82.4338 62.5247 82.6753 62.0134C82.9196 61.4992 83.2563 61.0972 83.6852 60.8074C84.1171 60.5148 84.6156 60.3685 85.181 60.3685C85.5361 60.3685 85.8784 60.4338 86.208 60.5645C86.5375 60.6923 86.833 60.8898 87.0943 61.1568C87.3585 61.421 87.5673 61.7548 87.7208 62.1582C87.8742 62.5588 87.9509 63.0332 87.9509 63.5815V63.9565H82.8372V63.2875H87.1753C87.1753 62.8671 87.0901 62.4892 86.9196 62.154C86.752 61.8159 86.5176 61.5489 86.2165 61.3528C85.9182 61.1568 85.573 61.0588 85.181 61.0588C84.7662 61.0588 84.4012 61.1696 84.0858 61.3912C83.7705 61.6128 83.5233 61.9054 83.3443 62.269C83.1682 62.6327 83.0787 63.0304 83.0759 63.4622V63.8628C83.0759 64.3827 83.1654 64.8372 83.3443 65.2264C83.5262 65.6128 83.7833 65.9125 84.1156 66.1256C84.448 66.3386 84.8415 66.4452 85.296 66.4452C85.6057 66.4452 85.877 66.3969 86.11 66.3003C86.3458 66.2037 86.5432 66.0744 86.7023 65.9125C86.8642 65.7477 86.9864 65.5673 87.0688 65.3713L87.7889 65.6057C87.6895 65.8813 87.5262 66.1355 87.2989 66.3685C87.0745 66.6014 86.7932 66.7889 86.4551 66.931C86.1199 67.0702 85.7335 67.1398 85.296 67.1398ZM90.3809 62.9125V67.0034H89.6224V60.458H90.3596V61.485H90.4278C90.5812 61.1497 90.8198 60.8813 91.1437 60.6796C91.4704 60.475 91.8738 60.3727 92.3539 60.3727C92.7943 60.3727 93.1806 60.4651 93.513 60.6497C93.8482 60.8315 94.1082 61.1 94.2928 61.4551C94.4803 61.8102 94.5741 62.2463 94.5741 62.7634V67.0034H93.8156V62.8102C93.8156 62.2733 93.665 61.8486 93.3639 61.5361C93.0656 61.2236 92.665 61.0673 92.1622 61.0673C91.8184 61.0673 91.513 61.1412 91.246 61.2889C90.9789 61.4367 90.7673 61.6497 90.611 61.9281C90.4576 62.2037 90.3809 62.5318 90.3809 62.9125ZM99.2179 67.1398C98.6071 67.1398 98.0787 66.9977 97.6327 66.7136C97.1867 66.4267 96.8415 66.0304 96.5972 65.5247C96.3557 65.0162 96.235 64.431 96.235 63.769C96.235 63.11 96.3557 62.5247 96.5972 62.0134C96.8415 61.4992 97.1781 61.0972 97.6071 60.8074C98.0389 60.5148 98.5375 60.3685 99.1029 60.3685C99.458 60.3685 99.8003 60.4338 100.13 60.5645C100.459 60.6923 100.755 60.8898 101.016 61.1568C101.28 61.421 101.489 61.7548 101.643 62.1582C101.796 62.5588 101.873 63.0332 101.873 63.5815V63.9565H96.7591V63.2875H101.097C101.097 62.8671 101.012 62.4892 100.841 62.154C100.674 61.8159 100.44 61.5489 100.138 61.3528C99.8401 61.1568 99.4949 61.0588 99.1029 61.0588C98.6881 61.0588 98.323 61.1696 98.0077 61.3912C97.6923 61.6128 97.4452 61.9054 97.2662 62.269C97.0901 62.6327 97.0006 63.0304 96.9977 63.4622V63.8628C96.9977 64.3827 97.0872 64.8372 97.2662 65.2264C97.448 65.6128 97.7051 65.9125 98.0375 66.1256C98.3699 66.3386 98.7634 66.4452 99.2179 66.4452C99.5276 66.4452 99.7989 66.3969 100.032 66.3003C100.268 66.2037 100.465 66.0744 100.624 65.9125C100.786 65.7477 100.908 65.5673 100.991 65.3713L101.711 65.6057C101.611 65.8813 101.448 66.1355 101.221 66.3685C100.996 66.6014 100.715 66.7889 100.377 66.931C100.042 67.0702 99.6554 67.1398 99.2179 67.1398ZM106.237 60.458V61.1185H103.02V60.458H106.237ZM104.026 67.0034V59.4992C104.026 59.1469 104.107 58.85 104.269 58.6085C104.433 58.3671 104.648 58.1838 104.912 58.0588C105.176 57.9338 105.456 57.8713 105.752 57.8713C105.951 57.8713 106.115 57.8884 106.246 57.9225C106.379 57.9537 106.485 57.985 106.561 58.0162L106.34 58.681C106.283 58.6639 106.213 58.644 106.131 58.6213C106.049 58.5986 105.945 58.5872 105.82 58.5872C105.49 58.5872 105.236 58.6796 105.057 58.8642C104.878 59.0489 104.789 59.3131 104.789 59.6568L104.784 67.0034H104.026ZM107.76 67.0034V60.458H108.523V67.0034H107.76ZM108.148 59.333C107.991 59.333 107.858 59.2804 107.747 59.1753C107.636 59.0673 107.581 58.9381 107.581 58.7875C107.581 58.6369 107.636 58.5091 107.747 58.404C107.858 58.296 107.991 58.2421 108.148 58.2421C108.304 58.2421 108.437 58.296 108.548 58.404C108.659 58.5091 108.714 58.6369 108.714 58.7875C108.714 58.9381 108.659 59.0673 108.548 59.1753C108.437 59.2804 108.304 59.333 108.148 59.333ZM113.107 60.458V61.1185H109.983V60.458H113.107ZM110.959 58.8898H111.722V65.2946C111.722 65.5673 111.769 65.7818 111.862 65.9381C111.956 66.0915 112.078 66.2009 112.229 66.2662C112.379 66.3287 112.54 66.36 112.71 66.36C112.81 66.36 112.895 66.3543 112.966 66.3429C113.037 66.3287 113.1 66.3145 113.154 66.3003L113.316 66.9864C113.242 67.0148 113.151 67.0403 113.043 67.0631C112.935 67.0886 112.801 67.1014 112.642 67.1014C112.364 67.1014 112.095 67.0403 111.837 66.9182C111.581 66.796 111.371 66.6142 111.206 66.3727C111.041 66.1313 110.959 65.8315 110.959 65.4736V58.8898ZM118.362 58.2761H119.283L122.449 65.8784H122.525L125.692 58.2761H126.612V67.0034H125.862V59.9594H125.794L122.849 67.0034H122.125L119.18 59.9594H119.112V67.0034H118.362V58.2761ZM130.603 67.1526C130.208 67.1526 129.847 67.0759 129.52 66.9225C129.194 66.7662 128.934 66.5418 128.741 66.2492C128.547 65.9537 128.451 65.5957 128.451 65.1753C128.451 64.8514 128.512 64.5787 128.634 64.3571C128.756 64.1355 128.93 63.9537 129.154 63.8117C129.378 63.6696 129.644 63.5574 129.951 63.475C130.258 63.3926 130.596 63.3287 130.965 63.2832C131.332 63.2378 131.641 63.198 131.894 63.1639C132.15 63.1298 132.344 63.0759 132.478 63.002C132.611 62.9281 132.678 62.8088 132.678 62.644V62.4906C132.678 62.0446 132.545 61.6938 132.278 61.4381C132.013 61.1796 131.633 61.0503 131.136 61.0503C130.664 61.0503 130.279 61.154 129.981 61.3614C129.685 61.5688 129.478 61.8131 129.359 62.0943L128.638 61.8344C128.786 61.4764 128.991 61.1909 129.252 60.9778C129.513 60.7619 129.806 60.6071 130.13 60.5134C130.454 60.4168 130.782 60.3685 131.114 60.3685C131.364 60.3685 131.624 60.4011 131.894 60.4665C132.167 60.5318 132.42 60.6455 132.653 60.8074C132.886 60.9665 133.074 61.1895 133.219 61.4764C133.364 61.7605 133.437 62.1213 133.437 62.5588V67.0034H132.678V65.9679H132.631C132.54 66.1611 132.405 66.3486 132.226 66.5304C132.047 66.7122 131.823 66.8614 131.553 66.9778C131.283 67.0943 130.966 67.1526 130.603 67.1526ZM130.705 66.458C131.109 66.458 131.458 66.3685 131.753 66.1895C132.049 66.0105 132.276 65.7733 132.435 65.4778C132.597 65.1796 132.678 64.8514 132.678 64.4935V63.5475C132.621 63.6014 132.526 63.6497 132.393 63.6923C132.262 63.735 132.11 63.7733 131.937 63.8074C131.766 63.8386 131.596 63.8656 131.425 63.8884C131.255 63.9111 131.101 63.931 130.965 63.948C130.596 63.9935 130.28 64.0645 130.019 64.1611C129.758 64.2577 129.557 64.3912 129.418 64.5617C129.279 64.7293 129.209 64.9452 129.209 65.2094C129.209 65.6071 129.351 65.9153 129.636 66.1341C129.92 66.35 130.276 66.458 130.705 66.458ZM139.852 61.894L139.158 62.0901C139.089 61.894 138.993 61.7165 138.868 61.5574C138.743 61.3983 138.579 61.2719 138.378 61.1781C138.179 61.0844 137.932 61.0375 137.636 61.0375C137.193 61.0375 136.829 61.1426 136.545 61.3528C136.261 61.5631 136.119 61.8344 136.119 62.1668C136.119 62.448 136.216 62.6767 136.409 62.8528C136.605 63.0261 136.906 63.1639 137.312 63.2662L138.301 63.5091C138.849 63.6426 139.26 63.8543 139.533 64.144C139.808 64.4338 139.946 64.7975 139.946 65.235C139.946 65.6043 139.844 65.9324 139.639 66.2193C139.435 66.5063 139.149 66.7321 138.783 66.8969C138.419 67.0588 137.997 67.1398 137.517 67.1398C136.878 67.1398 136.351 66.9963 135.936 66.7094C135.521 66.4196 135.256 66.002 135.139 65.4565L135.868 65.2776C135.962 65.6668 136.145 65.9608 136.417 66.1597C136.693 66.3585 137.055 66.458 137.504 66.458C138.007 66.458 138.409 66.3457 138.71 66.1213C139.011 65.894 139.162 65.61 139.162 65.269C139.162 65.0048 139.074 64.7832 138.898 64.6043C138.721 64.4225 138.454 64.2889 138.096 64.2037L137.027 63.948C136.459 63.8117 136.038 63.5957 135.766 63.3003C135.493 63.0048 135.356 62.6384 135.356 62.2009C135.356 61.8401 135.454 61.5233 135.65 61.2506C135.846 60.975 136.116 60.7591 136.46 60.6028C136.804 60.4466 137.196 60.3685 137.636 60.3685C138.236 60.3685 138.714 60.5048 139.072 60.7776C139.433 61.0475 139.693 61.4196 139.852 61.894ZM144.185 60.458V61.1185H141.061V60.458H144.185ZM142.037 58.8898H142.8V65.2946C142.8 65.5673 142.847 65.7818 142.941 65.9381C143.034 66.0915 143.156 66.2009 143.307 66.2662C143.458 66.3287 143.618 66.36 143.789 66.36C143.888 66.36 143.973 66.3543 144.044 66.3429C144.115 66.3287 144.178 66.3145 144.232 66.3003L144.394 66.9864C144.32 67.0148 144.229 67.0403 144.121 67.0631C144.013 67.0886 143.879 67.1014 143.72 67.1014C143.442 67.1014 143.174 67.0403 142.915 66.9182C142.659 66.796 142.449 66.6142 142.284 66.3727C142.12 66.1313 142.037 65.8315 142.037 65.4736V58.8898ZM148.484 67.1398C147.873 67.1398 147.344 66.9977 146.898 66.7136C146.452 66.4267 146.107 66.0304 145.863 65.5247C145.621 65.0162 145.501 64.431 145.501 63.769C145.501 63.11 145.621 62.5247 145.863 62.0134C146.107 61.4992 146.444 61.0972 146.873 60.8074C147.305 60.5148 147.803 60.3685 148.368 60.3685C148.724 60.3685 149.066 60.4338 149.395 60.5645C149.725 60.6923 150.02 60.8898 150.282 61.1568C150.546 61.421 150.755 61.7548 150.908 62.1582C151.062 62.5588 151.138 63.0332 151.138 63.5815V63.9565H146.025V63.2875H150.363C150.363 62.8671 150.278 62.4892 150.107 62.154C149.94 61.8159 149.705 61.5489 149.404 61.3528C149.106 61.1568 148.761 61.0588 148.368 61.0588C147.954 61.0588 147.589 61.1696 147.273 61.3912C146.958 61.6128 146.711 61.9054 146.532 62.269C146.356 62.6327 146.266 63.0304 146.263 63.4622V63.8628C146.263 64.3827 146.353 64.8372 146.532 65.2264C146.714 65.6128 146.971 65.9125 147.303 66.1256C147.636 66.3386 148.029 66.4452 148.484 66.4452C148.793 66.4452 149.065 66.3969 149.297 66.3003C149.533 66.2037 149.731 66.0744 149.89 65.9125C150.052 65.7477 150.174 65.5673 150.256 65.3713L150.976 65.6057C150.877 65.8813 150.714 66.1355 150.486 66.3685C150.262 66.6014 149.981 66.7889 149.643 66.931C149.307 67.0702 148.921 67.1398 148.484 67.1398ZM152.81 67.0034V60.458H153.547V61.4636H153.603C153.733 61.1341 153.96 60.8685 154.284 60.6668C154.611 60.4622 154.98 60.36 155.392 60.36C155.455 60.36 155.524 60.3614 155.601 60.3642C155.678 60.3671 155.742 60.3699 155.793 60.3727V61.144C155.759 61.1384 155.699 61.1298 155.614 61.1185C155.529 61.1071 155.436 61.1014 155.337 61.1014C154.996 61.1014 154.692 61.1739 154.425 61.3188C154.161 61.4608 153.952 61.6582 153.799 61.9111C153.645 62.1639 153.568 62.4523 153.568 62.7761V67.0034H152.81ZM159.445 67.1398C158.86 67.1398 158.35 66.9935 157.915 66.7009C157.483 66.4082 157.148 66.0077 156.909 65.4992C156.671 64.9906 156.551 64.4111 156.551 63.7605C156.551 63.1043 156.672 62.5205 156.914 62.0091C157.158 61.4977 157.496 61.0972 157.928 60.8074C158.36 60.5148 158.861 60.3685 159.432 60.3685C159.87 60.3685 160.266 60.4537 160.621 60.6242C160.976 60.7918 161.269 61.029 161.499 61.3358C161.732 61.6398 161.878 61.9949 161.938 62.4011H161.171C161.091 62.0318 160.899 61.7165 160.595 61.4551C160.294 61.1909 159.911 61.0588 159.445 61.0588C159.027 61.0588 158.658 61.1725 158.337 61.3997C158.016 61.6242 157.764 61.9381 157.583 62.3415C157.404 62.7421 157.314 63.2065 157.314 63.735C157.314 64.2662 157.402 64.7364 157.578 65.1455C157.754 65.5517 158.002 65.8699 158.32 66.1C158.641 66.3301 159.016 66.4452 159.445 66.4452C159.735 66.4452 159.999 66.3912 160.237 66.2832C160.479 66.1725 160.681 66.0162 160.843 65.8145C161.007 65.6128 161.118 65.3727 161.175 65.0943H161.942C161.885 65.4892 161.745 65.8415 161.52 66.1511C161.299 66.458 161.01 66.6994 160.655 66.8756C160.303 67.0517 159.899 67.1398 159.445 67.1398ZM165.396 67.1526C165.001 67.1526 164.64 67.0759 164.313 66.9225C163.987 66.7662 163.727 66.5418 163.534 66.2492C163.34 65.9537 163.244 65.5957 163.244 65.1753C163.244 64.8514 163.305 64.5787 163.427 64.3571C163.549 64.1355 163.723 63.9537 163.947 63.8117C164.171 63.6696 164.437 63.5574 164.744 63.475C165.051 63.3926 165.389 63.3287 165.758 63.2832C166.125 63.2378 166.434 63.198 166.687 63.1639C166.943 63.1298 167.137 63.0759 167.271 63.002C167.404 62.9281 167.471 62.8088 167.471 62.644V62.4906C167.471 62.0446 167.338 61.6938 167.071 61.4381C166.806 61.1796 166.426 61.0503 165.929 61.0503C165.457 61.0503 165.072 61.154 164.774 61.3614C164.478 61.5688 164.271 61.8131 164.152 62.0943L163.431 61.8344C163.579 61.4764 163.784 61.1909 164.045 60.9778C164.306 60.7619 164.599 60.6071 164.923 60.5134C165.247 60.4168 165.575 60.3685 165.907 60.3685C166.157 60.3685 166.417 60.4011 166.687 60.4665C166.96 60.5318 167.213 60.6455 167.446 60.8074C167.679 60.9665 167.867 61.1895 168.012 61.4764C168.157 61.7605 168.23 62.1213 168.23 62.5588V67.0034H167.471V65.9679H167.424C167.333 66.1611 167.198 66.3486 167.019 66.5304C166.84 66.7122 166.616 66.8614 166.346 66.9778C166.076 67.0943 165.759 67.1526 165.396 67.1526ZM165.498 66.458C165.902 66.458 166.251 66.3685 166.546 66.1895C166.842 66.0105 167.069 65.7733 167.228 65.4778C167.39 65.1796 167.471 64.8514 167.471 64.4935V63.5475C167.414 63.6014 167.319 63.6497 167.186 63.6923C167.055 63.735 166.903 63.7733 166.73 63.8074C166.559 63.8386 166.389 63.8656 166.218 63.8884C166.048 63.9111 165.894 63.931 165.758 63.948C165.389 63.9935 165.073 64.0645 164.812 64.1611C164.551 64.2577 164.35 64.3912 164.211 64.5617C164.072 64.7293 164.002 64.9452 164.002 65.2094C164.002 65.6071 164.144 65.9153 164.429 66.1341C164.713 66.35 165.069 66.458 165.498 66.458ZM170.247 67.0034V60.458H170.985V61.4636H171.04C171.171 61.1341 171.398 60.8685 171.722 60.6668C172.049 60.4622 172.418 60.36 172.83 60.36C172.892 60.36 172.962 60.3614 173.039 60.3642C173.115 60.3671 173.179 60.3699 173.23 60.3727V61.144C173.196 61.1384 173.137 61.1298 173.051 61.1185C172.966 61.1071 172.874 61.1014 172.774 61.1014C172.433 61.1014 172.129 61.1739 171.862 61.3188C171.598 61.4608 171.389 61.6582 171.236 61.9111C171.083 62.1639 171.006 62.4523 171.006 62.7761V67.0034H170.247ZM176.682 67.1398C176.145 67.1398 175.675 66.9977 175.272 66.7136C174.868 66.4296 174.553 66.0332 174.326 65.5247C174.101 65.0162 173.989 64.4239 173.989 63.7477C173.989 63.0744 174.101 62.485 174.326 61.9793C174.553 61.4707 174.87 61.0759 175.276 60.7946C175.682 60.5105 176.155 60.3685 176.695 60.3685C177.093 60.3685 177.424 60.4395 177.688 60.5815C177.952 60.7207 178.164 60.894 178.323 61.1014C178.482 61.3088 178.605 61.5105 178.693 61.7065H178.762V58.2761H179.524V67.0034H178.783V65.7889H178.693C178.605 65.9878 178.48 66.1923 178.318 66.4026C178.156 66.61 177.942 66.7847 177.675 66.9267C177.411 67.0688 177.08 67.1398 176.682 67.1398ZM176.772 66.4452C177.195 66.4452 177.556 66.3301 177.854 66.1C178.152 65.8671 178.379 65.5475 178.536 65.1412C178.695 64.7321 178.774 64.2634 178.774 63.735C178.774 63.2122 178.696 62.7506 178.54 62.35C178.384 61.9466 178.156 61.6313 177.858 61.404C177.56 61.1739 177.198 61.0588 176.772 61.0588C176.334 61.0588 175.965 61.1781 175.664 61.4168C175.365 61.6526 175.138 61.9722 174.982 62.3756C174.828 62.779 174.752 63.2321 174.752 63.735C174.752 64.2435 174.83 64.7023 174.986 65.1114C175.142 65.5205 175.37 65.8457 175.668 66.0872C175.969 66.3259 176.337 66.4452 176.772 66.4452ZM186.083 61.894L185.388 62.0901C185.32 61.894 185.223 61.7165 185.098 61.5574C184.973 61.3983 184.81 61.2719 184.608 61.1781C184.409 61.0844 184.162 61.0375 183.867 61.0375C183.424 61.0375 183.06 61.1426 182.776 61.3528C182.492 61.5631 182.35 61.8344 182.35 62.1668C182.35 62.448 182.446 62.6767 182.639 62.8528C182.835 63.0261 183.137 63.1639 183.543 63.2662L184.531 63.5091C185.08 63.6426 185.49 63.8543 185.763 64.144C186.039 64.4338 186.176 64.7975 186.176 65.235C186.176 65.6043 186.074 65.9324 185.87 66.2193C185.665 66.5063 185.379 66.7321 185.013 66.8969C184.649 67.0588 184.228 67.1398 183.747 67.1398C183.108 67.1398 182.581 66.9963 182.166 66.7094C181.752 66.4196 181.486 66.002 181.37 65.4565L182.098 65.2776C182.192 65.6668 182.375 65.9608 182.648 66.1597C182.924 66.3585 183.286 66.458 183.735 66.458C184.237 66.458 184.639 66.3457 184.941 66.1213C185.242 65.894 185.392 65.61 185.392 65.269C185.392 65.0048 185.304 64.7832 185.128 64.6043C184.952 64.4225 184.685 64.2889 184.327 64.2037L183.257 63.948C182.689 63.8117 182.269 63.5957 181.996 63.3003C181.723 63.0048 181.587 62.6384 181.587 62.2009C181.587 61.8401 181.685 61.5233 181.881 61.2506C182.077 60.975 182.347 60.7591 182.691 60.6028C183.034 60.4466 183.426 60.3685 183.867 60.3685C184.466 60.3685 184.945 60.5048 185.303 60.7776C185.664 61.0475 185.924 61.4196 186.083 61.894Z" fill="white"/>
</g>
<defs>
<filter id="filter0_f_35_492" x="-228.672" y="-147.97" width="532.324" height="274.738" filterUnits="userSpaceOnUse" color-interpolation-filters="sRGB">
<feFlood flood-opacity="0" result="BackgroundImageFix"/>
<feBlend mode="normal" in="SourceGraphic" in2="BackgroundImageFix" result="shape"/>
<feGaussianBlur stdDeviation="38.827" result="effect1_foregroundBlur_35_492"/>
</filter>
<filter id="filter1_f_35_492" x="123.457" y="58.2747" width="532.324" height="274.738" filterUnits="userSpaceOnUse" color-interpolation-filters="sRGB">
<feFlood flood-opacity="0" result="BackgroundImageFix"/>
<feBlend mode="normal" in="SourceGraphic" in2="BackgroundImageFix" result="shape"/>
<feGaussianBlur stdDeviation="38.827" result="effect1_foregroundBlur_35_492"/>
</filter>
<filter id="filter2_f_35_492" x="-101.753" y="65.7999" width="511.253" height="268.063" filterUnits="userSpaceOnUse" color-interpolation-filters="sRGB">
<feFlood flood-opacity="0" result="BackgroundImageFix"/>
<feBlend mode="normal" in="SourceGraphic" in2="BackgroundImageFix" result="shape"/>
<feGaussianBlur stdDeviation="38.827" result="effect1_foregroundBlur_35_492"/>
</filter>
<filter id="filter3_f_35_492" x="-304.228" y="58.2747" width="440.063" height="245.512" filterUnits="userSpaceOnUse" color-interpolation-filters="sRGB">
<feFlood flood-opacity="0" result="BackgroundImageFix"/>
<feBlend mode="normal" in="SourceGraphic" in2="BackgroundImageFix" result="shape"/>
<feGaussianBlur stdDeviation="38.827" result="effect1_foregroundBlur_35_492"/>
</filter>
<filter id="filter4_di_35_492" x="17.1771" y="162.177" width="35.3972" height="14.0409" filterUnits="userSpaceOnUse" color-interpolation-filters="sRGB">
<feFlood flood-opacity="0" result="BackgroundImageFix"/>
<feColorMatrix in="SourceAlpha" type="matrix" values="0 0 0 0 0 0 0 0 0 0 0 0 0 0 0 0 0 0 127 0" result="hardAlpha"/>
<feOffset dy="2.20989"/>
<feGaussianBlur stdDeviation="1.10494"/>
<feComposite in2="hardAlpha" operator="out"/>
<feColorMatrix type="matrix" values="0 0 0 0 0 0 0 0 0 0 0 0 0 0 0 0 0 0 0.25 0"/>
<feBlend mode="normal" in2="BackgroundImageFix" result="effect1_dropShadow_35_492"/>
<feBlend mode="normal" in="SourceGraphic" in2="effect1_dropShadow_35_492" result="shape"/>
<feColorMatrix in="SourceAlpha" type="matrix" values="0 0 0 0 0 0 0 0 0 0 0 0 0 0 0 0 0 0 127 0" result="hardAlpha"/>
<feOffset dy="2.20989"/>
<feGaussianBlur stdDeviation="1.10494"/>
<feComposite in2="hardAlpha" operator="arithmetic" k2="-1" k3="1"/>
<feColorMatrix type="matrix" values="0 0 0 0 0.541176 0 0 0 0 0.541176 0 0 0 0 0.541176 0 0 0 0.2 0"/>
<feBlend mode="normal" in2="shape" result="effect2_innerShadow_35_492"/>
</filter>
<linearGradient id="paint0_linear_35_492" x1="0.531616" y1="0.0664062" x2="309.688" y2="197.417" gradientUnits="userSpaceOnUse">
<stop stop-color="white"/>
</linearGradient>
<linearGradient id="paint1_linear_35_492" x1="305.123" y1="82.5251" x2="35.3911" y2="7.71111" gradientUnits="userSpaceOnUse">
<stop stop-color="#360653"/>
<stop offset="1" stop-color="#340651"/>
</linearGradient>
<linearGradient id="paint2_linear_35_492" x1="305.002" y1="82.3444" x2="35.2705" y2="7.53044" gradientUnits="userSpaceOnUse">
<stop stop-color="#360653"/>
<stop offset="1" stop-color="#340651"/>
</linearGradient>
</defs>
</svg>
