<svg width="311" height="197" viewBox="0 0 311 197" fill="none" xmlns="http://www.w3.org/2000/svg" xmlns:xlink="http://www.w3.org/1999/xlink">
<rect x="0.5" y="0.0646973" width="309.94" height="196.13" rx="6.95416" fill="url(#paint0_linear_35_528)"/>
<mask id="mask0_35_528" style="mask-type:alpha" maskUnits="userSpaceOnUse" x="0" y="0" width="311" height="197">
<rect x="0.5" width="309.94" height="196.194" rx="6.95416" fill="#E0E0E0"/>
</mask>
<g mask="url(#mask0_35_528)">
<path d="M0.497437 6.95441C0.497437 3.11374 3.61092 0.000244141 7.45159 0.000244141H303.597C307.438 0.000244141 310.551 3.11373 310.551 6.9544V189.296C310.551 193.136 307.438 196.25 303.597 196.25H7.4516C3.61092 196.25 0.497437 193.136 0.497437 189.296V6.95441Z" fill="url(#paint1_linear_35_528)"/>
<path d="M0.497437 6.95441C0.497437 3.11374 3.61092 0.000244141 7.45159 0.000244141H303.597C307.438 0.000244141 310.551 3.11373 310.551 6.9544V189.296C310.551 193.136 307.438 196.25 303.597 196.25H7.4516C3.61092 196.25 0.497437 193.136 0.497437 189.296V6.95441Z"/>
<g filter="url(#filter0_di_35_528)">
<path d="M22.3024 170.723C21.6824 170.72 21.1527 170.557 20.7132 170.233C20.2738 169.908 19.9376 169.436 19.7048 168.816C19.472 168.196 19.3556 167.449 19.3556 166.576C19.3556 165.704 19.472 164.96 19.7048 164.343C19.9402 163.725 20.2777 163.255 20.7172 162.93C21.1592 162.606 21.6877 162.444 22.3024 162.444C22.9171 162.444 23.4442 162.607 23.8837 162.934C24.3232 163.259 24.6593 163.729 24.8921 164.347C25.1276 164.961 25.2453 165.704 25.2453 166.576C25.2453 167.452 25.1289 168.2 24.8961 168.82C24.6632 169.437 24.3271 169.909 23.8876 170.236C23.4482 170.561 22.9197 170.723 22.3024 170.723ZM22.3024 169.675C22.8465 169.675 23.2716 169.41 23.5776 168.879C23.8863 168.348 24.0407 167.58 24.0407 166.576C24.0407 165.908 23.97 165.345 23.8288 164.884C23.6901 164.421 23.49 164.071 23.2284 163.833C22.9694 163.592 22.6608 163.472 22.3024 163.472C21.7609 163.472 21.3358 163.739 21.0271 164.272C20.7185 164.806 20.5628 165.574 20.5602 166.576C20.5602 167.245 20.6295 167.812 20.7682 168.275C20.9094 168.735 21.1095 169.084 21.3685 169.322C21.6275 169.558 21.9388 169.675 22.3024 169.675ZM26.6373 170.59V169.711L29.3565 166.893C29.6469 166.587 29.8862 166.319 30.0746 166.089C30.2655 165.856 30.4081 165.635 30.5023 165.426C30.5964 165.217 30.6435 164.994 30.6435 164.759C30.6435 164.492 30.5807 164.262 30.4552 164.068C30.3296 163.872 30.1583 163.722 29.9411 163.617C29.724 163.51 29.4794 163.456 29.2074 163.456C28.9196 163.456 28.6685 163.515 28.454 163.633C28.2395 163.75 28.0747 163.916 27.9596 164.131C27.8445 164.345 27.7869 164.597 27.7869 164.884H26.6294C26.6294 164.395 26.7419 163.967 26.9669 163.601C27.1918 163.235 27.5005 162.951 27.8929 162.75C28.2853 162.546 28.7313 162.444 29.2309 162.444C29.7358 162.444 30.1805 162.544 30.565 162.746C30.9522 162.945 31.2543 163.217 31.4714 163.562C31.6886 163.905 31.7971 164.292 31.7971 164.723C31.7971 165.022 31.7409 165.313 31.6284 165.598C31.5185 165.884 31.3263 166.201 31.0516 166.552C30.7769 166.9 30.395 167.322 29.9058 167.819L28.3088 169.491V169.55H31.9266V170.59H26.6373ZM36.49 162.177L33.9003 171.798H32.8526L35.4424 162.177H36.49ZM40.2687 170.699C39.7298 170.699 39.2485 170.607 38.8247 170.421C38.4036 170.235 38.07 169.977 37.8241 169.648C37.5809 169.316 37.4501 168.931 37.4318 168.494H38.6639C38.6795 168.732 38.7593 168.939 38.9032 169.114C39.0497 169.287 39.2407 169.42 39.4761 169.514C39.7115 169.609 39.9731 169.656 40.2609 169.656C40.5774 169.656 40.8573 169.601 41.1006 169.491C41.3465 169.381 41.5387 169.228 41.6774 169.032C41.816 168.833 41.8853 168.604 41.8853 168.345C41.8853 168.076 41.816 167.839 41.6774 167.635C41.5413 167.428 41.3412 167.266 41.077 167.148C40.8154 167.031 40.4989 166.972 40.1274 166.972H39.4486V165.983H40.1274C40.4257 165.983 40.6873 165.929 40.9122 165.822C41.1398 165.715 41.3177 165.566 41.4459 165.375C41.574 165.181 41.6381 164.955 41.6381 164.696C41.6381 164.447 41.5819 164.232 41.4694 164.049C41.3595 163.863 41.2026 163.718 40.9985 163.613C40.7971 163.508 40.5591 163.456 40.2844 163.456C40.0228 163.456 39.7782 163.504 39.5506 163.601C39.3257 163.695 39.1426 163.831 39.0013 164.009C38.86 164.185 38.7842 164.395 38.7737 164.641H37.6005C37.6136 164.207 37.7417 163.825 37.985 163.495C38.2309 163.166 38.5553 162.908 38.9581 162.722C39.361 162.537 39.8083 162.444 40.3001 162.444C40.8154 162.444 41.2601 162.544 41.6342 162.746C42.0109 162.945 42.3013 163.21 42.5053 163.542C42.712 163.875 42.814 164.238 42.8114 164.633C42.814 165.083 42.6884 165.465 42.4347 165.779C42.1835 166.093 41.8487 166.303 41.4302 166.411V166.473C41.9638 166.555 42.3771 166.766 42.6701 167.109C42.9657 167.452 43.1122 167.877 43.1096 168.384C43.1122 168.826 42.9892 169.223 42.7407 169.573C42.4948 169.924 42.1587 170.2 41.7323 170.401C41.3059 170.6 40.818 170.699 40.2687 170.699ZM47.3905 170.723C46.7705 170.72 46.2408 170.557 45.8013 170.233C45.3619 169.908 45.0257 169.436 44.7929 168.816C44.5601 168.196 44.4437 167.449 44.4437 166.576C44.4437 165.704 44.5601 164.96 44.7929 164.343C45.0283 163.725 45.3658 163.255 45.8053 162.93C46.2473 162.606 46.7758 162.444 47.3905 162.444C48.0052 162.444 48.5323 162.607 48.9718 162.934C49.4113 163.259 49.7474 163.729 49.9802 164.347C50.2157 164.961 50.3334 165.704 50.3334 166.576C50.3334 167.452 50.217 168.2 49.9842 168.82C49.7513 169.437 49.4152 169.909 48.9757 170.236C48.5363 170.561 48.0078 170.723 47.3905 170.723ZM47.3905 169.675C47.9346 169.675 48.3597 169.41 48.6657 168.879C48.9744 168.348 49.1288 167.58 49.1288 166.576C49.1288 165.908 49.0581 165.345 48.9169 164.884C48.7782 164.421 48.5781 164.071 48.3165 163.833C48.0575 163.592 47.7489 163.472 47.3905 163.472C46.849 163.472 46.4239 163.739 46.1152 164.272C45.8066 164.806 45.6509 165.574 45.6483 166.576C45.6483 167.245 45.7176 167.812 45.8563 168.275C45.9975 168.735 46.1976 169.084 46.4566 169.322C46.7156 169.558 47.0269 169.675 47.3905 169.675Z" fill="white"/>
</g>
<path d="M25.516 115.852C24.4922 115.852 23.5776 115.676 22.7725 115.323C21.9723 114.97 21.3386 114.48 20.8714 113.854C20.4091 113.223 20.1606 112.492 20.1258 111.662H22.4668C22.4966 112.114 22.6482 112.507 22.9216 112.84C23.1999 113.168 23.5627 113.422 24.01 113.601C24.4574 113.779 24.9544 113.869 25.5011 113.869C26.1025 113.869 26.6343 113.765 27.0965 113.556C27.5637 113.347 27.9291 113.056 28.1925 112.684C28.4559 112.306 28.5876 111.871 28.5876 111.379C28.5876 110.867 28.4559 110.417 28.1925 110.029C27.934 109.637 27.5538 109.329 27.0518 109.105C26.5548 108.881 25.9534 108.77 25.2476 108.77H23.9579V106.891H25.2476C25.8142 106.891 26.3113 106.789 26.7387 106.585C27.1711 106.381 27.5091 106.098 27.7526 105.735C27.9962 105.367 28.1179 104.937 28.1179 104.445C28.1179 103.973 28.0111 103.563 27.7973 103.215C27.5886 102.862 27.2904 102.587 26.9027 102.388C26.52 102.189 26.0677 102.09 25.5458 102.09C25.0488 102.09 24.5841 102.182 24.1517 102.365C23.7243 102.544 23.3763 102.803 23.108 103.141C22.8396 103.474 22.6954 103.874 22.6755 104.341H20.4464C20.4713 103.516 20.7148 102.79 21.177 102.164C21.6442 101.538 22.2605 101.048 23.0259 100.695C23.7914 100.343 24.6413 100.166 25.5757 100.166C26.5548 100.166 27.3997 100.357 28.1105 100.74C28.8262 101.118 29.3779 101.622 29.7655 102.254C30.1582 102.885 30.352 103.576 30.3471 104.326C30.352 105.181 30.1135 105.907 29.6314 106.503C29.1542 107.1 28.518 107.5 27.7228 107.703V107.823C28.7367 107.977 29.522 108.379 30.0787 109.03C30.6403 109.682 30.9186 110.489 30.9137 111.453C30.9186 112.293 30.685 113.046 30.2129 113.712C29.7457 114.378 29.107 114.903 28.2969 115.285C27.4867 115.663 26.5598 115.852 25.516 115.852ZM34.251 112.661V110.797L40.8489 100.375H42.3176V103.118H41.3857L36.6665 110.589V110.708H45.7098V112.661H34.251ZM41.4901 115.643V112.095L41.505 111.245V100.375H43.6894V115.643H41.4901ZM54.1875 115.852C53.2531 115.852 52.4131 115.673 51.6676 115.315C50.927 114.952 50.3356 114.455 49.8932 113.824C49.4509 113.193 49.2148 112.472 49.185 111.662H51.4216C51.4763 112.318 51.767 112.858 52.2939 113.28C52.8207 113.702 53.4519 113.914 54.1875 113.914C54.774 113.914 55.2934 113.779 55.7457 113.511C56.2029 113.238 56.5608 112.862 56.8192 112.385C57.0826 111.908 57.2144 111.364 57.2144 110.753C57.2144 110.131 57.0802 109.577 56.8118 109.09C56.5434 108.603 56.1731 108.22 55.7009 107.942C55.2337 107.664 54.6969 107.522 54.0906 107.517C53.6284 107.517 53.1636 107.597 52.6964 107.756C52.2292 107.915 51.8515 108.123 51.5632 108.382L49.4534 108.069L50.3107 100.375H58.7054V102.35H52.2268L51.7422 106.622H51.8316C52.1298 106.334 52.525 106.093 53.017 105.899C53.514 105.705 54.0458 105.608 54.6125 105.608C55.5419 105.608 56.3694 105.83 57.0951 106.272C57.8257 106.714 58.3997 107.318 58.8172 108.084C59.2397 108.844 59.4485 109.719 59.4435 110.708C59.4485 111.697 59.2248 112.579 58.7725 113.355C58.3252 114.13 57.7039 114.741 56.9087 115.189C56.1184 115.631 55.2114 115.852 54.1875 115.852ZM68.0461 115.852C67.1117 115.852 66.2717 115.673 65.5262 115.315C64.7856 114.952 64.1942 114.455 63.7518 113.824C63.3095 113.193 63.0734 112.472 63.0436 111.662H65.2802C65.3349 112.318 65.6256 112.858 66.1524 113.28C66.6793 113.702 67.3105 113.914 68.0461 113.914C68.6326 113.914 69.152 113.779 69.6043 113.511C70.0615 113.238 70.4194 112.862 70.6778 112.385C70.9412 111.908 71.073 111.364 71.073 110.753C71.073 110.131 70.9388 109.577 70.6704 109.09C70.402 108.603 70.0317 108.22 69.5595 107.942C69.0923 107.664 68.5555 107.522 67.9492 107.517C67.4869 107.517 67.0222 107.597 66.555 107.756C66.0878 107.915 65.7101 108.123 65.4218 108.382L63.312 108.069L64.1693 100.375H72.564V102.35H66.0854L65.6008 106.622H65.6902C65.9884 106.334 66.3836 106.093 66.8756 105.899C67.3726 105.705 67.9044 105.608 68.4711 105.608C69.4005 105.608 70.228 105.83 70.9537 106.272C71.6843 106.714 72.2583 107.318 72.6758 108.084C73.0983 108.844 73.3071 109.719 73.3021 110.708C73.3071 111.697 73.0834 112.579 72.6311 113.355C72.1838 114.13 71.5625 114.741 70.7673 115.189C69.977 115.631 69.07 115.852 68.0461 115.852ZM82.9402 112.661V110.797L89.5381 100.375H91.0068V103.118H90.0749L85.3557 110.589V110.708H94.399V112.661H82.9402ZM90.1793 115.643V112.095L90.1942 111.245V100.375H92.3786V115.643H90.1793ZM102.877 115.852C101.942 115.852 101.102 115.673 100.357 115.315C99.6162 114.952 99.0248 114.455 98.5824 113.824C98.1401 113.193 97.904 112.472 97.8742 111.662H100.111C100.165 112.318 100.456 112.858 100.983 113.28C101.51 113.702 102.141 113.914 102.877 113.914C103.463 113.914 103.983 113.779 104.435 113.511C104.892 113.238 105.25 112.862 105.508 112.385C105.772 111.908 105.904 111.364 105.904 110.753C105.904 110.131 105.769 109.577 105.501 109.09C105.233 108.603 104.862 108.22 104.39 107.942C103.923 107.664 103.386 107.522 102.78 107.517C102.318 107.517 101.853 107.597 101.386 107.756C100.918 107.915 100.541 108.123 100.252 108.382L98.1426 108.069L98.9999 100.375H107.395V102.35H100.916L100.431 106.622H100.521C100.819 106.334 101.214 106.093 101.706 105.899C102.203 105.705 102.735 105.608 103.302 105.608C104.231 105.608 105.059 105.83 105.784 106.272C106.515 106.714 107.089 107.318 107.506 108.084C107.929 108.844 108.138 109.719 108.133 110.708C108.138 111.697 107.914 112.579 107.462 113.355C107.014 114.13 106.393 114.741 105.598 115.189C104.808 115.631 103.901 115.852 102.877 115.852ZM117.026 115.852C116.345 115.842 115.674 115.718 115.013 115.479C114.357 115.241 113.761 114.843 113.224 114.286C112.687 113.73 112.257 112.982 111.934 112.042C111.616 111.103 111.457 109.93 111.457 108.523C111.457 107.191 111.589 106.009 111.852 104.975C112.12 103.941 112.506 103.069 113.008 102.358C113.51 101.642 114.116 101.098 114.827 100.725C115.537 100.352 116.335 100.166 117.22 100.166C118.129 100.166 118.937 100.345 119.643 100.703C120.349 101.061 120.92 101.555 121.358 102.186C121.8 102.818 122.081 103.536 122.2 104.341H119.926C119.772 103.705 119.466 103.185 119.009 102.783C118.552 102.38 117.955 102.179 117.22 102.179C116.102 102.179 115.229 102.666 114.603 103.64C113.982 104.614 113.669 105.969 113.664 107.703H113.776C114.039 107.271 114.362 106.903 114.745 106.6C115.132 106.292 115.565 106.056 116.042 105.892C116.524 105.723 117.031 105.638 117.563 105.638C118.448 105.638 119.248 105.854 119.963 106.287C120.684 106.714 121.258 107.306 121.686 108.061C122.113 108.817 122.327 109.682 122.327 110.656C122.327 111.63 122.106 112.512 121.663 113.302C121.226 114.093 120.61 114.719 119.814 115.181C119.019 115.638 118.09 115.862 117.026 115.852ZM117.019 113.914C117.605 113.914 118.129 113.77 118.592 113.481C119.054 113.193 119.419 112.805 119.688 112.318C119.956 111.831 120.09 111.287 120.09 110.686C120.09 110.099 119.958 109.565 119.695 109.083C119.437 108.601 119.079 108.218 118.622 107.935C118.169 107.651 117.652 107.51 117.071 107.51C116.628 107.51 116.218 107.594 115.841 107.763C115.468 107.932 115.14 108.166 114.857 108.464C114.573 108.762 114.35 109.105 114.186 109.493C114.027 109.875 113.947 110.28 113.947 110.708C113.947 111.279 114.079 111.809 114.342 112.296C114.611 112.783 114.976 113.176 115.438 113.474C115.905 113.767 116.432 113.914 117.019 113.914ZM125.882 115.643V113.973L131.049 108.62C131.6 108.039 132.055 107.529 132.413 107.092C132.776 106.65 133.047 106.23 133.226 105.832C133.405 105.435 133.494 105.012 133.494 104.565C133.494 104.058 133.375 103.62 133.136 103.253C132.898 102.88 132.572 102.594 132.16 102.395C131.747 102.191 131.282 102.09 130.765 102.09C130.219 102.09 129.742 102.201 129.334 102.425C128.926 102.649 128.613 102.964 128.395 103.372C128.176 103.779 128.067 104.257 128.067 104.803H125.867C125.867 103.874 126.081 103.061 126.508 102.365C126.936 101.67 127.522 101.13 128.268 100.748C129.013 100.36 129.861 100.166 130.81 100.166C131.769 100.166 132.614 100.357 133.345 100.74C134.081 101.118 134.655 101.635 135.067 102.291C135.48 102.942 135.686 103.678 135.686 104.498C135.686 105.064 135.579 105.618 135.365 106.16C135.157 106.702 134.791 107.306 134.269 107.972C133.747 108.633 133.022 109.436 132.092 110.38L129.058 113.556V113.668H135.932V115.643H125.882ZM146.507 115.643L153.173 102.462V102.35H145.464V100.375H155.558V102.418L148.916 115.643H146.507ZM159.915 115.643L166.58 102.462V102.35H158.871V100.375H168.966V102.418L162.323 115.643H159.915ZM178.191 100.375V115.643H175.88V102.686H175.79L172.137 105.072V102.865L175.947 100.375H178.191ZM188.477 115.897C187.299 115.892 186.292 115.581 185.457 114.965C184.622 114.349 183.983 113.451 183.541 112.274C183.099 111.096 182.878 109.677 182.878 108.017C182.878 106.361 183.099 104.947 183.541 103.774C183.988 102.601 184.63 101.707 185.465 101.091C186.305 100.474 187.309 100.166 188.477 100.166C189.645 100.166 190.646 100.477 191.481 101.098C192.316 101.714 192.955 102.609 193.397 103.782C193.844 104.95 194.068 106.361 194.068 108.017C194.068 109.682 193.847 111.103 193.405 112.281C192.962 113.454 192.323 114.351 191.488 114.972C190.653 115.589 189.65 115.897 188.477 115.897ZM188.477 113.906C189.51 113.906 190.318 113.402 190.9 112.393C191.486 111.384 191.779 109.925 191.779 108.017C191.779 106.749 191.645 105.678 191.377 104.803C191.113 103.924 190.733 103.258 190.236 102.805C189.744 102.348 189.157 102.119 188.477 102.119C187.448 102.119 186.64 102.626 186.054 103.64C185.467 104.654 185.171 106.113 185.166 108.017C185.166 109.289 185.298 110.365 185.562 111.245C185.83 112.119 186.21 112.783 186.702 113.235C187.194 113.683 187.786 113.906 188.477 113.906ZM209.264 115.852C208.24 115.852 207.326 115.676 206.52 115.323C205.72 114.97 205.087 114.48 204.619 113.854C204.157 113.223 203.909 112.492 203.874 111.662H206.215C206.245 112.114 206.396 112.507 206.67 112.84C206.948 113.168 207.311 113.422 207.758 113.601C208.205 113.779 208.702 113.869 209.249 113.869C209.851 113.869 210.382 113.765 210.845 113.556C211.312 113.347 211.677 113.056 211.94 112.684C212.204 112.306 212.336 111.871 212.336 111.379C212.336 110.867 212.204 110.417 211.94 110.029C211.682 109.637 211.302 109.329 210.8 109.105C210.303 108.881 209.701 108.77 208.996 108.77H207.706V106.891H208.996C209.562 106.891 210.059 106.789 210.487 106.585C210.919 106.381 211.257 106.098 211.501 105.735C211.744 105.367 211.866 104.937 211.866 104.445C211.866 103.973 211.759 103.563 211.545 103.215C211.337 102.862 211.038 102.587 210.651 102.388C210.268 102.189 209.816 102.09 209.294 102.09C208.797 102.09 208.332 102.182 207.9 102.365C207.472 102.544 207.124 102.803 206.856 103.141C206.588 103.474 206.443 103.874 206.424 104.341H204.194C204.219 103.516 204.463 102.79 204.925 102.164C205.392 101.538 206.009 101.048 206.774 100.695C207.539 100.343 208.389 100.166 209.324 100.166C210.303 100.166 211.148 100.357 211.858 100.74C212.574 101.118 213.126 101.622 213.514 102.254C213.906 102.885 214.1 103.576 214.095 104.326C214.1 105.181 213.861 105.907 213.379 106.503C212.902 107.1 212.266 107.5 211.471 107.703V107.823C212.485 107.977 213.27 108.379 213.827 109.03C214.388 109.682 214.667 110.489 214.662 111.453C214.667 112.293 214.433 113.046 213.961 113.712C213.494 114.378 212.855 114.903 212.045 115.285C211.235 115.663 210.308 115.852 209.264 115.852ZM223.359 115.852C222.425 115.852 221.585 115.673 220.839 115.315C220.099 114.952 219.507 114.455 219.065 113.824C218.623 113.193 218.387 112.472 218.357 111.662H220.593C220.648 112.318 220.939 112.858 221.466 113.28C221.993 113.702 222.624 113.914 223.359 113.914C223.946 113.914 224.465 113.779 224.918 113.511C225.375 113.238 225.733 112.862 225.991 112.385C226.254 111.908 226.386 111.364 226.386 110.753C226.386 110.131 226.252 109.577 225.984 109.09C225.715 108.603 225.345 108.22 224.873 107.942C224.406 107.664 223.869 107.522 223.262 107.517C222.8 107.517 222.335 107.597 221.868 107.756C221.401 107.915 221.023 108.123 220.735 108.382L218.625 108.069L219.483 100.375H227.877V102.35H221.399L220.914 106.622H221.003C221.302 106.334 221.697 106.093 222.189 105.899C222.686 105.705 223.218 105.608 223.784 105.608C224.714 105.608 225.541 105.83 226.267 106.272C226.998 106.714 227.572 107.318 227.989 108.084C228.412 108.844 228.62 109.719 228.615 110.708C228.62 111.697 228.397 112.579 227.944 113.355C227.497 114.13 226.876 114.741 226.081 115.189C225.29 115.631 224.383 115.852 223.359 115.852ZM237.494 115.897C236.316 115.892 235.309 115.581 234.474 114.965C233.639 114.349 233.001 113.451 232.558 112.274C232.116 111.096 231.895 109.677 231.895 108.017C231.895 106.361 232.116 104.947 232.558 103.774C233.006 102.601 233.647 101.707 234.482 101.091C235.322 100.474 236.326 100.166 237.494 100.166C238.662 100.166 239.663 100.477 240.498 101.098C241.333 101.714 241.972 102.609 242.414 103.782C242.862 104.95 243.085 106.361 243.085 108.017C243.085 109.682 242.864 111.103 242.422 112.281C241.979 113.454 241.341 114.351 240.506 114.972C239.671 115.589 238.667 115.897 237.494 115.897ZM237.494 113.906C238.528 113.906 239.335 113.402 239.917 112.393C240.503 111.384 240.796 109.925 240.796 108.017C240.796 106.749 240.662 105.678 240.394 104.803C240.13 103.924 239.75 103.258 239.253 102.805C238.761 102.348 238.175 102.119 237.494 102.119C236.465 102.119 235.657 102.626 235.071 103.64C234.484 104.654 234.189 106.113 234.184 108.017C234.184 109.289 234.315 110.365 234.579 111.245C234.847 112.119 235.227 112.783 235.719 113.235C236.211 113.683 236.803 113.906 237.494 113.906ZM246.674 115.643L253.339 102.462V102.35H245.63V100.375H255.725V102.418L249.082 115.643H246.674Z" fill="white"/>
<path d="M30.2514 25.6607C30.0112 23.9842 28.4675 22.692 26.6836 22.692C23.459 22.692 22.224 25.5559 22.224 28.5247C22.224 31.3537 23.4247 34.2177 26.6836 34.2177C28.8792 34.2177 30.1142 32.646 30.3886 30.4107H33.8877C33.5104 34.6368 30.6973 37.3611 26.6836 37.3611C21.6065 37.3611 18.6219 33.4493 18.6219 28.5596C18.6219 23.5302 21.6065 19.5835 26.6836 19.5835C30.2857 19.5835 33.3045 21.7839 33.7505 25.6956H30.2514V25.6607Z" fill="white"/>
<path d="M35.4998 19.9675H38.7587V36.9418H35.4998V19.9675Z" fill="white"/>
<path d="M44.0073 31.5982C44.1102 33.7288 45.105 34.7067 46.9232 34.7067C48.2268 34.7067 49.2903 33.8685 49.4961 33.1001H52.3777C51.4515 35.999 49.4961 37.2214 46.8203 37.2214C43.081 37.2214 40.7826 34.567 40.7826 30.76C40.7826 27.0927 43.2526 24.2637 46.8203 24.2637C50.8683 24.2637 52.7894 27.7563 52.5835 31.5633H44.0073V31.5982ZM49.3246 29.4677C49.0158 27.7563 48.3297 26.8482 46.7174 26.8482C44.6591 26.8482 44.0759 28.5247 44.0073 29.4677H49.3246Z" fill="white"/>
<path d="M61.0569 36.9418H57.4206L53.3726 24.6477H56.7688L59.273 33.0301H59.3073L61.8116 24.6477H65.0363L61.0569 36.9418Z" fill="white"/>
<path d="M69.0845 31.5982C69.1875 33.7288 70.1823 34.7067 72.0005 34.7067C73.3041 34.7067 74.3675 33.8685 74.5734 33.1001H77.455C76.5287 35.999 74.5734 37.2214 71.8976 37.2214C68.1583 37.2214 65.8599 34.567 65.8599 30.76C65.8599 27.0927 68.2955 24.2637 71.8976 24.2637C75.9456 24.2637 77.8666 27.7563 77.6608 31.5633H69.0845V31.5982ZM74.4018 29.4677C74.0931 27.7563 73.407 26.8482 71.7946 26.8482C69.7363 26.8482 69.1188 28.5247 69.0845 29.4677H74.4018Z" fill="white"/>
<path d="M79.5819 24.6476H82.6694V26.9178H82.7037C83.0124 26.1494 83.5613 25.4858 84.2131 25.0318C84.8992 24.5778 85.6539 24.2983 86.4772 24.2983C86.7174 24.2983 86.9575 24.3333 87.1976 24.4031V27.5465C86.8203 27.4767 86.4086 27.4417 86.0313 27.4417C83.6642 27.4417 82.8066 29.223 82.8066 31.3884V36.9417H79.5476V24.6476H79.5819Z" fill="white"/>
<path d="M100.542 25.067C100.096 22.657 98.2439 21.4695 95.9455 21.4695C92.0347 21.4695 90.388 24.7875 90.388 28.35C90.388 32.2269 92.0347 35.4401 95.9455 35.4401C98.8271 35.4401 100.439 33.3445 100.68 30.5504H102.841C102.429 34.7765 99.8905 37.3611 95.7739 37.3611C90.6968 37.3611 88.1925 33.4493 88.1925 28.5247C88.1925 23.5651 90.9026 19.5835 95.9455 19.5835C99.376 19.5835 102.189 21.4695 102.669 25.1019H100.542V25.067Z" fill="white"/>
<path d="M115.739 36.9068C115.328 37.1513 114.813 37.256 114.333 37.256C113.338 37.256 112.686 36.6972 112.686 35.37C111.623 36.6623 110.182 37.256 108.501 37.256C106.34 37.256 104.59 36.2432 104.59 33.7983C104.59 31.0042 106.58 30.4104 108.604 30.0263C110.765 29.6071 112.583 29.7468 112.583 28.2101C112.583 26.4638 111.177 26.1494 109.942 26.1494C108.295 26.1494 107.094 26.6733 106.992 28.4895H105.036C105.139 25.4509 107.403 24.3682 110.045 24.3682C112.172 24.3682 114.504 24.8571 114.504 27.756V34.0777C114.504 35.0207 114.504 35.4399 115.122 35.4399C115.328 35.4399 115.534 35.4049 115.705 35.3351V36.9068H115.739ZM112.583 30.5851C111.829 31.1439 110.353 31.1788 109.05 31.4233C107.746 31.6678 106.683 32.1218 106.683 33.6237C106.683 34.9509 107.781 35.4399 108.981 35.4399C111.554 35.4399 112.618 33.7634 112.618 32.6457V30.5851H112.583Z" fill="white"/>
<path d="M117.489 24.6477H119.341V27.2322H119.376C120.302 25.2763 121.64 24.2984 123.732 24.3682V26.4988C120.576 26.4988 119.444 28.3499 119.444 31.4583V36.9418H117.489V24.6477Z" fill="white"/>
<path d="M135.362 36.9418H133.407V35.2653H133.372C132.72 36.6275 131.211 37.2212 129.599 37.2212C125.962 37.2212 124.144 34.2175 124.144 30.7598C124.144 27.3021 125.928 24.3683 129.564 24.3683C130.765 24.3683 132.515 24.8223 133.407 26.2892H133.441V19.9675H135.396L135.362 36.9418ZM129.873 35.44C132.48 35.44 133.509 33.0999 133.509 30.7947C133.509 28.3848 132.446 26.1495 129.77 26.1495C127.094 26.1495 126.202 28.4896 126.202 30.8995C126.202 33.2047 127.369 35.44 129.873 35.44Z" fill="white"/>
<path d="M139.582 33.0648C139.65 34.881 141.16 35.4398 142.772 35.4398C143.973 35.4398 145.654 35.1604 145.654 33.6237C145.654 32.0869 143.733 31.8075 141.777 31.3534C139.822 30.8994 137.901 30.2358 137.901 27.8957C137.901 25.4159 140.268 24.4031 142.326 24.4031C144.933 24.4031 147.026 25.2413 147.197 28.245H145.242C145.105 26.6733 143.767 26.1843 142.498 26.1843C141.331 26.1843 139.993 26.5336 139.993 27.756C139.993 29.2229 142.052 29.4325 143.87 29.8865C145.825 30.3406 147.746 31.0042 147.746 33.3792C147.746 36.313 145.105 37.256 142.703 37.256C140.062 37.256 137.798 36.1384 137.695 33.0998L139.582 33.0648Z" fill="white"/>
<path d="M258.516 155.94H247.038V176.567H258.516V155.94Z" fill="#FF5F00"/>
<path d="M247.767 166.254C247.765 164.268 248.215 162.307 249.083 160.52C249.951 158.733 251.214 157.167 252.777 155.94C250.842 154.419 248.518 153.473 246.07 153.211C243.623 152.948 241.151 153.379 238.937 154.455C236.723 155.531 234.856 157.208 233.55 159.294C232.244 161.381 231.552 163.793 231.552 166.254C231.552 168.716 232.244 171.128 233.55 173.214C234.856 175.301 236.723 176.978 238.937 178.053C241.151 179.129 243.623 179.56 246.07 179.298C248.518 179.035 250.842 178.089 252.777 176.568C251.214 175.341 249.951 173.775 249.083 171.989C248.215 170.202 247.765 168.241 247.767 166.254Z" fill="#EB001B"/>
<path d="M274.002 166.254C274.002 168.716 273.309 171.127 272.003 173.214C270.698 175.3 268.831 176.977 266.617 178.053C264.403 179.129 261.931 179.56 259.484 179.298C257.036 179.035 254.712 178.089 252.777 176.568C254.338 175.34 255.601 173.774 256.469 171.987C257.337 170.201 257.788 168.24 257.788 166.254C257.788 164.268 257.337 162.308 256.469 160.521C255.601 158.734 254.338 157.168 252.777 155.94C254.712 154.419 257.036 153.473 259.484 153.211C261.931 152.948 264.403 153.379 266.617 154.455C268.831 155.531 270.698 157.208 272.003 159.294C273.309 161.381 274.002 163.793 274.002 166.254Z" fill="#F79E1B"/>
<path d="M272.75 174.383V173.96H272.92V173.874H272.487V173.96H272.657V174.383H272.75ZM273.592 174.383V173.874H273.459L273.306 174.224L273.153 173.874H273.02V174.383H273.114V173.999L273.258 174.33H273.355L273.498 173.998V174.383H273.592Z" fill="#F79E1B"/>
<path d="M19.5268 67.0034V58.2761H22.5779C23.1859 58.2761 23.6873 58.3813 24.0822 58.5915C24.4771 58.7989 24.7711 59.0787 24.9643 59.431C25.1575 59.7804 25.2541 60.1682 25.2541 60.5943C25.2541 60.9693 25.1873 61.279 25.0538 61.5233C24.9231 61.7676 24.7498 61.9608 24.5339 62.1028C24.3208 62.2449 24.0893 62.35 23.8393 62.4182V62.5034C24.1063 62.5205 24.3748 62.6142 24.6447 62.7847C24.9146 62.9551 25.1404 63.1994 25.3222 63.5176C25.5041 63.8358 25.595 64.225 25.595 64.6852C25.595 65.1227 25.4955 65.5162 25.2967 65.8656C25.0978 66.2151 24.7839 66.4921 24.3549 66.6966C23.9259 66.9011 23.3677 67.0034 22.6802 67.0034H19.5268ZM20.5836 66.0659H22.6802C23.3705 66.0659 23.8606 65.9324 24.1504 65.6653C24.443 65.3955 24.5893 65.0688 24.5893 64.6852C24.5893 64.3898 24.514 64.1171 24.3634 63.8671C24.2129 63.6142 23.9984 63.4125 23.72 63.2619C23.4416 63.1085 23.112 63.0318 22.7313 63.0318H20.5836V66.0659ZM20.5836 62.1114H22.5438C22.862 62.1114 23.1489 62.0489 23.4046 61.9239C23.6632 61.7989 23.8677 61.6227 24.0183 61.3955C24.1717 61.1682 24.2484 60.9011 24.2484 60.5943C24.2484 60.2108 24.1149 59.8855 23.8478 59.6185C23.5808 59.3486 23.1575 59.2136 22.5779 59.2136H20.5836V62.1114ZM31.3201 64.3273V60.458H32.3258V67.0034H31.3201V65.8955H31.2519C31.0985 66.2278 30.8599 66.5105 30.536 66.7435C30.2122 66.9736 29.8031 67.0886 29.3087 67.0886C28.8997 67.0886 28.536 66.9992 28.2178 66.8202C27.8997 66.6384 27.6497 66.3656 27.4678 66.002C27.286 65.6355 27.1951 65.1739 27.1951 64.6171V60.458H28.2008V64.5489C28.2008 65.0261 28.3343 65.4068 28.6014 65.6909C28.8712 65.975 29.215 66.1171 29.6326 66.1171C29.8826 66.1171 30.1369 66.0531 30.3954 65.9253C30.6568 65.7975 30.8755 65.6014 31.0516 65.3372C31.2306 65.073 31.3201 64.7364 31.3201 64.3273ZM38.8041 61.9239L37.9007 62.1796C37.8439 62.029 37.7601 61.8827 37.6493 61.7406C37.5413 61.5957 37.3936 61.4764 37.2061 61.3827C37.0186 61.2889 36.7786 61.2421 36.486 61.2421C36.0854 61.2421 35.7516 61.3344 35.4845 61.519C35.2203 61.7009 35.0882 61.9324 35.0882 62.2136C35.0882 62.4636 35.1791 62.6611 35.361 62.806C35.5428 62.9509 35.8269 63.0716 36.2132 63.1682L37.1848 63.4068C37.77 63.5489 38.2061 63.7662 38.4931 64.0588C38.78 64.3486 38.9235 64.7222 38.9235 65.1796C38.9235 65.5546 38.8155 65.8898 38.5996 66.1852C38.3865 66.4807 38.0882 66.7136 37.7047 66.8841C37.3212 67.0546 36.8752 67.1398 36.3666 67.1398C35.699 67.1398 35.1465 66.9949 34.709 66.7051C34.2715 66.4153 33.9945 65.9921 33.878 65.4352L34.8325 65.1966C34.9235 65.5489 35.0953 65.8131 35.3482 65.9892C35.6038 66.1653 35.9377 66.2534 36.3496 66.2534C36.8183 66.2534 37.1905 66.154 37.4661 65.9551C37.7445 65.7534 37.8837 65.5119 37.8837 65.2307C37.8837 65.0034 37.8041 64.8131 37.645 64.6597C37.486 64.5034 37.2416 64.3869 36.9121 64.3102L35.8212 64.0546C35.2217 63.9125 34.7814 63.6923 34.5002 63.394C34.2217 63.0929 34.0825 62.7165 34.0825 62.2648C34.0825 61.8955 34.1862 61.5688 34.3936 61.2847C34.6038 61.0006 34.8894 60.7776 35.2502 60.6156C35.6138 60.4537 36.0257 60.3727 36.486 60.3727C37.1337 60.3727 37.6422 60.5148 38.0115 60.7989C38.3837 61.083 38.6479 61.458 38.8041 61.9239ZM40.4373 67.0034V60.458H41.443V67.0034H40.4373ZM40.9487 59.3671C40.7526 59.3671 40.5836 59.3003 40.4416 59.1668C40.3024 59.0332 40.2328 58.8727 40.2328 58.6852C40.2328 58.4977 40.3024 58.3372 40.4416 58.2037C40.5836 58.0702 40.7526 58.0034 40.9487 58.0034C41.1447 58.0034 41.3123 58.0702 41.4515 58.2037C41.5936 58.3372 41.6646 58.4977 41.6646 58.6852C41.6646 58.8727 41.5936 59.0332 41.4515 59.1668C41.3123 59.3003 41.1447 59.3671 40.9487 59.3671ZM44.2906 63.0659V67.0034H43.285V60.458H44.2565V61.4807H44.3418C44.4952 61.1483 44.7281 60.8813 45.0406 60.6796C45.3531 60.475 45.7565 60.3727 46.2509 60.3727C46.694 60.3727 47.0818 60.4636 47.4142 60.6455C47.7466 60.8244 48.0051 61.0972 48.1898 61.4636C48.3744 61.8273 48.4668 62.2875 48.4668 62.8443V67.0034H47.4611V62.9125C47.4611 62.3983 47.3276 61.9977 47.0605 61.7108C46.7935 61.421 46.427 61.2761 45.9611 61.2761C45.6401 61.2761 45.3531 61.3457 45.1003 61.485C44.8503 61.6242 44.6529 61.8273 44.508 62.0943C44.3631 62.3614 44.2906 62.6852 44.2906 63.0659ZM53.0488 67.1398C52.4181 67.1398 51.8741 67.0006 51.4167 66.7222C50.9622 66.4409 50.6113 66.0489 50.3641 65.546C50.1198 65.0403 49.9977 64.4523 49.9977 63.7818C49.9977 63.1114 50.1198 62.5205 50.3641 62.0091C50.6113 61.4949 50.9551 61.0943 51.3954 60.8074C51.8386 60.5176 52.3556 60.3727 52.9465 60.3727C53.2874 60.3727 53.6241 60.4296 53.9565 60.5432C54.2889 60.6568 54.5914 60.8415 54.8641 61.0972C55.1369 61.35 55.3542 61.6852 55.5161 62.1028C55.6781 62.5205 55.759 63.0347 55.759 63.6455V64.0716H50.7136V63.2023H54.7363C54.7363 62.833 54.6624 62.5034 54.5147 62.2136C54.3698 61.9239 54.1624 61.6952 53.8926 61.5276C53.6255 61.36 53.3102 61.2761 52.9465 61.2761C52.546 61.2761 52.1994 61.3756 51.9068 61.5744C51.617 61.7705 51.394 62.0261 51.2377 62.3415C51.0815 62.6568 51.0034 62.9949 51.0034 63.3557V63.9352C51.0034 64.4296 51.0886 64.8486 51.259 65.1923C51.4323 65.5332 51.6724 65.7932 51.9792 65.9722C52.286 66.1483 52.6426 66.2364 53.0488 66.2364C53.313 66.2364 53.5516 66.1994 53.7647 66.1256C53.9806 66.0489 54.1667 65.9352 54.323 65.7847C54.4792 65.6313 54.5999 65.4409 54.6852 65.2136L55.6568 65.4864C55.5545 65.8159 55.3826 66.1057 55.1411 66.3557C54.8997 66.6028 54.6014 66.796 54.2462 66.9352C53.8911 67.0716 53.492 67.1398 53.0488 67.1398ZM61.9252 61.9239L61.0218 62.1796C60.965 62.029 60.8812 61.8827 60.7704 61.7406C60.6624 61.5957 60.5147 61.4764 60.3272 61.3827C60.1397 61.2889 59.8997 61.2421 59.607 61.2421C59.2065 61.2421 58.8727 61.3344 58.6056 61.519C58.3414 61.7009 58.2093 61.9324 58.2093 62.2136C58.2093 62.4636 58.3002 62.6611 58.482 62.806C58.6639 62.9509 58.948 63.0716 59.3343 63.1682L60.3059 63.4068C60.8911 63.5489 61.3272 63.7662 61.6141 64.0588C61.9011 64.3486 62.0445 64.7222 62.0445 65.1796C62.0445 65.5546 61.9366 65.8898 61.7207 66.1852C61.5076 66.4807 61.2093 66.7136 60.8258 66.8841C60.4423 67.0546 59.9962 67.1398 59.4877 67.1398C58.8201 67.1398 58.2676 66.9949 57.8301 66.7051C57.3926 66.4153 57.1156 65.9921 56.9991 65.4352L57.9536 65.1966C58.0445 65.5489 58.2164 65.8131 58.4693 65.9892C58.7249 66.1653 59.0587 66.2534 59.4707 66.2534C59.9394 66.2534 60.3116 66.154 60.5872 65.9551C60.8656 65.7534 61.0048 65.5119 61.0048 65.2307C61.0048 65.0034 60.9252 64.8131 60.7661 64.6597C60.607 64.5034 60.3627 64.3869 60.0332 64.3102L58.9423 64.0546C58.3428 63.9125 57.9025 63.6923 57.6212 63.394C57.3428 63.0929 57.2036 62.7165 57.2036 62.2648C57.2036 61.8955 57.3073 61.5688 57.5147 61.2847C57.7249 61.0006 58.0105 60.7776 58.3712 60.6156C58.7349 60.4537 59.1468 60.3727 59.607 60.3727C60.2548 60.3727 60.7633 60.5148 61.1326 60.7989C61.5048 61.083 61.769 61.458 61.9252 61.9239ZM68.1948 61.9239L67.2913 62.1796C67.2345 62.029 67.1507 61.8827 67.0399 61.7406C66.932 61.5957 66.7842 61.4764 66.5967 61.3827C66.4092 61.2889 66.1692 61.2421 65.8766 61.2421C65.476 61.2421 65.1422 61.3344 64.8752 61.519C64.611 61.7009 64.4788 61.9324 64.4788 62.2136C64.4788 62.4636 64.5698 62.6611 64.7516 62.806C64.9334 62.9509 65.2175 63.0716 65.6038 63.1682L66.5754 63.4068C67.1607 63.5489 67.5967 63.7662 67.8837 64.0588C68.1706 64.3486 68.3141 64.7222 68.3141 65.1796C68.3141 65.5546 68.2061 65.8898 67.9902 66.1852C67.7771 66.4807 67.4788 66.7136 67.0953 66.8841C66.7118 67.0546 66.2658 67.1398 65.7573 67.1398C65.0896 67.1398 64.5371 66.9949 64.0996 66.7051C63.6621 66.4153 63.3851 65.9921 63.2686 65.4352L64.2232 65.1966C64.3141 65.5489 64.486 65.8131 64.7388 65.9892C64.9945 66.1653 65.3283 66.2534 65.7402 66.2534C66.209 66.2534 66.5811 66.154 66.8567 65.9551C67.1351 65.7534 67.2743 65.5119 67.2743 65.2307C67.2743 65.0034 67.1948 64.8131 67.0357 64.6597C66.8766 64.5034 66.6323 64.3869 66.3027 64.3102L65.2118 64.0546C64.6124 63.9125 64.172 63.6923 63.8908 63.394C63.6124 63.0929 63.4732 62.7165 63.4732 62.2648C63.4732 61.8955 63.5769 61.5688 63.7842 61.2847C63.9945 61.0006 64.28 60.7776 64.6408 60.6156C65.0044 60.4537 65.4163 60.3727 65.8766 60.3727C66.5243 60.3727 67.0328 60.5148 67.4021 60.7989C67.7743 61.083 68.0385 61.458 68.1948 61.9239ZM73.3393 67.0034V58.2761H78.6063V59.2136H74.3961V62.1625H78.3336V63.1H74.3961V66.0659H78.6745V67.0034H73.3393ZM81.1248 60.458L82.693 63.1341L84.2612 60.458H85.4203L83.3066 63.7307L85.4203 67.0034H84.2612L82.693 64.4636L81.1248 67.0034H79.9657L82.0453 63.7307L79.9657 60.458H81.1248ZM86.8553 69.458V60.458H87.8269V61.4977H87.9462C88.02 61.3841 88.1223 61.2392 88.253 61.0631C88.3865 60.8841 88.5769 60.725 88.824 60.5858C89.074 60.4438 89.4121 60.3727 89.8382 60.3727C90.3894 60.3727 90.8752 60.5105 91.2956 60.7861C91.7161 61.0617 92.0442 61.4523 92.28 61.958C92.5158 62.4636 92.6337 63.0602 92.6337 63.7477C92.6337 64.4409 92.5158 65.0418 92.28 65.5503C92.0442 66.056 91.7175 66.448 91.2999 66.7264C90.8823 67.002 90.4007 67.1398 89.8553 67.1398C89.4348 67.1398 89.0982 67.0702 88.8453 66.931C88.5925 66.7889 88.3979 66.6284 88.2615 66.4494C88.1252 66.2676 88.02 66.1171 87.9462 65.9977H87.861V69.458H86.8553ZM87.8439 63.7307C87.8439 64.225 87.9163 64.6611 88.0612 65.0389C88.2061 65.4139 88.4178 65.708 88.6962 65.921C88.9746 66.1313 89.3155 66.2364 89.7189 66.2364C90.1394 66.2364 90.4902 66.1256 90.7715 65.904C91.0556 65.6796 91.2686 65.3784 91.4107 65.0006C91.5556 64.6199 91.628 64.1966 91.628 63.7307C91.628 63.2705 91.557 62.8557 91.4149 62.4864C91.2757 62.1142 91.0641 61.8202 90.78 61.6043C90.4987 61.3855 90.145 61.2761 89.7189 61.2761C89.3098 61.2761 88.9661 61.3798 88.6877 61.5872C88.4092 61.7918 88.199 62.0787 88.057 62.448C87.9149 62.8145 87.8439 63.2421 87.8439 63.7307ZM96.9121 67.1398C96.2814 67.1398 95.7374 67.0006 95.28 66.7222C94.8254 66.4409 94.4746 66.0489 94.2274 65.546C93.9831 65.0403 93.861 64.4523 93.861 63.7818C93.861 63.1114 93.9831 62.5205 94.2274 62.0091C94.4746 61.4949 94.8183 61.0943 95.2587 60.8074C95.7019 60.5176 96.2189 60.3727 96.8098 60.3727C97.1507 60.3727 97.4874 60.4296 97.8198 60.5432C98.1521 60.6568 98.4547 60.8415 98.7274 61.0972C99.0002 61.35 99.2175 61.6852 99.3794 62.1028C99.5413 62.5205 99.6223 63.0347 99.6223 63.6455V64.0716H94.5769V63.2023H98.5996C98.5996 62.833 98.5257 62.5034 98.378 62.2136C98.2331 61.9239 98.0257 61.6952 97.7558 61.5276C97.4888 61.36 97.1735 61.2761 96.8098 61.2761C96.4092 61.2761 96.0627 61.3756 95.77 61.5744C95.4803 61.7705 95.2573 62.0261 95.101 62.3415C94.9448 62.6568 94.8666 62.9949 94.8666 63.3557V63.9352C94.8666 64.4296 94.9519 64.8486 95.1223 65.1923C95.2956 65.5332 95.5357 65.7932 95.8425 65.9722C96.1493 66.1483 96.5058 66.2364 96.9121 66.2364C97.1763 66.2364 97.4149 66.1994 97.628 66.1256C97.8439 66.0489 98.03 65.9352 98.1862 65.7847C98.3425 65.6313 98.4632 65.4409 98.5485 65.2136L99.52 65.4864C99.4178 65.8159 99.2459 66.1057 99.0044 66.3557C98.7629 66.6028 98.4646 66.796 98.1095 66.9352C97.7544 67.0716 97.3553 67.1398 96.9121 67.1398ZM102.158 63.0659V67.0034H101.152V60.458H102.124V61.4807H102.209C102.362 61.1483 102.595 60.8813 102.908 60.6796C103.22 60.475 103.624 60.3727 104.118 60.3727C104.561 60.3727 104.949 60.4636 105.281 60.6455C105.614 60.8244 105.872 61.0972 106.057 61.4636C106.242 61.8273 106.334 62.2875 106.334 62.8443V67.0034H105.328V62.9125C105.328 62.3983 105.195 61.9977 104.928 61.7108C104.661 61.421 104.294 61.2761 103.828 61.2761C103.507 61.2761 103.22 61.3457 102.967 61.485C102.717 61.6242 102.52 61.8273 102.375 62.0943C102.23 62.3614 102.158 62.6852 102.158 63.0659ZM112.808 61.9239L111.905 62.1796C111.848 62.029 111.764 61.8827 111.653 61.7406C111.545 61.5957 111.398 61.4764 111.21 61.3827C111.023 61.2889 110.782 61.2421 110.49 61.2421C110.089 61.2421 109.755 61.3344 109.488 61.519C109.224 61.7009 109.092 61.9324 109.092 62.2136C109.092 62.4636 109.183 62.6611 109.365 62.806C109.547 62.9509 109.831 63.0716 110.217 63.1682L111.189 63.4068C111.774 63.5489 112.21 63.7662 112.497 64.0588C112.784 64.3486 112.927 64.7222 112.927 65.1796C112.927 65.5546 112.819 65.8898 112.603 66.1852C112.39 66.4807 112.092 66.7136 111.709 66.8841C111.325 67.0546 110.879 67.1398 110.371 67.1398C109.703 67.1398 109.15 66.9949 108.713 66.7051C108.275 66.4153 107.998 65.9921 107.882 65.4352L108.836 65.1966C108.927 65.5489 109.099 65.8131 109.352 65.9892C109.608 66.1653 109.942 66.2534 110.353 66.2534C110.822 66.2534 111.194 66.154 111.47 65.9551C111.748 65.7534 111.888 65.5119 111.888 65.2307C111.888 65.0034 111.808 64.8131 111.649 64.6597C111.49 64.5034 111.246 64.3869 110.916 64.3102L109.825 64.0546C109.226 63.9125 108.785 63.6923 108.504 63.394C108.226 63.0929 108.086 62.7165 108.086 62.2648C108.086 61.8955 108.19 61.5688 108.398 61.2847C108.608 61.0006 108.893 60.7776 109.254 60.6156C109.618 60.4537 110.03 60.3727 110.49 60.3727C111.138 60.3727 111.646 60.5148 112.015 60.7989C112.388 61.083 112.652 61.458 112.808 61.9239ZM117.186 67.1398C116.555 67.1398 116.011 67.0006 115.553 66.7222C115.099 66.4409 114.748 66.0489 114.501 65.546C114.257 65.0403 114.134 64.4523 114.134 63.7818C114.134 63.1114 114.257 62.5205 114.501 62.0091C114.748 61.4949 115.092 61.0943 115.532 60.8074C115.975 60.5176 116.492 60.3727 117.083 60.3727C117.424 60.3727 117.761 60.4296 118.093 60.5432C118.426 60.6568 118.728 60.8415 119.001 61.0972C119.274 61.35 119.491 61.6852 119.653 62.1028C119.815 62.5205 119.896 63.0347 119.896 63.6455V64.0716H114.85V63.2023H118.873C118.873 62.833 118.799 62.5034 118.651 62.2136C118.507 61.9239 118.299 61.6952 118.029 61.5276C117.762 61.36 117.447 61.2761 117.083 61.2761C116.683 61.2761 116.336 61.3756 116.043 61.5744C115.754 61.7705 115.531 62.0261 115.374 62.3415C115.218 62.6568 115.14 62.9949 115.14 63.3557V63.9352C115.14 64.4296 115.225 64.8486 115.396 65.1923C115.569 65.5332 115.809 65.7932 116.116 65.9722C116.423 66.1483 116.779 66.2364 117.186 66.2364C117.45 66.2364 117.688 66.1994 117.901 66.1256C118.117 66.0489 118.303 65.9352 118.46 65.7847C118.616 65.6313 118.737 65.4409 118.822 65.2136L119.793 65.4864C119.691 65.8159 119.519 66.1057 119.278 66.3557C119.036 66.6028 118.738 66.796 118.383 66.9352C118.028 67.0716 117.629 67.1398 117.186 67.1398ZM124.937 58.2761H126.198L129.164 65.5205H129.266L132.232 58.2761H133.494V67.0034H132.505V60.3727H132.42L129.693 67.0034H128.738L126.011 60.3727H125.926V67.0034H124.937V58.2761ZM137.402 67.1568C136.988 67.1568 136.611 67.0787 136.273 66.9225C135.935 66.7634 135.667 66.5347 135.468 66.2364C135.269 65.9352 135.17 65.5716 135.17 65.1455C135.17 64.7705 135.243 64.4665 135.391 64.2335C135.539 63.9977 135.736 63.8131 135.983 63.6796C136.231 63.546 136.503 63.4466 136.802 63.3813C137.103 63.3131 137.405 63.2591 137.709 63.2193C138.107 63.1682 138.429 63.1298 138.677 63.1043C138.927 63.0759 139.108 63.029 139.222 62.9636C139.339 62.8983 139.397 62.7847 139.397 62.6227V62.5886C139.397 62.1682 139.282 61.8415 139.052 61.6085C138.824 61.3756 138.479 61.2591 138.016 61.2591C137.536 61.2591 137.16 61.3642 136.887 61.5744C136.614 61.7847 136.422 62.0091 136.312 62.2477L135.357 61.9068C135.527 61.5091 135.755 61.1994 136.039 60.9778C136.326 60.7534 136.638 60.5972 136.976 60.5091C137.317 60.4182 137.652 60.3727 137.982 60.3727C138.192 60.3727 138.434 60.3983 138.706 60.4494C138.982 60.4977 139.248 60.5986 139.503 60.752C139.762 60.9054 139.976 61.1369 140.147 61.4466C140.317 61.7563 140.402 62.171 140.402 62.6909V67.0034H139.397V66.1171H139.346C139.277 66.2591 139.164 66.4111 139.005 66.573C138.846 66.735 138.634 66.8727 138.37 66.9864C138.106 67.1 137.783 67.1568 137.402 67.1568ZM137.556 66.2534C137.954 66.2534 138.289 66.1753 138.562 66.019C138.837 65.8628 139.045 65.6611 139.184 65.4139C139.326 65.1668 139.397 64.9068 139.397 64.6341V63.7136C139.354 63.7648 139.26 63.8117 139.116 63.8543C138.974 63.894 138.809 63.9296 138.621 63.9608C138.437 63.9892 138.256 64.0148 138.08 64.0375C137.907 64.0574 137.766 64.0744 137.658 64.0886C137.397 64.1227 137.152 64.1781 136.925 64.2548C136.701 64.3287 136.519 64.4409 136.38 64.5915C136.243 64.7392 136.175 64.9409 136.175 65.1966C136.175 65.546 136.304 65.8102 136.563 65.9892C136.824 66.1653 137.155 66.2534 137.556 66.2534ZM146.874 61.9239L145.971 62.1796C145.914 62.029 145.83 61.8827 145.72 61.7406C145.612 61.5957 145.464 61.4764 145.276 61.3827C145.089 61.2889 144.849 61.2421 144.556 61.2421C144.156 61.2421 143.822 61.3344 143.555 61.519C143.291 61.7009 143.159 61.9324 143.159 62.2136C143.159 62.4636 143.249 62.6611 143.431 62.806C143.613 62.9509 143.897 63.0716 144.284 63.1682L145.255 63.4068C145.84 63.5489 146.276 63.7662 146.563 64.0588C146.85 64.3486 146.994 64.7222 146.994 65.1796C146.994 65.5546 146.886 65.8898 146.67 66.1852C146.457 66.4807 146.159 66.7136 145.775 66.8841C145.391 67.0546 144.945 67.1398 144.437 67.1398C143.769 67.1398 143.217 66.9949 142.779 66.7051C142.342 66.4153 142.065 65.9921 141.948 65.4352L142.903 65.1966C142.994 65.5489 143.166 65.8131 143.418 65.9892C143.674 66.1653 144.008 66.2534 144.42 66.2534C144.889 66.2534 145.261 66.154 145.536 65.9551C145.815 65.7534 145.954 65.5119 145.954 65.2307C145.954 65.0034 145.874 64.8131 145.715 64.6597C145.556 64.5034 145.312 64.3869 144.982 64.3102L143.891 64.0546C143.292 63.9125 142.852 63.6923 142.57 63.394C142.292 63.0929 142.153 62.7165 142.153 62.2648C142.153 61.8955 142.257 61.5688 142.464 61.2847C142.674 61.0006 142.96 60.7776 143.32 60.6156C143.684 60.4537 144.096 60.3727 144.556 60.3727C145.204 60.3727 145.713 60.5148 146.082 60.7989C146.454 61.083 146.718 61.458 146.874 61.9239ZM151.354 60.458V61.3102H147.962V60.458H151.354ZM148.951 58.8898H149.956V65.1284C149.956 65.4125 149.998 65.6256 150.08 65.7676C150.165 65.9068 150.273 66.0006 150.404 66.0489C150.537 66.0943 150.678 66.1171 150.826 66.1171C150.937 66.1171 151.027 66.1114 151.099 66.1C151.17 66.0858 151.226 66.0744 151.269 66.0659L151.474 66.9693C151.405 66.9949 151.31 67.0205 151.188 67.046C151.066 67.0744 150.911 67.0886 150.724 67.0886C150.439 67.0886 150.161 67.0276 149.888 66.9054C149.618 66.7832 149.394 66.5972 149.215 66.3472C149.039 66.0972 148.951 65.7818 148.951 65.4011V58.8898ZM155.541 67.1398C154.91 67.1398 154.366 67.0006 153.909 66.7222C153.454 66.4409 153.103 66.0489 152.856 65.546C152.612 65.0403 152.49 64.4523 152.49 63.7818C152.49 63.1114 152.612 62.5205 152.856 62.0091C153.103 61.4949 153.447 61.0943 153.888 60.8074C154.331 60.5176 154.848 60.3727 155.439 60.3727C155.78 60.3727 156.116 60.4296 156.449 60.5432C156.781 60.6568 157.084 60.8415 157.356 61.0972C157.629 61.35 157.846 61.6852 158.008 62.1028C158.17 62.5205 158.251 63.0347 158.251 63.6455V64.0716H153.206V63.2023H157.228C157.228 62.833 157.155 62.5034 157.007 62.2136C156.862 61.9239 156.655 61.6952 156.385 61.5276C156.118 61.36 155.802 61.2761 155.439 61.2761C155.038 61.2761 154.692 61.3756 154.399 61.5744C154.109 61.7705 153.886 62.0261 153.73 62.3415C153.574 62.6568 153.496 62.9949 153.496 63.3557V63.9352C153.496 64.4296 153.581 64.8486 153.751 65.1923C153.925 65.5332 154.165 65.7932 154.471 65.9722C154.778 66.1483 155.135 66.2364 155.541 66.2364C155.805 66.2364 156.044 66.1994 156.257 66.1256C156.473 66.0489 156.659 65.9352 156.815 65.7847C156.971 65.6313 157.092 65.4409 157.177 65.2136L158.149 65.4864C158.047 65.8159 157.875 66.1057 157.633 66.3557C157.392 66.6028 157.094 66.796 156.738 66.9352C156.383 67.0716 155.984 67.1398 155.541 67.1398ZM159.781 67.0034V60.458H160.753V61.4466H160.821C160.94 61.1227 161.156 60.86 161.469 60.6582C161.781 60.4565 162.133 60.3557 162.525 60.3557C162.599 60.3557 162.692 60.3571 162.802 60.36C162.913 60.3628 162.997 60.3671 163.054 60.3727V61.3955C163.02 61.3869 162.942 61.3742 162.819 61.3571C162.7 61.3372 162.574 61.3273 162.44 61.3273C162.122 61.3273 161.838 61.394 161.588 61.5276C161.341 61.6582 161.145 61.8401 161 62.073C160.858 62.3031 160.787 62.5659 160.787 62.8614V67.0034H159.781ZM166.706 67.1398C166.092 67.1398 165.564 66.9949 165.121 66.7051C164.677 66.4153 164.336 66.0162 164.098 65.5077C163.859 64.9992 163.74 64.4182 163.74 63.7648C163.74 63.1 163.862 62.5134 164.106 62.0048C164.353 61.4935 164.697 61.0943 165.138 60.8074C165.581 60.5176 166.098 60.3727 166.689 60.3727C167.149 60.3727 167.564 60.458 167.933 60.6284C168.302 60.7989 168.605 61.0375 168.841 61.3443C169.077 61.6511 169.223 62.0091 169.28 62.4182H168.274C168.197 62.1199 168.027 61.8557 167.763 61.6256C167.501 61.3926 167.149 61.2761 166.706 61.2761C166.314 61.2761 165.97 61.3784 165.675 61.583C165.382 61.7847 165.153 62.0702 164.988 62.4395C164.827 62.806 164.746 63.2364 164.746 63.7307C164.746 64.2364 164.825 64.6767 164.984 65.0517C165.146 65.4267 165.373 65.7179 165.666 65.9253C165.961 66.1327 166.308 66.2364 166.706 66.2364C166.967 66.2364 167.204 66.1909 167.417 66.1C167.63 66.0091 167.811 65.8784 167.959 65.708C168.106 65.5375 168.211 65.333 168.274 65.0943H169.28C169.223 65.4807 169.082 65.8287 168.858 66.1384C168.636 66.4452 168.342 66.6895 167.976 66.8713C167.612 67.0503 167.189 67.1398 166.706 67.1398ZM172.676 67.1568C172.261 67.1568 171.885 67.0787 171.547 66.9225C171.209 66.7634 170.94 66.5347 170.741 66.2364C170.542 65.9352 170.443 65.5716 170.443 65.1455C170.443 64.7705 170.517 64.4665 170.665 64.2335C170.812 63.9977 171.01 63.8131 171.257 63.6796C171.504 63.546 171.777 63.4466 172.075 63.3813C172.376 63.3131 172.679 63.2591 172.983 63.2193C173.38 63.1682 173.703 63.1298 173.95 63.1043C174.2 63.0759 174.382 63.029 174.496 62.9636C174.612 62.8983 174.67 62.7847 174.67 62.6227V62.5886C174.67 62.1682 174.555 61.8415 174.325 61.6085C174.098 61.3756 173.753 61.2591 173.29 61.2591C172.809 61.2591 172.433 61.3642 172.16 61.5744C171.888 61.7847 171.696 62.0091 171.585 62.2477L170.63 61.9068C170.801 61.5091 171.028 61.1994 171.312 60.9778C171.599 60.7534 171.912 60.5972 172.25 60.5091C172.591 60.4182 172.926 60.3727 173.255 60.3727C173.466 60.3727 173.707 60.3983 173.98 60.4494C174.255 60.4977 174.521 60.5986 174.777 60.752C175.035 60.9054 175.25 61.1369 175.42 61.4466C175.591 61.7563 175.676 62.171 175.676 62.6909V67.0034H174.67V66.1171H174.619C174.551 66.2591 174.437 66.4111 174.278 66.573C174.119 66.735 173.907 66.8727 173.643 66.9864C173.379 67.1 173.057 67.1568 172.676 67.1568ZM172.829 66.2534C173.227 66.2534 173.562 66.1753 173.835 66.019C174.111 65.8628 174.318 65.6611 174.457 65.4139C174.599 65.1668 174.67 64.9068 174.67 64.6341V63.7136C174.628 63.7648 174.534 63.8117 174.389 63.8543C174.247 63.894 174.082 63.9296 173.895 63.9608C173.71 63.9892 173.53 64.0148 173.353 64.0375C173.18 64.0574 173.04 64.0744 172.932 64.0886C172.67 64.1227 172.426 64.1781 172.199 64.2548C171.974 64.3287 171.792 64.4409 171.653 64.5915C171.517 64.7392 171.449 64.9409 171.449 65.1966C171.449 65.546 171.578 65.8102 171.836 65.9892C172.098 66.1653 172.429 66.2534 172.829 66.2534ZM177.512 67.0034V60.458H178.483V61.4466H178.551C178.671 61.1227 178.887 60.86 179.199 60.6582C179.512 60.4565 179.864 60.3557 180.256 60.3557C180.33 60.3557 180.422 60.3571 180.533 60.36C180.644 60.3628 180.727 60.3671 180.784 60.3727V61.3955C180.75 61.3869 180.672 61.3742 180.55 61.3571C180.431 61.3372 180.304 61.3273 180.171 61.3273C179.852 61.3273 179.568 61.394 179.318 61.5276C179.071 61.6582 178.875 61.8401 178.73 62.073C178.588 62.3031 178.517 62.5659 178.517 62.8614V67.0034H177.512ZM184.249 67.1398C183.703 67.1398 183.222 67.002 182.804 66.7264C182.387 66.448 182.06 66.056 181.824 65.5503C181.588 65.0418 181.47 64.4409 181.47 63.7477C181.47 63.0602 181.588 62.4636 181.824 61.958C182.06 61.4523 182.388 61.0617 182.808 60.7861C183.229 60.5105 183.715 60.3727 184.266 60.3727C184.692 60.3727 185.029 60.4438 185.276 60.5858C185.526 60.725 185.716 60.8841 185.847 61.0631C185.98 61.2392 186.084 61.3841 186.158 61.4977H186.243V58.2761H187.249V67.0034H186.277V65.9977H186.158C186.084 66.1171 185.979 66.2676 185.842 66.4494C185.706 66.6284 185.512 66.7889 185.259 66.931C185.006 67.0702 184.669 67.1398 184.249 67.1398ZM184.385 66.2364C184.789 66.2364 185.129 66.1313 185.408 65.921C185.686 65.708 185.898 65.4139 186.043 65.0389C186.188 64.6611 186.26 64.225 186.26 63.7307C186.26 63.2421 186.189 62.8145 186.047 62.448C185.905 62.0787 185.695 61.7918 185.416 61.5872C185.138 61.3798 184.794 61.2761 184.385 61.2761C183.959 61.2761 183.604 61.3855 183.32 61.6043C183.039 61.8202 182.827 62.1142 182.685 62.4864C182.546 62.8557 182.476 63.2705 182.476 63.7307C182.476 64.1966 182.547 64.6199 182.689 65.0006C182.834 65.3784 183.047 65.6796 183.328 65.904C183.612 66.1256 183.965 66.2364 184.385 66.2364Z" fill="white"/>
</g>
<defs>
<filter id="filter0_di_35_528" x="17.1457" y="162.177" width="35.3976" height="14.0412" filterUnits="userSpaceOnUse" color-interpolation-filters="sRGB">
<feFlood flood-opacity="0" result="BackgroundImageFix"/>
<feColorMatrix in="SourceAlpha" type="matrix" values="0 0 0 0 0 0 0 0 0 0 0 0 0 0 0 0 0 0 127 0" result="hardAlpha"/>
<feOffset dy="2.20991"/>
<feGaussianBlur stdDeviation="1.10496"/>
<feComposite in2="hardAlpha" operator="out"/>
<feColorMatrix type="matrix" values="0 0 0 0 0 0 0 0 0 0 0 0 0 0 0 0 0 0 0.25 0"/>
<feBlend mode="normal" in2="BackgroundImageFix" result="effect1_dropShadow_35_528"/>
<feBlend mode="normal" in="SourceGraphic" in2="effect1_dropShadow_35_528" result="shape"/>
<feColorMatrix in="SourceAlpha" type="matrix" values="0 0 0 0 0 0 0 0 0 0 0 0 0 0 0 0 0 0 127 0" result="hardAlpha"/>
<feOffset dy="2.20991"/>
<feGaussianBlur stdDeviation="1.10496"/>
<feComposite in2="hardAlpha" operator="arithmetic" k2="-1" k3="1"/>
<feColorMatrix type="matrix" values="0 0 0 0 0.541176 0 0 0 0 0.541176 0 0 0 0 0.541176 0 0 0 0.2 0"/>
<feBlend mode="normal" in2="shape" result="effect2_innerShadow_35_528"/>
</filter>
<linearGradient id="paint0_linear_35_528" x1="0.5" y1="0.0646973" x2="309.66" y2="197.417" gradientUnits="userSpaceOnUse">
<stop stop-color="white"/>
</linearGradient>
<linearGradient id="paint1_linear_35_528" x1="0.497435" y1="10.7048" x2="318.238" y2="35.6817" gradientUnits="userSpaceOnUse">
<stop stop-color="#323131"/>
<stop offset="0.509653" stop-color="#121212"/>
<stop offset="0.776143" stop-color="#272727"/>
<stop offset="1" stop-color="#353535"/>
</linearGradient>
</defs>
</svg>
