<svg width="39" height="29" viewBox="0 0 39 29" fill="none" xmlns="http://www.w3.org/2000/svg">
<path opacity="0.2" d="M15.75 3V16.5H3C2.60218 16.5 2.22064 16.342 1.93934 16.0607C1.65804 15.7794 1.5 15.3978 1.5 15V3C1.5 2.60218 1.65804 2.22064 1.93934 1.93934C2.22064 1.65804 2.60218 1.5 3 1.5H14.25C14.6478 1.5 15.0294 1.65804 15.3107 1.93934C15.592 2.22064 15.75 2.60218 15.75 3ZM36 1.5H24.75C24.3522 1.5 23.9706 1.65804 23.6893 1.93934C23.408 2.22064 23.25 2.60218 23.25 3V15C23.25 15.3978 23.408 15.7794 23.6893 16.0607C23.9706 16.342 24.3522 16.5 24.75 16.5H37.5V3C37.5 2.60218 37.342 2.22064 37.0607 1.93934C36.7794 1.65804 36.3978 1.5 36 1.5Z" fill="#ADE25D"/>
<path d="M14.25 0H3C2.20435 0 1.44129 0.31607 0.87868 0.87868C0.31607 1.44129 0 2.20435 0 3V15C0 15.7956 0.31607 16.5587 0.87868 17.1213C1.44129 17.6839 2.20435 18 3 18H14.25V19.5C14.25 21.0913 13.6179 22.6174 12.4926 23.7426C11.3674 24.8679 9.8413 25.5 8.25 25.5C7.85218 25.5 7.47064 25.658 7.18934 25.9393C6.90804 26.2206 6.75 26.6022 6.75 27C6.75 27.3978 6.90804 27.7794 7.18934 28.0607C7.47064 28.342 7.85218 28.5 8.25 28.5C10.6362 28.4975 12.9239 27.5485 14.6112 25.8612C16.2985 24.1739 17.2475 21.8862 17.25 19.5V3C17.25 2.20435 16.9339 1.44129 16.3713 0.87868C15.8087 0.31607 15.0456 0 14.25 0ZM14.25 15H3V3H14.25V15ZM36 0H24.75C23.9544 0 23.1913 0.31607 22.6287 0.87868C22.0661 1.44129 21.75 2.20435 21.75 3V15C21.75 15.7956 22.0661 16.5587 22.6287 17.1213C23.1913 17.6839 23.9544 18 24.75 18H36V19.5C36 21.0913 35.3679 22.6174 34.2426 23.7426C33.1174 24.8679 31.5913 25.5 30 25.5C29.6022 25.5 29.2206 25.658 28.9393 25.9393C28.658 26.2206 28.5 26.6022 28.5 27C28.5 27.3978 28.658 27.7794 28.9393 28.0607C29.2206 28.342 29.6022 28.5 30 28.5C32.3862 28.4975 34.6739 27.5485 36.3612 25.8612C38.0485 24.1739 38.9975 21.8862 39 19.5V3C39 2.20435 38.6839 1.44129 38.1213 0.87868C37.5587 0.31607 36.7957 0 36 0ZM36 15H24.75V3H36V15Z" fill="#ADE25D"/>
</svg>
