<svg width="134" height="21" viewBox="0 0 134 21" fill="none" xmlns="http://www.w3.org/2000/svg">
<g clip-path="url(#clip0_164_617)">
<mask id="mask0_164_617" style="mask-type:luminance" maskUnits="userSpaceOnUse" x="0" y="0" width="135" height="21">
<path d="M134 0.801758H0.666992V20.8018H134V0.801758Z" fill="white"/>
</mask>
<g mask="url(#mask0_164_617)">
<path d="M42.0762 16.3074H44.3754L48.382 3.49839L52.3205 16.3074H54.6423L59.2636 0.801758H57.1694L53.4814 13.9029L49.5202 0.801758H47.3575L43.3737 13.9254L39.7313 0.801758H37.5232L42.0762 16.3074ZM85.17 6.23996H87.7424V16.3074H89.6091V6.23996H93.7069V4.62198H89.6091V3.72311C89.6091 2.80176 90.0415 2.37479 90.9748 2.37479H93.7069V0.801758H90.6562C88.7669 0.801758 87.7424 1.79052 87.7424 3.52086V4.62198H85.17V6.23996ZM97.6678 0.801758H95.8011V16.3074H97.6678V0.801758ZM61.7676 7.83546C62.1321 6.68941 63.2472 5.92536 65.0685 5.92536C67.0948 5.92536 68.2557 6.82421 68.2557 8.59951V9.34111H65.0685C61.5854 9.34111 59.4685 10.6894 59.4685 13.0265C59.4685 15.1164 61.153 16.5546 63.885 16.5546C65.8654 16.5546 67.4361 15.7456 68.3241 14.3973V16.3074H70.0997V8.41976C70.0997 5.70063 68.1419 4.37479 65.1138 4.37479C62.0863 4.37479 60.2654 5.74558 59.8325 7.83546H61.7676ZM122.367 13.2063C121.662 14.3299 120.387 15.004 118.748 15.004C116.244 15.004 114.627 13.386 114.468 10.9591H124.644V10.24C124.644 6.75681 122.186 4.37479 118.725 4.37479C115.265 4.37479 112.556 6.82421 112.556 10.3748V10.5321C112.556 14.1051 115.128 16.5546 118.748 16.5546C121.389 16.5546 123.574 15.2737 124.439 13.2063H122.367ZM0.666992 16.3074H20.2902L30.2612 4.62198H22.544L13.1876 15.5883L17.2398 4.62198H10.638L6.58586 15.5883V4.62198H0.666992V16.3074ZM73.7192 4.62198H71.6019L76.8153 16.24L74.789 20.8018H76.8153L83.9406 4.62198H81.9375L77.885 14.1051L73.7192 4.62198ZM127.148 7.34111V16.3074H129.015V7.58826C129.015 6.66691 129.447 6.23996 130.381 6.23996H134V4.62198H130.062C128.173 4.62198 127.148 5.61075 127.148 7.34111ZM101.515 4.62198H99.398L104.611 16.24L102.585 20.8018H104.611L111.736 4.62198H109.733L105.681 14.1051L101.515 4.62198ZM118.68 5.92536C120.933 5.92536 122.436 7.29616 122.732 9.43096H114.514C114.81 7.29616 116.335 5.92536 118.68 5.92536ZM64.2037 15.0265C62.3597 15.0265 61.3352 14.1726 61.3352 12.9591C61.3352 11.6108 62.6098 10.8692 65.205 10.8692H68.2557V11.9029C68.2557 13.6782 66.5254 15.0265 64.2037 15.0265Z" fill="white"/>
</g>
</g>
<defs>
<clipPath id="clip0_164_617">
<rect width="133.333" height="20" fill="white" transform="translate(0.666992 0.801758)"/>
</clipPath>
</defs>
</svg>
