<svg width="67" height="66" viewBox="0 0 67 66" fill="none" xmlns="http://www.w3.org/2000/svg">
<path d="M34.5718 44.1872V21.6403H26.5472V40.1856C26.5472 40.7368 26.0934 41.1838 25.5337 41.1838C24.9739 41.1838 24.5201 40.7368 24.5201 40.1856V20.6422C24.5201 20.091 24.9739 19.6441 25.5337 19.6441H35.5853C36.145 19.6441 36.5988 20.091 36.5988 20.6422V44.1872C36.5988 44.7384 36.145 45.1854 35.5853 45.1854C35.0256 45.1854 34.5718 44.7384 34.5718 44.1872ZM51.2994 28.6429V55.0411C51.2994 55.5923 50.8456 56.0392 50.2859 56.0392H40.2343C39.6746 56.0392 39.2208 55.5923 39.2208 55.0411V28.6429C39.2208 28.0917 39.6746 27.6448 40.2343 27.6448H50.2859C50.8456 27.6448 51.2994 28.0917 51.2994 28.6429ZM49.2724 29.6411H41.2478V54.043H49.2724V29.6411ZM66 36.6435V55.0411C66 55.5923 65.5462 56.0392 64.9865 56.0392H54.9349C54.3752 56.0392 53.9214 55.5923 53.9214 55.0411V36.6435C53.9214 36.0923 54.3752 35.6454 54.9349 35.6454H64.9865C65.5462 35.6454 66 36.0923 66 36.6435ZM63.973 37.6417H55.9484V54.043H63.973V37.6417ZM10.833 30.1388C11.3928 30.1388 11.8466 29.6918 11.8466 29.1406V13.6398H19.8712V29.1844C19.8712 29.7356 20.325 30.1825 20.8847 30.1825C21.4444 30.1825 21.8982 29.7356 21.8982 29.1844V12.6416C21.8982 12.0904 21.4444 11.6435 20.8847 11.6435H10.833C10.2733 11.6435 9.81953 12.0904 9.81953 12.6416V29.1406C9.81953 29.6918 10.2733 30.1388 10.833 30.1388ZM37.2722 53.683C37.2722 59.9232 32.1172 65 25.7807 65C23.8455 65 22.0209 64.5258 20.4193 63.6901H4.79226C3.2526 63.6901 2.00003 62.4565 2.00003 60.9403V58.3697C2.00003 57.7047 2.24112 57.0941 2.64158 56.618C2.24112 56.142 2.00003 55.5314 2.00003 54.8663V52.2956C2.00003 51.6306 2.24112 51.02 2.64158 50.5439C2.24112 50.0678 2.00003 49.4572 2.00003 48.7922V46.2215C2.00003 45.5565 2.24112 44.9459 2.64158 44.4698C2.24112 43.9938 2.00003 43.3832 2.00003 42.7181V40.1474C2.00003 39.4824 2.24112 38.8718 2.64158 38.3957C2.24112 37.9198 2.00003 37.3092 2.00003 36.644V34.0734C2.00003 32.5571 3.2526 31.3235 4.79226 31.3235H20.49C22.0297 31.3235 23.2823 32.5571 23.2823 34.0734V36.644C23.2823 37.309 23.0412 37.9196 22.6407 38.3957C23.0412 38.8718 23.2823 39.4824 23.2823 40.1474V42.636C24.087 42.4596 24.923 42.3658 25.7808 42.3658C32.1172 42.3658 37.2723 47.4425 37.2723 53.6826L37.2722 53.683ZM14.2894 53.683C14.2894 52.9513 14.3611 52.2357 14.4965 51.5422H4.79226C4.37038 51.5422 4.02705 51.8801 4.02705 52.2957V54.8664C4.02705 55.2819 4.37026 55.62 4.79226 55.62H14.4585C14.3478 54.9904 14.2895 54.3434 14.2895 53.6831L14.2894 53.683ZM17.8852 45.4682H4.79226C4.37038 45.4682 4.02705 45.8062 4.02705 46.2218V48.7925C4.02705 49.208 4.37026 49.546 4.79226 49.546H15.0845C15.7075 47.9892 16.6715 46.6002 17.8852 45.4683V45.4682ZM4.79213 43.472H20.4899C20.9118 43.472 21.2551 43.134 21.2551 42.7184V40.1477C21.2551 39.7321 20.9119 39.3941 20.4899 39.3941H4.79226C4.37038 39.3941 4.02705 39.7321 4.02705 40.1477V42.7184C4.02705 43.1338 4.37013 43.472 4.79213 43.472ZM4.02693 36.6444C4.02693 37.0599 4.37013 37.398 4.79213 37.398H20.4899C20.9118 37.398 21.2551 37.06 21.2551 36.6444V34.0737C21.2551 33.6583 20.9119 33.3202 20.4899 33.3202H4.79226C4.37038 33.3202 4.02705 33.6581 4.02705 34.0737L4.02693 36.6444ZM17.6716 61.6937C16.5067 60.55 15.5893 59.1622 15.0054 57.616H4.79226C4.37038 57.616 4.02705 57.954 4.02705 58.3696V60.9401C4.02705 61.3557 4.37026 61.6937 4.79226 61.6937H17.6716ZM35.245 53.6829C35.245 48.5435 30.9993 44.3623 25.7806 44.3623C20.5619 44.3623 16.3163 48.5434 16.3163 53.6829C16.3163 58.8224 20.562 63.0036 25.7806 63.0036C30.9991 63.0036 35.245 58.8224 35.245 53.6829ZM28.4512 53.4995C27.6361 53.0281 26.7817 52.8277 25.9554 52.6339C25.675 52.5681 25.41 52.506 25.1469 52.4337C24.3457 52.2137 23.9091 51.9702 23.6868 51.6195C23.4809 51.295 23.5359 50.9313 23.8377 50.6216C24.2807 50.1674 25.325 49.9346 26.3205 50.0682C27.1207 50.1755 27.7583 50.4989 27.9842 50.912C28.2497 51.3973 28.8646 51.5786 29.3571 51.3173C29.85 51.0558 30.0342 50.4505 29.7687 49.9653C29.2496 49.0163 28.1712 48.3503 26.7917 48.12V47.1151C26.7917 46.5639 26.3379 46.117 25.7782 46.117C25.2185 46.117 24.7647 46.5639 24.7647 47.1151V48.1126C23.7941 48.2712 22.9367 48.6633 22.3753 49.2391C21.4225 50.2164 21.2625 51.566 21.9675 52.677C22.6179 53.7027 23.7172 54.1133 24.6022 54.3565C24.9029 54.4391 25.1992 54.5086 25.4858 54.5757C26.1983 54.7428 26.8712 54.9006 27.4245 55.2206C27.8476 55.4654 28.0829 55.8189 28.0698 56.1903C28.0576 56.5367 27.8262 56.8452 27.435 57.0368C26.1657 57.659 23.884 57.2643 23.3664 56.3329C23.0976 55.8493 22.4816 55.6718 21.9908 55.9367C21.4999 56.2014 21.3197 56.8079 21.5884 57.2914C22.181 58.3574 23.4191 59.0056 24.7647 59.2385V60.2503C24.7647 60.8015 25.2185 61.2484 25.7782 61.2484C26.3379 61.2484 26.7917 60.8015 26.7917 60.2503V59.2768C27.3496 59.2 27.8787 59.0491 28.3379 58.824C29.4002 58.3036 30.0572 57.3449 30.0956 56.2596C30.1347 55.1495 29.5201 54.1177 28.451 53.4992L28.4512 53.4995ZM39.2543 19.0943C46.3 22.7777 53.8243 25.3691 61.6497 26.8098L60.0601 27.5592C59.5552 27.7973 59.3419 28.3934 59.5836 28.8905C59.7578 29.2487 60.1205 29.4578 60.4986 29.4578C60.6453 29.4578 60.7943 29.4262 60.9355 29.3597L65.4241 27.2433C65.7116 27.1078 65.9176 26.8471 65.9801 26.5394C66.0428 26.2317 65.9549 25.9129 65.7429 25.6788L62.4484 22.041C62.0758 21.6296 61.435 21.5934 61.0175 21.9604C60.5998 22.3273 60.5632 22.9582 60.9356 23.3696L62.3231 24.9017C46.2981 22.0078 31.4165 14.0285 20.2605 2.31528C19.8775 1.91316 19.2362 1.89307 18.8279 2.27011C18.4197 2.64728 18.3992 3.27884 18.782 3.68096C24.7114 9.90639 31.5993 15.0921 39.2545 19.0944L39.2543 19.0943Z" fill="white"/>
</svg>
