<svg width="98" height="84" viewBox="0 0 98 84" fill="none" xmlns="http://www.w3.org/2000/svg">
<path fill-rule="evenodd" clip-rule="evenodd" d="M48.933 16.7874C53.7895 16.7874 57.7104 20.7082 57.7104 25.5648C57.7104 30.4214 53.7895 34.3422 48.933 34.3422C44.0764 34.3422 40.1555 30.4214 40.1555 25.5648C40.1555 20.7082 44.0764 16.7874 48.933 16.7874ZM48.933 18.7033C52.7202 18.7033 55.7946 21.7776 55.7946 25.5649C55.7946 29.3522 52.7202 32.4265 48.933 32.4265C45.1457 32.4265 42.0713 29.3522 42.0713 25.5649C42.0713 21.7776 45.1457 18.7033 48.933 18.7033Z" fill="white"/>
<path fill-rule="evenodd" clip-rule="evenodd" d="M45.8139 36.6593H73.3049C74.196 36.6593 74.998 37.1494 75.399 37.9514L80.4338 47.4418C81.2803 49.0458 80.1219 50.9618 78.3396 50.9618H75.4881V65.3087C75.4881 66.6008 74.4188 67.6701 73.0821 67.6701H24.9172C23.6251 67.6701 22.5558 66.6008 22.5558 65.3087V50.9616H19.7043C17.8774 50.9616 16.719 49.0457 17.5656 47.4417L22.645 37.9513C23.046 37.1493 23.848 36.6592 24.7392 36.6592L45.8139 36.6593ZM49.9577 43.209V65.7543H73.0822C73.3495 65.7543 73.5723 65.5761 73.5723 65.3087V50.9616H54.8587C53.9676 50.9616 53.1656 50.4715 52.7646 49.6695L49.9577 43.209ZM48.0862 65.7542V43.209L45.2792 49.6696C44.8782 50.4716 44.0761 50.9618 43.185 50.9618H24.4717V65.3087C24.4717 65.576 24.6499 65.7543 24.9174 65.7543L48.0862 65.7542ZM24.2934 38.8425L19.2586 48.3329C19.0804 48.6448 19.3477 49.0458 19.7043 49.0458H43.1852C43.3634 49.0458 43.4971 48.9567 43.5862 48.7785L48.0417 38.5752H48.0863H24.739C24.5608 38.5751 24.3826 38.6642 24.2934 38.8425ZM49.9577 38.5751H73.3049C73.4831 38.5751 73.6168 38.6642 73.7059 38.8424L78.7406 48.3328C78.9188 48.6447 78.696 49.0457 78.3396 49.0457H54.8587C54.6805 49.0457 54.5023 48.9566 54.4577 48.7784L49.9577 38.5751Z" fill="white"/>
<path fill-rule="evenodd" clip-rule="evenodd" d="M50.4923 23.2478V27.8816C50.4923 28.4608 50.0467 28.9064 49.4675 28.9064C48.9327 28.9064 48.4426 28.4608 48.4426 27.8816V24.8963C48.0862 24.941 47.6852 24.7626 47.4624 24.4062C47.1951 23.9161 47.3733 23.2923 47.8634 22.9804L48.9773 22.3566C49.6458 21.9557 50.4923 22.4458 50.4923 23.2478Z" fill="white"/>
</svg>
