<svg width="337" height="333" viewBox="0 0 337 333" fill="none" xmlns="http://www.w3.org/2000/svg">
<path d="M177.183 22.4579C264.681 22.4579 335.591 91.6737 335.591 177.03C335.591 262.387 264.681 331.603 177.183 331.603C89.6846 331.603 18.7744 262.387 18.7744 177.03C18.7746 91.6737 89.6847 22.4579 177.183 22.4579Z" stroke="#D9D9D9"/>
<g filter="url(#filter0_i_2101_4907)">
<rect x="57.8398" y="27.8429" width="42.8446" height="42.8446" rx="21.4223" fill="#E6D2FF"/>
<path d="M83.5488 46.8711L82.7754 48.582H72.3301L72.9629 46.8711H83.5488ZM82.0566 50.1445L81.2051 51.8945H72.3301L72.9629 50.1445H82.0566ZM85.5801 42.5977L84.3301 45.2695C84.1217 45.1237 83.8691 44.9648 83.5723 44.793C83.2806 44.6159 82.9447 44.4674 82.5645 44.3477C82.1895 44.2227 81.7728 44.1602 81.3145 44.1602C80.5905 44.1602 79.9603 44.3424 79.4238 44.707C78.8874 45.0716 78.4707 45.6393 78.1738 46.4102C77.8822 47.181 77.7363 48.1706 77.7363 49.3789C77.7363 50.5977 77.8822 51.5898 78.1738 52.3555C78.4707 53.1159 78.8874 53.6758 79.4238 54.0352C79.9603 54.3893 80.5905 54.5664 81.3145 54.5664C81.7728 54.5664 82.1895 54.5065 82.5645 54.3867C82.9395 54.2669 83.2676 54.1237 83.5488 53.957C83.8353 53.7904 84.0749 53.6367 84.2676 53.4961L85.5332 56.168C84.9655 56.6367 84.3223 56.9909 83.6035 57.2305C82.8848 57.4648 82.1217 57.582 81.3145 57.582C79.9499 57.582 78.7415 57.2591 77.6895 56.6133C76.6426 55.9622 75.8223 55.0273 75.2285 53.8086C74.6348 52.5846 74.3379 51.1081 74.3379 49.3789C74.3379 47.6549 74.6348 46.1784 75.2285 44.9492C75.8223 43.7201 76.6426 42.7799 77.6895 42.1289C78.7415 41.4727 79.9499 41.1445 81.3145 41.1445C82.153 41.1445 82.929 41.2695 83.6426 41.5195C84.3561 41.7695 85.002 42.1289 85.5801 42.5977Z" fill="#6F01FE"/>
</g>
<g filter="url(#filter1_i_2101_4907)">
<rect y="188.701" width="42.8446" height="42.8446" rx="21.4223" fill="#E6D2FF"/>
<path d="M26.5332 206.332L25.9629 208.504H15.4863L16.0488 206.332H26.5332ZM21.0879 218.363L15.7441 212.004L15.752 210.051H18.3926C18.9811 210.051 19.4733 209.941 19.8691 209.723C20.265 209.504 20.5618 209.207 20.7598 208.832C20.9577 208.457 21.0592 208.03 21.0645 207.551C21.0592 206.832 20.8483 206.246 20.4316 205.793C20.0202 205.335 19.3405 205.105 18.3926 205.105H15.4863L16.127 202.363H18.3926C19.7207 202.363 20.8275 202.564 21.7129 202.965C22.6035 203.361 23.2702 203.926 23.7129 204.66C24.1608 205.395 24.3874 206.27 24.3926 207.285C24.3874 208.186 24.2363 208.973 23.9395 209.645C23.6478 210.316 23.1868 210.876 22.5566 211.324C21.9316 211.772 21.1165 212.105 20.1113 212.324L19.9863 212.371L24.7676 218.223V218.363H21.0879ZM26.5488 202.363L25.9629 204.566H17.3379L17.9238 202.363H26.5488Z" fill="#6F01FE"/>
</g>
<g filter="url(#filter2_i_2101_4907)">
<rect x="239.93" y="27.8429" width="42.8446" height="42.8446" rx="21.4223" fill="#E6D2FF"/>
<path d="M266.861 57.3633H255.236V54.5742H266.861V57.3633ZM263.768 50.9961H255.197V48.332H263.768V50.9961ZM260.158 45.8867L260.408 52.5352C260.434 53.2487 260.291 53.8451 259.979 54.3242C259.671 54.7982 259.14 55.2018 258.385 55.5352L256.26 54.5742C256.489 54.5273 256.661 54.4102 256.775 54.2227C256.895 54.0299 256.973 53.8008 257.01 53.5352C257.051 53.2695 257.07 52.9987 257.064 52.7227L256.83 45.8867C256.788 44.8711 256.984 44.0117 257.416 43.3086C257.854 42.6003 258.458 42.0638 259.229 41.6992C259.999 41.3294 260.869 41.1445 261.838 41.1445C262.656 41.1445 263.382 41.2591 264.018 41.4883C264.653 41.7122 265.189 42.0326 265.627 42.4492C266.07 42.8607 266.398 43.3477 266.611 43.9102C266.825 44.4727 266.919 45.0898 266.893 45.7617L263.729 45.6758C263.739 45.2331 263.661 44.8789 263.494 44.6133C263.327 44.3477 263.104 44.1549 262.822 44.0352C262.541 43.9154 262.231 43.8555 261.893 43.8555C261.564 43.8555 261.268 43.931 261.002 44.082C260.742 44.2279 260.533 44.4518 260.377 44.7539C260.226 45.0508 260.153 45.4284 260.158 45.8867Z" fill="#6F01FE"/>
</g>
<g filter="url(#filter3_i_2101_4907)">
<rect x="6.42676" y="103.356" width="42.8446" height="42.8446" rx="21.4223" fill="#E6D2FF"/>
<path d="M24.4707 116.363L27.7754 124.426L25.4863 126.16L21.002 116.363H24.4707ZM26.2285 124.348L29.4941 116.363H32.9629L28.4551 126.16L26.2285 124.348ZM28.6113 123.941V132.363H25.2676V123.941H28.6113ZM31.7676 124.113V126.043H21.8613V124.113H31.7676ZM31.7676 127.207V129.137H21.8613V127.207H31.7676Z" fill="#6F01FE"/>
</g>
<g filter="url(#filter4_i_2101_4907)">
<rect x="137.471" width="42.8446" height="42.8446" rx="21.4223" fill="#E6D2FF"/>
<path d="M158.361 31.3633V11.3633H159.643V31.3633H158.361ZM161.76 17.9648C161.697 17.3346 161.429 16.8451 160.955 16.4961C160.481 16.1471 159.838 15.9727 159.025 15.9727C158.473 15.9727 158.007 16.0508 157.627 16.207C157.247 16.3581 156.955 16.569 156.752 16.8398C156.554 17.1107 156.455 17.418 156.455 17.7617C156.445 18.0482 156.505 18.2982 156.635 18.5117C156.77 18.7253 156.955 18.9102 157.189 19.0664C157.424 19.2174 157.695 19.3503 158.002 19.4648C158.309 19.5742 158.637 19.668 158.986 19.7461L160.424 20.0898C161.122 20.2461 161.762 20.4544 162.346 20.7148C162.929 20.9753 163.434 21.2956 163.861 21.6758C164.288 22.056 164.619 22.5039 164.854 23.0195C165.093 23.5352 165.215 24.1263 165.221 24.793C165.215 25.7721 164.965 26.6211 164.471 27.3398C163.981 28.0534 163.273 28.6081 162.346 29.0039C161.424 29.3945 160.312 29.5898 159.01 29.5898C157.718 29.5898 156.593 29.3919 155.635 28.9961C154.682 28.6003 153.937 28.0143 153.4 27.2383C152.869 26.457 152.59 25.4909 152.564 24.3398H155.838C155.874 24.8763 156.028 25.3242 156.299 25.6836C156.575 26.0378 156.942 26.306 157.4 26.4883C157.864 26.6654 158.387 26.7539 158.971 26.7539C159.544 26.7539 160.041 26.6706 160.463 26.5039C160.89 26.3372 161.221 26.1055 161.455 25.8086C161.689 25.5117 161.807 25.1706 161.807 24.7852C161.807 24.4258 161.7 24.1237 161.486 23.8789C161.278 23.6341 160.971 23.4258 160.564 23.2539C160.163 23.082 159.671 22.9258 159.088 22.7852L157.346 22.3477C155.997 22.0195 154.932 21.5065 154.15 20.8086C153.369 20.1107 152.981 19.1706 152.986 17.9883C152.981 17.0195 153.239 16.1732 153.76 15.4492C154.286 14.7253 155.007 14.1602 155.924 13.7539C156.84 13.3477 157.882 13.1445 159.049 13.1445C160.236 13.1445 161.273 13.3477 162.158 13.7539C163.049 14.1602 163.742 14.7253 164.236 15.4492C164.731 16.1732 164.986 17.0117 165.002 17.9648H161.76Z" fill="#6F01FE"/>
</g>
<defs>
<filter id="filter0_i_2101_4907" x="57.8398" y="27.8429" width="42.8447" height="42.8446" filterUnits="userSpaceOnUse" color-interpolation-filters="sRGB">
<feFlood flood-opacity="0" result="BackgroundImageFix"/>
<feBlend mode="normal" in="SourceGraphic" in2="BackgroundImageFix" result="shape"/>
<feColorMatrix in="SourceAlpha" type="matrix" values="0 0 0 0 0 0 0 0 0 0 0 0 0 0 0 0 0 0 127 0" result="hardAlpha"/>
<feOffset/>
<feGaussianBlur stdDeviation="6"/>
<feComposite in2="hardAlpha" operator="arithmetic" k2="-1" k3="1"/>
<feColorMatrix type="matrix" values="0 0 0 0 0.300813 0 0 0 0 0.20139 0 0 0 0 0.430063 0 0 0 1 0"/>
<feBlend mode="normal" in2="shape" result="effect1_innerShadow_2101_4907"/>
</filter>
<filter id="filter1_i_2101_4907" x="0" y="188.701" width="42.8447" height="42.8446" filterUnits="userSpaceOnUse" color-interpolation-filters="sRGB">
<feFlood flood-opacity="0" result="BackgroundImageFix"/>
<feBlend mode="normal" in="SourceGraphic" in2="BackgroundImageFix" result="shape"/>
<feColorMatrix in="SourceAlpha" type="matrix" values="0 0 0 0 0 0 0 0 0 0 0 0 0 0 0 0 0 0 127 0" result="hardAlpha"/>
<feOffset/>
<feGaussianBlur stdDeviation="6"/>
<feComposite in2="hardAlpha" operator="arithmetic" k2="-1" k3="1"/>
<feColorMatrix type="matrix" values="0 0 0 0 0.300813 0 0 0 0 0.20139 0 0 0 0 0.430063 0 0 0 1 0"/>
<feBlend mode="normal" in2="shape" result="effect1_innerShadow_2101_4907"/>
</filter>
<filter id="filter2_i_2101_4907" x="239.93" y="27.8429" width="42.8447" height="42.8446" filterUnits="userSpaceOnUse" color-interpolation-filters="sRGB">
<feFlood flood-opacity="0" result="BackgroundImageFix"/>
<feBlend mode="normal" in="SourceGraphic" in2="BackgroundImageFix" result="shape"/>
<feColorMatrix in="SourceAlpha" type="matrix" values="0 0 0 0 0 0 0 0 0 0 0 0 0 0 0 0 0 0 127 0" result="hardAlpha"/>
<feOffset/>
<feGaussianBlur stdDeviation="6"/>
<feComposite in2="hardAlpha" operator="arithmetic" k2="-1" k3="1"/>
<feColorMatrix type="matrix" values="0 0 0 0 0.300813 0 0 0 0 0.20139 0 0 0 0 0.430063 0 0 0 1 0"/>
<feBlend mode="normal" in2="shape" result="effect1_innerShadow_2101_4907"/>
</filter>
<filter id="filter3_i_2101_4907" x="6.42676" y="103.356" width="42.8447" height="42.8446" filterUnits="userSpaceOnUse" color-interpolation-filters="sRGB">
<feFlood flood-opacity="0" result="BackgroundImageFix"/>
<feBlend mode="normal" in="SourceGraphic" in2="BackgroundImageFix" result="shape"/>
<feColorMatrix in="SourceAlpha" type="matrix" values="0 0 0 0 0 0 0 0 0 0 0 0 0 0 0 0 0 0 127 0" result="hardAlpha"/>
<feOffset/>
<feGaussianBlur stdDeviation="6"/>
<feComposite in2="hardAlpha" operator="arithmetic" k2="-1" k3="1"/>
<feColorMatrix type="matrix" values="0 0 0 0 0.300813 0 0 0 0 0.20139 0 0 0 0 0.430063 0 0 0 1 0"/>
<feBlend mode="normal" in2="shape" result="effect1_innerShadow_2101_4907"/>
</filter>
<filter id="filter4_i_2101_4907" x="137.471" y="0" width="42.8447" height="42.8446" filterUnits="userSpaceOnUse" color-interpolation-filters="sRGB">
<feFlood flood-opacity="0" result="BackgroundImageFix"/>
<feBlend mode="normal" in="SourceGraphic" in2="BackgroundImageFix" result="shape"/>
<feColorMatrix in="SourceAlpha" type="matrix" values="0 0 0 0 0 0 0 0 0 0 0 0 0 0 0 0 0 0 127 0" result="hardAlpha"/>
<feOffset/>
<feGaussianBlur stdDeviation="6"/>
<feComposite in2="hardAlpha" operator="arithmetic" k2="-1" k3="1"/>
<feColorMatrix type="matrix" values="0 0 0 0 0.300813 0 0 0 0 0.20139 0 0 0 0 0.430063 0 0 0 1 0"/>
<feBlend mode="normal" in2="shape" result="effect1_innerShadow_2101_4907"/>
</filter>
</defs>
</svg>
