<svg width="37" height="37" viewBox="0 0 37 37" fill="none" xmlns="http://www.w3.org/2000/svg">
<g clip-path="url(#clip0_330_2897)">
<path d="M4.98084 18.9189H0.549492C0.246033 18.9189 -0.00012207 19.1648 -0.00012207 19.4683V35.382C-0.00012207 35.6854 0.246033 35.9316 0.549492 35.9316H4.98084C5.2843 35.9316 5.53046 35.6854 5.53046 35.382V30.3601C5.53046 30.0566 5.2843 29.8107 4.98084 29.8107C4.67738 29.8107 4.43151 30.0566 4.43151 30.3601V34.8326H1.09882V20.0179H4.43151V28.5283C4.43151 28.832 4.67738 29.0779 4.98084 29.0779C5.2843 29.0779 5.53046 28.832 5.53046 28.5283V19.4683C5.53046 19.1648 5.2843 18.9189 4.98084 18.9189Z" fill="white"/>
<path d="M12.8482 24.0332H8.4168C8.11334 24.0332 7.86719 24.2791 7.86719 24.5825V35.3826C7.86719 35.686 8.11334 35.9322 8.4168 35.9322H12.8482C13.1519 35.9322 13.3978 35.686 13.3978 35.3826V24.5825C13.3978 24.2791 13.1519 24.0332 12.8482 24.0332ZM12.2988 34.8332H8.96613V25.1321H12.2988V34.8332Z" fill="white"/>
<path d="M20.7159 15.5098H16.2842C15.9808 15.5098 15.7346 15.7556 15.7346 16.0591V35.382C15.7346 35.6854 15.9808 35.9316 16.2842 35.9316H20.7159C21.0193 35.9316 21.2652 35.6854 21.2652 35.382V16.0591C21.2652 15.7556 21.0193 15.5098 20.7159 15.5098ZM20.1663 34.8326H16.8336V16.6087H20.1663V34.8326Z" fill="white"/>
<path d="M28.5832 18.0674H24.1515C23.8481 18.0674 23.6019 18.3133 23.6019 18.6167V35.3826C23.6019 35.6861 23.8481 35.9322 24.1515 35.9322H28.5832C28.8866 35.9322 29.1325 35.6861 29.1325 35.3826V18.6167C29.1325 18.3133 28.8866 18.0674 28.5832 18.0674ZM28.0336 34.8333H24.7009V19.1663H28.0336V34.8333Z" fill="white"/>
<path d="M36.4502 10.3965H32.0189C31.7154 10.3965 31.4692 10.6424 31.4692 10.9458V18.1981C31.4692 18.5015 31.7154 18.7477 32.0189 18.7477C32.3223 18.7477 32.5682 18.5015 32.5682 18.1981V11.4954H35.9009V34.833H32.5682V20.0301C32.5682 19.7267 32.3223 19.4805 32.0189 19.4805C31.7154 19.4805 31.4692 19.7267 31.4692 20.0301V35.3823C31.4692 35.6858 31.7154 35.9319 32.0189 35.9319H36.4502C36.7537 35.9319 36.9998 35.6858 36.9998 35.3823V10.9458C36.9998 10.6424 36.7537 10.3965 36.4502 10.3965Z" fill="white"/>
<path d="M32.6781 6.13354C33.1218 6.43672 33.6579 6.61456 34.2346 6.61456C35.7595 6.61456 36.9999 5.37391 36.9999 3.84927C36.9999 2.32436 35.7595 1.08398 34.2346 1.08398C32.7097 1.08398 31.4693 2.32436 31.4693 3.84927C31.4693 4.40058 31.6322 4.91434 31.9114 5.34624L27.9235 9.23532C27.48 8.93214 26.9439 8.75458 26.3672 8.75458C25.3366 8.75458 24.4367 9.3217 23.961 10.1598L21.2465 9.27823C21.2584 9.17463 21.2652 9.06962 21.2652 8.96291C21.2652 7.43828 20.0245 6.19762 18.4999 6.19762C16.975 6.19762 15.7346 7.43828 15.7346 8.96291C15.7346 9.56644 15.9296 10.1254 16.2591 10.5804L12.0665 15.1221C11.6482 14.8675 11.157 14.7205 10.6325 14.7205C9.86131 14.7205 9.16321 15.038 8.66131 15.549L5.33624 13.3881C5.46101 13.0733 5.53046 12.7306 5.53046 12.3721C5.53046 10.8472 4.2898 9.60681 2.76488 9.60681C1.24025 9.60681 -0.00012207 10.8472 -0.00012207 12.3721C-0.00012207 13.8967 1.24025 15.1374 2.76517 15.1374C3.53638 15.1374 4.23447 14.8195 4.73666 14.3086L8.06145 16.4695C7.93668 16.7843 7.86723 17.127 7.86723 17.4857C7.86723 19.0107 9.10789 20.251 10.6325 20.251C12.1574 20.251 13.3981 19.0107 13.3981 17.4857C13.3981 16.8822 13.203 16.3236 12.8736 15.8682L17.0661 11.3265C17.4845 11.5814 17.9754 11.7282 18.5002 11.7282C19.5305 11.7282 20.4307 11.1611 20.9064 10.323L23.6206 11.2046C23.6087 11.3082 23.6022 11.4132 23.6022 11.5199C23.6022 13.0448 24.8426 14.2852 26.3675 14.2852C27.8924 14.2852 29.1328 13.0448 29.1328 11.5199C29.1328 10.9683 28.9699 10.4545 28.6907 10.0229L32.6781 6.13354ZM2.76517 14.0384C1.84632 14.0384 1.09882 13.2909 1.09882 12.3721C1.09882 11.4533 1.84632 10.7058 2.76517 10.7058C3.68401 10.7058 4.43151 11.4533 4.43151 12.3721C4.43151 13.2909 3.68401 14.0384 2.76517 14.0384ZM10.6325 19.1521C9.71368 19.1521 8.96618 18.4046 8.96618 17.4857C8.96618 16.5669 9.71368 15.8194 10.6325 15.8194C11.5514 15.8194 12.2989 16.5669 12.2989 17.4857C12.2989 18.4046 11.5514 19.1521 10.6325 19.1521ZM18.4999 10.6293C17.581 10.6293 16.8335 9.88176 16.8335 8.96291C16.8335 8.04407 17.581 7.29657 18.4999 7.29657C19.4187 7.29657 20.1662 8.04407 20.1662 8.96291C20.1662 9.88176 19.4187 10.6293 18.4999 10.6293ZM34.2346 2.18293C35.1534 2.18293 35.9009 2.93043 35.9009 3.84927C35.9009 4.76812 35.1534 5.51562 34.2346 5.51562C33.3157 5.51562 32.5682 4.76812 32.5682 3.84927C32.5682 2.93043 33.3157 2.18293 34.2346 2.18293ZM26.3672 13.1859C25.4484 13.1859 24.7009 12.4387 24.7009 11.5199C24.7009 10.601 25.4484 9.85353 26.3672 9.85353C27.2861 9.85353 28.0336 10.601 28.0336 11.5199C28.0336 12.4387 27.2861 13.1859 26.3672 13.1859Z" fill="white"/>
</g>
<defs>
<clipPath id="clip0_330_2897">
<rect width="37" height="37" fill="white"/>
</clipPath>
</defs>
</svg>
