<svg width="37" height="37" viewBox="0 0 37 37" fill="none" xmlns="http://www.w3.org/2000/svg">
<mask id="mask0_330_3023" style="mask-type:luminance" maskUnits="userSpaceOnUse" x="0" y="0" width="37" height="37">
<path d="M0 3.8147e-06H37V37H0V3.8147e-06Z" fill="white"/>
</mask>
<g mask="url(#mask0_330_3023)">
<path d="M35.6184 18.7602H14.3007C13.8367 18.7602 13.4606 19.1362 13.4606 19.6002V24.9531C13.4606 24.4892 13.8367 24.1131 14.3007 24.1131H35.6184C36.0824 24.1131 36.4585 24.4892 36.4585 24.9531V19.6002C36.4585 19.1362 36.0824 18.7602 35.6184 18.7602Z" stroke="white" stroke-width="1.08398" stroke-miterlimit="10" stroke-linecap="round" stroke-linejoin="round"/>
<path d="M31.0755 24.1133C30.6745 21.092 28.0899 18.7603 24.959 18.7603C21.8281 18.7603 19.2434 21.092 18.8424 24.1133H31.0755Z" stroke="white" stroke-width="1.08398" stroke-miterlimit="10" stroke-linecap="round" stroke-linejoin="round"/>
<path d="M23.3143 24.0605C23.1458 23.7961 23.0492 23.4876 23.0492 23.1582C23.0492 22.1781 23.9045 21.3837 24.9594 21.3837C26.0143 21.3837 26.8695 22.1781 26.8695 23.1582" stroke="white" stroke-width="1.08398" stroke-miterlimit="10" stroke-linecap="round" stroke-linejoin="round"/>
<path d="M24.9594 20.7966V23.8066" stroke="white" stroke-width="1.08398" stroke-miterlimit="10" stroke-linecap="round" stroke-linejoin="round"/>
<path d="M33.5406 30.2861H34.1188" stroke="white" stroke-width="1.08398" stroke-miterlimit="10" stroke-linecap="round" stroke-linejoin="round"/>
<path d="M15.7994 30.2861H16.3776" stroke="white" stroke-width="1.08398" stroke-miterlimit="10" stroke-linecap="round" stroke-linejoin="round"/>
<path d="M31.1313 30.2857C31.1313 33.6946 28.3679 36.458 24.959 36.458C21.5501 36.458 18.7866 33.6946 18.7866 30.2857C18.7866 26.8767 21.5501 24.1133 24.959 24.1133C28.3679 24.1133 31.1313 26.8767 31.1313 30.2857Z" stroke="white" stroke-width="1.08398" stroke-miterlimit="10" stroke-linecap="round" stroke-linejoin="round"/>
<path d="M24.9594 30.2859C26.0143 30.2859 26.8696 31.0803 26.8696 32.0604C26.8696 33.0405 26.0143 33.835 24.9594 33.835C23.9045 33.835 23.0492 33.0405 23.0492 32.0604" stroke="white" stroke-width="1.08398" stroke-miterlimit="10" stroke-linecap="round" stroke-linejoin="round"/>
<path d="M24.9594 30.2861C23.9045 30.2861 23.0492 29.4916 23.0492 28.5116C23.0492 27.5315 23.9045 26.737 24.9594 26.737C26.0143 26.737 26.8696 27.5315 26.8696 28.5116" stroke="white" stroke-width="1.08398" stroke-miterlimit="10" stroke-linecap="round" stroke-linejoin="round"/>
<path d="M24.9594 26.1491V34.4219" stroke="white" stroke-width="1.08398" stroke-miterlimit="10" stroke-linecap="round" stroke-linejoin="round"/>
<path d="M13.3888 12.582H12.1121C11.6351 12.582 11.2449 12.9723 11.2449 13.4492V15.4727C11.2449 15.9496 11.6351 16.3398 12.1121 16.3398H13.3888C13.8657 16.3398 14.256 15.9496 14.256 15.4727V13.4492C14.256 12.9723 13.8657 12.582 13.3888 12.582Z" stroke="white" stroke-width="1.08398" stroke-miterlimit="10" stroke-linecap="round" stroke-linejoin="round"/>
<path d="M23.3766 5.66865H2.12527C1.25107 5.66865 0.542358 6.37736 0.542358 7.25148V14.051C0.542358 14.9252 1.25107 15.6338 2.12527 15.6338H11.2611C11.2511 15.5815 11.2453 15.5278 11.2453 15.4727V13.4493C11.2453 12.9722 11.6356 12.5821 12.1125 12.5821H13.3892C13.8662 12.5821 14.2564 12.9722 14.2564 13.4493V15.4727C14.2564 15.5278 14.2506 15.5815 14.2407 15.6338H23.3766C24.2508 15.6338 24.9594 14.9252 24.9594 14.051V7.25148C24.9594 6.37736 24.2508 5.66865 23.3766 5.66865Z" stroke="white" stroke-width="1.08398" stroke-miterlimit="10" stroke-linecap="round" stroke-linejoin="round"/>
<path d="M8.56519 5.66797V4.66088C8.56519 3.58506 9.44047 2.7097 10.5164 2.7097H14.9848C16.0606 2.7097 16.9359 3.58506 16.9359 4.66088V5.66797H19.1039V4.66088C19.1039 2.38964 17.2561 0.541735 14.9848 0.541735H10.5164C8.24505 0.541735 6.39722 2.38964 6.39722 4.66088V5.66797H8.56519Z" stroke="white" stroke-width="1.08398" stroke-miterlimit="10" stroke-linecap="round" stroke-linejoin="round"/>
<path d="M8.92683 23.8066H13.4604V19.6006C13.4604 19.1367 13.8366 18.7606 14.3005 18.7606H24.9594V7.25131C24.9594 6.37711 24.2507 5.66848 23.3766 5.66848H2.12519C1.251 5.66848 0.542358 6.37711 0.542358 7.25131V22.2237C0.542358 23.0979 1.251 23.8066 2.12519 23.8066H6.39754" stroke="white" stroke-width="1.08398" stroke-miterlimit="10" stroke-linecap="round" stroke-linejoin="round"/>
<path d="M36.4575 29.021V24.9533C36.4575 24.4894 36.0814 24.1133 35.6174 24.1133H14.2996C13.8357 24.1133 13.4596 24.4894 13.4596 24.9533V35.618C13.4596 36.0819 13.8357 36.458 14.2996 36.458H35.6174C36.0814 36.458 36.4575 36.0819 36.4575 35.618V31.5503" stroke="white" stroke-width="1.08398" stroke-miterlimit="10" stroke-linecap="round" stroke-linejoin="round"/>
</g>
</svg>
