<svg width="37" height="37" viewBox="0 0 37 37" fill="none" xmlns="http://www.w3.org/2000/svg">
<mask id="mask0_2173_8547" style="mask-type:luminance" maskUnits="userSpaceOnUse" x="0" y="0" width="37" height="37">
<path d="M0 3.8147e-06H37V37H0V3.8147e-06Z" fill="white"/>
</mask>
<g mask="url(#mask0_2173_8547)">
<path d="M35.6178 18.7602H14.3C13.8361 18.7602 13.46 19.1362 13.46 19.6002V24.9531C13.46 24.4892 13.8361 24.1131 14.3 24.1131H35.6178C36.0818 24.1131 36.4579 24.4892 36.4579 24.9531V19.6002C36.4579 19.1362 36.0818 18.7602 35.6178 18.7602Z" stroke="black" stroke-width="1.08398" stroke-miterlimit="10" stroke-linecap="round" stroke-linejoin="round"/>
<path d="M31.0759 24.1133C30.6749 21.092 28.0902 18.7603 24.9593 18.7603C21.8284 18.7603 19.2438 21.092 18.8428 24.1133H31.0759Z" stroke="black" stroke-width="1.08398" stroke-miterlimit="10" stroke-linecap="round" stroke-linejoin="round"/>
<path d="M23.3139 24.0605C23.1454 23.7961 23.0488 23.4876 23.0488 23.1582C23.0488 22.1781 23.9041 21.3837 24.959 21.3837C26.014 21.3837 26.8692 22.1781 26.8692 23.1582" stroke="black" stroke-width="1.08398" stroke-miterlimit="10" stroke-linecap="round" stroke-linejoin="round"/>
<path d="M24.959 20.7966V23.8066" stroke="black" stroke-width="1.08398" stroke-miterlimit="10" stroke-linecap="round" stroke-linejoin="round"/>
<path d="M33.541 30.2861H34.1191" stroke="black" stroke-width="1.08398" stroke-miterlimit="10" stroke-linecap="round" stroke-linejoin="round"/>
<path d="M15.7998 30.2861H16.3779" stroke="black" stroke-width="1.08398" stroke-miterlimit="10" stroke-linecap="round" stroke-linejoin="round"/>
<path d="M31.1318 30.2857C31.1318 33.6946 28.3684 36.458 24.9595 36.458C21.5505 36.458 18.7871 33.6946 18.7871 30.2857C18.7871 26.8767 21.5505 24.1133 24.9595 24.1133C28.3684 24.1133 31.1318 26.8767 31.1318 30.2857Z" stroke="black" stroke-width="1.08398" stroke-miterlimit="10" stroke-linecap="round" stroke-linejoin="round"/>
<path d="M24.959 30.2859C26.014 30.2859 26.8692 31.0803 26.8692 32.0604C26.8692 33.0405 26.014 33.835 24.959 33.835C23.9041 33.835 23.0488 33.0405 23.0488 32.0604" stroke="black" stroke-width="1.08398" stroke-miterlimit="10" stroke-linecap="round" stroke-linejoin="round"/>
<path d="M24.959 30.2861C23.9041 30.2861 23.0488 29.4916 23.0488 28.5116C23.0488 27.5315 23.9041 26.737 24.959 26.737C26.014 26.737 26.8692 27.5315 26.8692 28.5116" stroke="black" stroke-width="1.08398" stroke-miterlimit="10" stroke-linecap="round" stroke-linejoin="round"/>
<path d="M24.959 26.1491V34.4219" stroke="black" stroke-width="1.08398" stroke-miterlimit="10" stroke-linecap="round" stroke-linejoin="round"/>
<path d="M13.389 12.582H12.1123C11.6354 12.582 11.2451 12.9723 11.2451 13.4492V15.4727C11.2451 15.9496 11.6354 16.3398 12.1123 16.3398H13.389C13.866 16.3398 14.2562 15.9496 14.2562 15.4727V13.4492C14.2562 12.9723 13.866 12.582 13.389 12.582Z" stroke="black" stroke-width="1.08398" stroke-miterlimit="10" stroke-linecap="round" stroke-linejoin="round"/>
<path d="M23.3762 5.66865H2.1249C1.2507 5.66865 0.541992 6.37736 0.541992 7.25148V14.051C0.541992 14.9252 1.2507 15.6338 2.1249 15.6338H11.2607C11.2507 15.5815 11.245 15.5278 11.245 15.4727V13.4493C11.245 12.9722 11.6352 12.5821 12.1122 12.5821H13.3889C13.8658 12.5821 14.2561 12.9722 14.2561 13.4493V15.4727C14.2561 15.5278 14.2503 15.5815 14.2404 15.6338H23.3762C24.2504 15.6338 24.959 14.9252 24.959 14.051V7.25148C24.959 6.37736 24.2504 5.66865 23.3762 5.66865Z" stroke="black" stroke-width="1.08398" stroke-miterlimit="10" stroke-linecap="round" stroke-linejoin="round"/>
<path d="M8.56543 5.66797V4.66088C8.56543 3.58506 9.44071 2.7097 10.5166 2.7097H14.985C16.0609 2.7097 16.9362 3.58506 16.9362 4.66088V5.66797H19.1041V4.66088C19.1041 2.38964 17.2563 0.541735 14.985 0.541735H10.5166C8.24529 0.541735 6.39746 2.38964 6.39746 4.66088V5.66797H8.56543Z" stroke="black" stroke-width="1.08398" stroke-miterlimit="10" stroke-linecap="round" stroke-linejoin="round"/>
<path d="M8.92647 23.8066H13.4601V19.6006C13.4601 19.1367 13.8362 18.7606 14.3001 18.7606H24.959V7.25131C24.959 6.37711 24.2503 5.66848 23.3762 5.66848H2.12483C1.25063 5.66848 0.541992 6.37711 0.541992 7.25131V22.2237C0.541992 23.0979 1.25063 23.8066 2.12483 23.8066H6.39717" stroke="black" stroke-width="1.08398" stroke-miterlimit="10" stroke-linecap="round" stroke-linejoin="round"/>
<path d="M36.4588 29.021V24.9533C36.4588 24.4894 36.0827 24.1133 35.6187 24.1133H14.301C13.837 24.1133 13.4609 24.4894 13.4609 24.9533V35.618C13.4609 36.0819 13.837 36.458 14.301 36.458H35.6187C36.0827 36.458 36.4588 36.0819 36.4588 35.618V31.5503" stroke="black" stroke-width="1.08398" stroke-miterlimit="10" stroke-linecap="round" stroke-linejoin="round"/>
</g>
</svg>
