<svg width="37" height="37" viewBox="0 0 37 37" fill="none" xmlns="http://www.w3.org/2000/svg">
<mask id="mask0_330_3974" style="mask-type:luminance" maskUnits="userSpaceOnUse" x="0" y="0" width="37" height="37">
<path d="M0 3.8147e-06H37V37H0V3.8147e-06Z" fill="white"/>
</mask>
<g mask="url(#mask0_330_3974)">
<path d="M25.1265 27.384H21.8899C21.0603 27.384 21.1238 27.087 21.6134 26.4479L26.8226 19.6446C27.3122 19.0034 27.894 18.3603 27.5826 19.6426L26.4354 24.3564C26.3003 24.9074 26.3719 25.0077 26.9701 25.0077H30.3563C31.2166 25.0077 31.1204 25.3048 30.6328 25.9439L25.4235 32.7471C24.9319 33.3883 24.4484 33.6424 24.6636 32.7471L25.7759 28.1747C25.9193 27.5889 25.7492 27.384 25.1265 27.384Z" stroke="white" stroke-width="1.08398" stroke-miterlimit="10" stroke-linecap="round" stroke-linejoin="round"/>
<path d="M13.8283 9.30543C12.925 10.6637 10.7678 13.593 10.7678 15.2708C10.7678 17.4484 12.4333 18.5361 14.0987 18.5361C15.7641 18.5361 17.4295 17.4484 17.4295 15.2708C17.4295 13.593 15.2724 10.6637 14.3691 9.30543C14.1561 8.98385 14.0413 8.98385 13.8283 9.30543Z" stroke="white" stroke-width="1.08398" stroke-miterlimit="10" stroke-linecap="round" stroke-linejoin="round"/>
<path d="M8.20112 7.74431C6.48857 9.32989 5.41724 11.5956 5.41724 14.1132C5.41724 18.9068 9.30318 22.7949 14.0987 22.7949C14.916 22.7949 15.7088 22.6802 16.4606 22.4692M22.4586 16.4547C22.6675 15.7111 22.7801 14.9244 22.7801 14.1132C22.7801 9.3176 18.8921 5.43152 14.0987 5.43152C12.677 5.43152 11.3353 5.77362 10.1513 6.38" stroke="white" stroke-width="1.08398" stroke-miterlimit="10" stroke-linecap="round" stroke-linejoin="round"/>
<path d="M27.6557 15.897V12.3141C27.6557 11.7221 27.1722 11.2387 26.5802 11.2387H25.3389C25.0623 10.155 24.6342 9.1348 24.0791 8.1986L24.9558 7.31985C25.3757 6.90186 25.3757 6.21563 24.9558 5.79772L22.4136 3.25346C21.9958 2.83555 21.3095 2.83555 20.8916 3.25346L20.0128 4.13228C19.0767 3.57714 18.0545 3.14897 16.9729 2.87248V1.63103C16.9729 1.03895 16.4894 0.555497 15.8974 0.555497H12.3003C11.7083 0.555497 11.2248 1.03895 11.2248 1.63103V2.87248C10.1412 3.14687 9.12108 3.57714 8.18488 4.13228L7.30606 3.25346C6.88822 2.83555 6.20191 2.83555 5.78407 3.25346L3.23989 5.79772C2.82197 6.21563 2.82197 6.90186 3.23989 7.31985L4.11864 8.1986C3.56349 9.1348 3.13539 10.155 2.85883 11.2387H1.61745C1.02545 11.2387 0.541992 11.7221 0.541992 12.3141V15.9114C0.541992 16.5034 1.02545 16.9868 1.61745 16.9868H2.85883C3.13539 18.0685 3.56349 19.0906 4.11864 20.0268L3.23989 20.9057C2.82197 21.3236 2.82197 22.0099 3.23989 22.4278L5.78407 24.97C6.20191 25.3899 6.88822 25.3899 7.30606 24.97L8.18488 24.0932C9.12108 24.6484 10.1412 25.0765 11.2248 25.3531V26.5945C11.2248 27.1865 11.7083 27.6699 12.3003 27.6699H15.9138" stroke="white" stroke-width="1.08398" stroke-miterlimit="10" stroke-linecap="round" stroke-linejoin="round"/>
<path d="M17.4446 31.7101C16.402 30.0979 15.7976 28.1764 15.7976 26.1156C15.7976 20.4083 20.4231 15.7848 26.1281 15.7848C31.8331 15.7848 36.4586 20.4083 36.4586 26.1156C36.4586 31.8207 31.8331 36.4443 26.1281 36.4443C23.4159 36.4443 20.9475 35.3996 19.1039 33.6911" stroke="white" stroke-width="1.08398" stroke-miterlimit="10" stroke-linecap="round" stroke-linejoin="round"/>
</g>
</svg>
