<svg width="37" height="37" viewBox="0 0 37 37" fill="none" xmlns="http://www.w3.org/2000/svg">
<path d="M27.3734 31.0879L23.7305 28.9297" stroke="white" stroke-width="1.08398" stroke-miterlimit="10" stroke-linecap="round" stroke-linejoin="round"/>
<path d="M25.107 32.7236L22.4229 31.1334" stroke="white" stroke-width="1.08398" stroke-miterlimit="10" stroke-linecap="round" stroke-linejoin="round"/>
<path d="M22.3604 34.0742L21.3086 33.4511" stroke="white" stroke-width="1.08398" stroke-miterlimit="10" stroke-linecap="round" stroke-linejoin="round"/>
<path d="M6.48486 10.502H24.2061" stroke="white" stroke-width="1.08398" stroke-miterlimit="10" stroke-linecap="round" stroke-linejoin="round"/>
<path d="M6.48486 6.72559H15.3455" stroke="white" stroke-width="1.08398" stroke-miterlimit="10" stroke-linecap="round" stroke-linejoin="round"/>
<path d="M6.48486 13.8477H24.2061" stroke="white" stroke-width="1.08398" stroke-miterlimit="10" stroke-linecap="round" stroke-linejoin="round"/>
<mask id="mask0_330_3271" style="mask-type:luminance" maskUnits="userSpaceOnUse" x="0" y="0" width="37" height="37">
<path d="M0 3.8147e-06H37V37H0V3.8147e-06Z" fill="white"/>
</mask>
<g mask="url(#mask0_330_3271)">
<path d="M21.8899 0.694225V4.49301C21.8899 5.72608 22.8895 6.72559 24.1225 6.72559H27.9213" stroke="white" stroke-width="1.08398" stroke-miterlimit="10" stroke-linecap="round" stroke-linejoin="round"/>
<path d="M28.0732 16.6964V7.42621C28.0732 6.97766 27.895 6.54746 27.5779 6.23029L22.3849 1.03728C22.0677 0.720107 21.6375 0.541899 21.1889 0.541899H4.85067C3.61774 0.541899 2.61816 1.54141 2.61816 2.77447V31.5321C2.61816 32.7651 3.61774 33.7646 4.85067 33.7646H10.5219" stroke="white" stroke-width="1.08398" stroke-miterlimit="10" stroke-linecap="round" stroke-linejoin="round"/>
<path d="M13.5669 19.5764L12.4451 18.9118C12.1364 18.7289 11.7379 18.8309 11.5551 19.1395L6.94261 26.9252C6.75977 27.2339 6.86174 27.6323 7.17039 27.8151L8.29231 28.4798C9.04481 28.9256 10.0162 28.677 10.4621 27.9245L14.1223 21.7462C14.5681 20.9936 14.3195 20.0222 13.5669 19.5764Z" stroke="white" stroke-width="1.08398" stroke-miterlimit="10" stroke-linecap="round" stroke-linejoin="round"/>
<path d="M29.056 25.0287L30.7714 27.9244C31.2173 28.6769 32.1888 28.9256 32.9413 28.4798L34.0632 27.8151C34.3719 27.6322 34.4738 27.2339 34.2909 26.9252L29.6784 19.1395C29.4956 18.8309 29.0971 18.7289 28.7886 18.9117L27.6666 19.5764C26.9141 20.0222 26.6655 20.9936 27.1113 21.7462L27.7584 22.8384" stroke="white" stroke-width="1.08398" stroke-miterlimit="10" stroke-linecap="round" stroke-linejoin="round"/>
<path d="M20.5597 22.1449L20.3747 22.0354C19.3105 21.4246 18.8128 21.3118 17.8527 21.6828L16.8063 22.0875C16.1695 22.3336 15.4549 22.2742 14.8675 21.9262L14.2205 21.5447" stroke="white" stroke-width="1.08398" stroke-miterlimit="10" stroke-linecap="round" stroke-linejoin="round"/>
<path d="M10.2112 28.2419L11.2955 28.8818" stroke="white" stroke-width="1.08398" stroke-miterlimit="10" stroke-linecap="round" stroke-linejoin="round"/>
<path d="M19.3179 35.2504L21.0539 36.2789C21.6627 36.6396 22.4487 36.4383 22.8094 35.8296C23.1701 35.2207 22.9689 34.4348 22.3601 34.0741L23.8011 34.9278C24.41 35.2885 25.196 35.0873 25.5566 34.4785C25.9173 33.8697 25.7161 33.0838 25.1073 32.723L26.068 33.2922C26.6768 33.6529 27.4628 33.4517 27.8235 32.8429C28.1841 32.2341 27.983 31.4481 27.3741 31.0874L28.5499 31.7839C29.1586 32.1445 29.9445 31.9434 30.3051 31.3347C30.6658 30.7259 30.4647 29.9401 29.8559 29.5793" stroke="white" stroke-width="1.08398" stroke-miterlimit="10" stroke-linecap="round" stroke-linejoin="round"/>
<path d="M27.165 21.8385L27.0141 21.9262C26.4268 22.2742 25.7122 22.3336 25.0754 22.0874L23.8953 21.6238C23.5262 21.4788 23.121 21.4531 22.7365 21.5505L20.9284 22.0081C20.0867 22.221 19.4971 22.9785 19.4971 23.8467V26.2603C19.4971 26.6016 19.7736 26.8792 20.1149 26.8794C21.144 26.8801 21.9785 26.0461 21.9785 25.0171V24.9149L29.7179 29.498C29.8613 29.3453 30.0257 29.2133 30.2065 29.1062L31.303 28.4655" stroke="white" stroke-width="1.08398" stroke-miterlimit="10" stroke-linecap="round" stroke-linejoin="round"/>
<path d="M12.521 31.5383C12.1085 32.1129 11.3081 32.2444 10.7335 31.8318C10.1588 31.4192 10.0274 30.6188 10.4399 30.0442L11.1655 29.0335C11.5781 28.4589 12.3784 28.3274 12.9531 28.74C13.5278 29.1526 13.6592 29.9529 13.2467 30.5276" stroke="white" stroke-width="1.08398" stroke-miterlimit="10" stroke-linecap="round" stroke-linejoin="round"/>
<path d="M16.1285 30.9063L14.6021 33.0324C14.1895 33.6071 13.3892 33.7385 12.8145 33.3259C12.2398 32.9134 12.1084 32.113 12.521 31.5384L14.0473 29.4122C14.46 28.8376 15.2602 28.7062 15.835 29.1188C16.4097 29.5313 16.5411 30.3316 16.1285 30.9063Z" stroke="white" stroke-width="1.08398" stroke-miterlimit="10" stroke-linecap="round" stroke-linejoin="round"/>
<path d="M16.1289 30.9064C16.5415 30.3317 17.3418 30.2003 17.9164 30.6129C18.4912 31.0254 18.6226 31.8258 18.2101 32.4005L16.6837 34.5266C16.2711 35.1012 15.4708 35.2326 14.896 34.8201C14.3214 34.4075 14.19 33.6072 14.6026 33.0325" stroke="white" stroke-width="1.08398" stroke-miterlimit="10" stroke-linecap="round" stroke-linejoin="round"/>
<path d="M17.5324 33.345C17.945 32.7703 18.7453 32.6389 19.32 33.0515C19.8947 33.464 20.0262 34.2644 19.6135 34.839L19.1059 35.5461C18.6934 36.1207 17.8931 36.2522 17.3184 35.8396C16.7437 35.427 16.6123 34.6266 17.0249 34.052" stroke="white" stroke-width="1.08398" stroke-miterlimit="10" stroke-linecap="round" stroke-linejoin="round"/>
</g>
</svg>
