<svg width="37" height="37" viewBox="0 0 37 37" fill="none" xmlns="http://www.w3.org/2000/svg">
<mask id="mask0_2178_10445" style="mask-type:luminance" maskUnits="userSpaceOnUse" x="0" y="0" width="37" height="37">
<path d="M0 3.8147e-06H37V37H0V3.8147e-06Z" fill="white"/>
</mask>
<g mask="url(#mask0_2178_10445)">
<path d="M21.8906 0.694225V4.49301C21.8906 5.72608 22.8902 6.72559 24.1232 6.72559H27.922" stroke="black" stroke-width="1.08398" stroke-miterlimit="10" stroke-linecap="round" stroke-linejoin="round"/>
<path d="M28.0742 16.6964V7.42621C28.0742 6.97766 27.896 6.54746 27.5789 6.23029L22.3859 1.03728C22.0686 0.720107 21.6384 0.541899 21.1899 0.541899H4.85164C3.61872 0.541899 2.61914 1.54141 2.61914 2.77447V31.5321C2.61914 32.7651 3.61872 33.7646 4.85164 33.7646H10.5229" stroke="black" stroke-width="1.08398" stroke-miterlimit="10" stroke-linecap="round" stroke-linejoin="round"/>
<path d="M13.5667 19.5764L12.4448 18.9118C12.1362 18.7289 11.7377 18.8309 11.5549 19.1395L6.94236 26.9252C6.75953 27.2339 6.8615 27.6323 7.17014 27.8151L8.29207 28.4798C9.04457 28.9256 10.016 28.677 10.4618 27.9245L14.122 21.7462C14.5678 20.9936 14.3192 20.0222 13.5667 19.5764Z" stroke="black" stroke-width="1.08398" stroke-miterlimit="10" stroke-linecap="round" stroke-linejoin="round"/>
<path d="M29.0567 25.0287L30.7722 27.9244C31.2181 28.6769 32.1895 28.9256 32.942 28.4798L34.064 27.8151C34.3726 27.6322 34.4746 27.2339 34.2917 26.9252L29.6792 19.1395C29.4963 18.8309 29.0979 18.7289 28.7893 18.9117L27.6674 19.5764C26.9149 20.0222 26.6662 20.9936 27.1121 21.7462L27.7591 22.8384" stroke="black" stroke-width="1.08398" stroke-miterlimit="10" stroke-linecap="round" stroke-linejoin="round"/>
<path d="M20.56 22.1449L20.3749 22.0354C19.3107 21.4246 18.813 21.3118 17.8529 21.6828L16.8065 22.0875C16.1697 22.3336 15.4551 22.2742 14.8678 21.9262L14.2207 21.5447" stroke="black" stroke-width="1.08398" stroke-miterlimit="10" stroke-linecap="round" stroke-linejoin="round"/>
<path d="M10.2129 28.2419L11.2972 28.8818" stroke="black" stroke-width="1.08398" stroke-miterlimit="10" stroke-linecap="round" stroke-linejoin="round"/>
<path d="M19.3184 35.2504L21.0544 36.2789C21.6632 36.6396 22.4492 36.4383 22.8099 35.8296C23.1706 35.2207 22.9694 34.4348 22.3606 34.0741L23.8016 34.9278C24.4105 35.2885 25.1964 35.0873 25.5571 34.4785C25.9178 33.8697 25.7166 33.0838 25.1078 32.723L26.0685 33.2922C26.6773 33.6529 27.4633 33.4517 27.824 32.8429C28.1846 32.2341 27.9834 31.4481 27.3746 31.0874L28.5504 31.7839C29.1591 32.1445 29.945 31.9434 30.3056 31.3347C30.6663 30.7259 30.4652 29.9401 29.8564 29.5793" stroke="black" stroke-width="1.08398" stroke-miterlimit="10" stroke-linecap="round" stroke-linejoin="round"/>
<path d="M27.166 21.8385L27.0151 21.9262C26.4277 22.2742 25.7132 22.3336 25.0764 22.0874L23.8963 21.6238C23.5271 21.4788 23.122 21.4531 22.7375 21.5505L20.9293 22.0081C20.0877 22.221 19.498 22.9785 19.498 23.8467V26.2603C19.498 26.6016 19.7746 26.8792 20.1158 26.8794C21.145 26.8801 21.9794 26.0461 21.9794 25.0171V24.9149L29.7189 29.498C29.8622 29.3453 30.0266 29.2133 30.2075 29.1062L31.304 28.4655" stroke="black" stroke-width="1.08398" stroke-miterlimit="10" stroke-linecap="round" stroke-linejoin="round"/>
<path d="M12.5227 31.5383C12.1102 32.1129 11.3098 32.2444 10.7352 31.8318C10.1605 31.4192 10.0291 30.6188 10.4416 30.0442L11.1672 29.0335C11.5798 28.4589 12.3801 28.3274 12.9548 28.74C13.5295 29.1526 13.6609 29.9529 13.2484 30.5276" stroke="black" stroke-width="1.08398" stroke-miterlimit="10" stroke-linecap="round" stroke-linejoin="round"/>
<path d="M16.1292 30.9063L14.6028 33.0324C14.1903 33.6071 13.3899 33.7385 12.8153 33.3259C12.2405 32.9134 12.1092 32.113 12.5217 31.5384L14.0481 29.4122C14.4607 28.8376 15.261 28.7062 15.8357 29.1188C16.4104 29.5313 16.5418 30.3316 16.1292 30.9063Z" stroke="black" stroke-width="1.08398" stroke-miterlimit="10" stroke-linecap="round" stroke-linejoin="round"/>
<path d="M16.1302 30.9064C16.5427 30.3317 17.343 30.2003 17.9177 30.6129C18.4924 31.0254 18.6238 31.8258 18.2113 32.4005L16.6849 34.5266C16.2723 35.1012 15.472 35.2326 14.8972 34.8201C14.3226 34.4075 14.1912 33.6072 14.6038 33.0325" stroke="black" stroke-width="1.08398" stroke-miterlimit="10" stroke-linecap="round" stroke-linejoin="round"/>
<path d="M17.5332 33.345C17.9457 32.7703 18.7461 32.6389 19.3207 33.0515C19.8954 33.464 20.0269 34.2644 19.6143 34.839L19.1067 35.5461C18.6941 36.1207 17.8938 36.2522 17.3191 35.8396C16.7445 35.427 16.6131 34.6266 17.0256 34.052" stroke="black" stroke-width="1.08398" stroke-miterlimit="10" stroke-linecap="round" stroke-linejoin="round"/>
</g>
</svg>
