<svg width="37" height="37" viewBox="0 0 37 37" fill="none" xmlns="http://www.w3.org/2000/svg">
<mask id="mask0_330_4087" style="mask-type:luminance" maskUnits="userSpaceOnUse" x="0" y="0" width="37" height="37">
<path d="M0 3.8147e-06H37V37H0V3.8147e-06Z" fill="white"/>
</mask>
<g mask="url(#mask0_330_4087)">
<path d="M32.4354 16.5273C32.1047 17.4825 32.1122 18.5376 32.4579 19.4883" stroke="white" stroke-width="1.08398" stroke-miterlimit="10" stroke-linecap="round" stroke-linejoin="round"/>
<path d="M24.6067 14.2795H32.9728C33.575 14.2795 34.0649 14.7695 34.0649 15.3716C34.0649 15.9739 33.575 16.4639 32.9728 16.4639H24.9657" stroke="white" stroke-width="1.08398" stroke-miterlimit="10" stroke-linecap="round" stroke-linejoin="round"/>
<path d="M21.8463 16.4644H6.63168C5.79802 16.4644 5.11981 17.1427 5.11981 17.9765C5.11981 18.8102 5.79802 19.4886 6.63168 19.4886H32.9726C33.5748 19.4886 34.0648 19.9784 34.0648 20.5807C34.0648 21.1829 33.5748 21.6729 32.9726 21.6729H6.63168C5.63904 21.6729 4.70674 21.2835 4.00648 20.5764C3.30644 19.8694 2.92618 18.9332 2.93572 17.9401C2.95538 15.922 4.63158 14.28 6.67236 14.28H22.2053" stroke="white" stroke-width="1.08398" stroke-miterlimit="10" stroke-linecap="round" stroke-linejoin="round"/>
<path d="M34.9196 31.2498C34.5739 32.2006 34.5663 33.2557 34.8971 34.2109" stroke="white" stroke-width="1.08398" stroke-miterlimit="10" stroke-linecap="round" stroke-linejoin="round"/>
<path d="M6.72061 31.2495H4.46346C3.62973 31.2495 2.95152 31.9278 2.95152 32.7616C2.95152 33.5954 3.62973 34.2737 4.46346 34.2737H35.1404C35.7426 34.2737 36.2324 34.7636 36.2324 35.3659C36.2324 35.968 35.7426 36.458 35.1404 36.458H4.46346C3.47075 36.458 2.53845 36.0686 1.8382 35.3615C1.13816 34.6545 0.75797 33.7183 0.767509 32.7253C0.787165 30.7071 2.46337 29.0652 4.50415 29.0652H6.72061" stroke="white" stroke-width="1.08398" stroke-miterlimit="10" stroke-linecap="round" stroke-linejoin="round"/>
<path d="M29.6532 29.0656H35.1407C35.7428 29.0656 36.2327 29.5556 36.2327 30.1578C36.2327 30.76 35.7428 31.25 35.1407 31.25H9.29883" stroke="white" stroke-width="1.08398" stroke-miterlimit="10" stroke-linecap="round" stroke-linejoin="round"/>
<path d="M9.35425 29.0654H26.7971" stroke="white" stroke-width="1.08398" stroke-miterlimit="10" stroke-linecap="round" stroke-linejoin="round"/>
<path d="M2.08325 26.874C2.43316 25.9065 2.43316 24.8315 2.08325 23.864" stroke="white" stroke-width="1.08398" stroke-miterlimit="10" stroke-linecap="round" stroke-linejoin="round"/>
<path d="M9.35375 26.8811H32.5366C33.3702 26.8811 34.0485 26.2028 34.0485 25.369C34.0485 24.5352 33.3702 23.8569 32.5366 23.8569H1.85966C1.25747 23.8569 0.767578 23.367 0.767578 22.7647C0.767578 22.1625 1.25747 21.6726 1.85966 21.6726H32.5366C33.5293 21.6726 34.4615 22.062 35.1617 22.7691C35.8618 23.4761 36.242 24.4123 36.2324 25.4053C36.2129 27.4235 34.5366 29.0654 32.4958 29.0654" stroke="white" stroke-width="1.08398" stroke-miterlimit="10" stroke-linecap="round" stroke-linejoin="round"/>
<path d="M6.72082 29.0654H1.85966C1.25747 29.0654 0.767578 28.5755 0.767578 27.9733C0.767578 27.371 1.25747 26.8811 1.85966 26.8811H6.72082" stroke="white" stroke-width="1.08398" stroke-miterlimit="10" stroke-linecap="round" stroke-linejoin="round"/>
<path d="M8.38306 14.2793L10.2037 8.149" stroke="white" stroke-width="1.08398" stroke-miterlimit="10" stroke-linecap="round" stroke-linejoin="round"/>
<path d="M26.7966 8.149L28.6173 14.2793" stroke="white" stroke-width="1.08398" stroke-miterlimit="10" stroke-linecap="round" stroke-linejoin="round"/>
<path d="M8.54128 2.90847L2.25013 4.5609C1.47912 4.76339 1.47912 5.85785 2.25013 6.06034L16.6316 9.83781C17.8565 10.1595 19.1438 10.1595 20.3687 9.83781L34.7502 6.06034C35.5212 5.85785 35.5212 4.76339 34.7502 4.5609L20.3687 0.78343C19.1438 0.461704 17.8565 0.461704 16.6316 0.78343L11.284 2.18806" stroke="white" stroke-width="1.08398" stroke-miterlimit="10" stroke-linecap="round" stroke-linejoin="round"/>
<path d="M19.5415 5.54544L23.4058 9.04938V12.709" stroke="white" stroke-width="1.08398" stroke-miterlimit="10" stroke-linecap="round" stroke-linejoin="round"/>
<path d="M24.9655 17.416H21.8462C21.8462 17.416 21.8462 12.7088 23.4058 12.7088C24.9655 12.7088 24.9655 17.416 24.9655 17.416Z" stroke="white" stroke-width="1.08398" stroke-miterlimit="10" stroke-linecap="round" stroke-linejoin="round"/>
<path d="M9.29888 31.25L6.72095 32.6025V23.8572H9.29888V31.25Z" stroke="white" stroke-width="1.08398" stroke-miterlimit="10" stroke-linecap="round" stroke-linejoin="round"/>
<path d="M19.5188 5.57013C18.8448 5.98284 18.0483 5.98342 17.3757 5.57013V4.0295C17.3757 3.43772 17.8555 2.95795 18.4473 2.95795C19.0391 2.95795 19.5188 3.43772 19.5188 4.0295V5.57013Z" stroke="white" stroke-width="1.08398" stroke-miterlimit="10" stroke-linecap="round" stroke-linejoin="round"/>
</g>
</svg>
