<svg width="37" height="37" viewBox="0 0 37 37" fill="none" xmlns="http://www.w3.org/2000/svg">
<mask id="mask0_330_4065" style="mask-type:luminance" maskUnits="userSpaceOnUse" x="0" y="0" width="37" height="37">
<path d="M0 3.8147e-06H37V37H0V3.8147e-06Z" fill="white"/>
</mask>
<g mask="url(#mask0_330_4065)">
<path d="M35.5016 15.8751H32.5836C32.1445 15.8751 31.7641 15.5753 31.6561 15.1496C31.3323 13.8741 30.8282 12.6706 30.1721 11.5679C29.9472 11.19 30.0035 10.7088 30.3144 10.3979L32.378 8.33418C32.7515 7.96064 32.7515 7.35512 32.378 6.98158L30.0185 4.62204C29.6449 4.2485 29.0394 4.2485 28.6658 4.62204L26.6022 6.68566C26.2912 6.99662 25.81 7.05284 25.4321 6.82795C24.3295 6.17185 23.1259 5.66772 21.8504 5.34397C21.4247 5.23594 21.125 4.8556 21.125 4.41645V1.49851C21.125 0.970244 20.6967 0.541996 20.1685 0.541996H16.8315C16.3033 0.541996 15.8751 0.970244 15.8751 1.49851V4.41645C15.8751 4.8556 15.5754 5.23594 15.1497 5.34397C13.8741 5.66772 12.6706 6.17185 11.568 6.82802C11.1901 7.05284 10.7088 6.99662 10.3979 6.68566L8.33425 4.62204C7.96071 4.2485 7.35512 4.2485 6.98158 4.62204L4.62204 6.98158C4.2485 7.35512 4.2485 7.96064 4.62204 8.33418L6.68565 10.3979C6.99661 10.7088 7.05291 11.19 6.82802 11.5679C6.17192 12.6706 5.66772 13.8741 5.34404 15.1496C5.23593 15.5753 4.8556 15.8751 4.41644 15.8751H1.4985C0.97024 15.8751 0.541992 16.3033 0.541992 16.8315V20.1685C0.541992 20.6967 0.97024 21.1249 1.4985 21.1249H4.41644C4.8556 21.1249 5.23593 21.4247 5.34404 21.8504C5.66772 23.1259 6.17192 24.3295 6.82802 25.4321C7.05284 25.81 6.99661 26.2912 6.68565 26.6021L4.62196 28.6658C4.2485 29.0394 4.2485 29.6449 4.62196 30.0184L6.98158 32.378C7.35512 32.7516 7.96071 32.7516 8.33425 32.378L10.3979 30.3144C10.7088 30.0035 11.1901 29.9472 11.5681 30.1721C12.6706 30.8282 13.8741 31.3324 15.1497 31.6561C15.5754 31.7641 15.8751 32.1445 15.8751 32.5836V35.5016C15.8751 36.0298 16.3033 36.458 16.8315 36.458H20.1685C20.6967 36.458 21.125 36.0298 21.125 35.5016V32.5836C21.125 32.1445 21.4247 31.7641 21.8505 31.6561C23.1259 31.3324 24.3295 30.8282 25.4321 30.1721C25.81 29.9472 26.2912 30.0035 26.6022 30.3144L28.6658 32.378C29.0394 32.7516 29.6449 32.7516 30.0185 32.378L32.378 30.0184C32.7516 29.6449 32.7516 29.0394 32.378 28.6658L30.3144 26.6021C30.0035 26.2912 29.9472 25.81 30.1721 25.4321C30.8282 24.3295 31.3323 23.1259 31.6561 21.8504C31.7641 21.4247 32.1445 21.1249 32.5836 21.1249H35.5016C36.0298 21.1249 36.458 20.6967 36.458 20.1685V16.8315C36.458 16.3033 36.0298 15.8751 35.5016 15.8751Z" stroke="white" stroke-width="1.08398" stroke-miterlimit="10" stroke-linecap="round" stroke-linejoin="round"/>
<path d="M22.6116 13.0596C22.2319 11.1352 20.5358 9.68368 18.5001 9.68368C16.4644 9.68368 14.7682 11.1352 14.3887 13.0596" stroke="white" stroke-width="1.08398" stroke-miterlimit="10" stroke-linecap="round" stroke-linejoin="round"/>
<path d="M15.5011 26.043H13.2368V19.5873H15.5011V26.043Z" stroke="white" stroke-width="1.08398" stroke-miterlimit="10" stroke-linecap="round" stroke-linejoin="round"/>
<path d="M23.7633 26.043H21.499V19.5873H23.7633V26.043Z" stroke="white" stroke-width="1.08398" stroke-miterlimit="10" stroke-linecap="round" stroke-linejoin="round"/>
<path d="M17.7498 17.1182H19.2493" stroke="white" stroke-width="1.08398" stroke-miterlimit="10" stroke-linecap="round" stroke-linejoin="round"/>
<path d="M19.7645 19.5879H25.052C25.8734 19.5879 26.5454 18.9158 26.5454 18.0944V14.6256C26.5454 13.8043 25.8734 13.1322 25.052 13.1322H11.9478C11.1264 13.1322 10.4543 13.8043 10.4543 14.6256V18.0944C10.4543 18.9158 11.1264 19.5879 11.9478 19.5879H17.2352" stroke="white" stroke-width="1.08398" stroke-miterlimit="10" stroke-linecap="round" stroke-linejoin="round"/>
<path d="M26.5454 21.0992V14.625C26.5454 13.8036 25.8734 13.1316 25.052 13.1316H11.9478C11.1264 13.1316 10.4543 13.8036 10.4543 14.625V24.5495C10.4543 25.3709 11.1264 26.043 11.9478 26.043H25.052C25.8734 26.043 26.5454 25.3709 26.5454 24.5495V23.6285" stroke="white" stroke-width="1.08398" stroke-miterlimit="10" stroke-linecap="round" stroke-linejoin="round"/>
</g>
</svg>
