<svg width="38" height="38" viewBox="0 0 38 38" fill="none" xmlns="http://www.w3.org/2000/svg">
<path d="M16.9462 14.3506H25.3102C25.7662 14.3506 26.1362 14.7206 26.1362 15.1766V19.4786C26.1362 19.9346 25.7662 20.3038 25.3102 20.3038H20.6931" stroke="white" stroke-width="1.08398" stroke-miterlimit="10" stroke-linecap="round" stroke-linejoin="round"/>
<path d="M14.4169 14.3506H12.6059C12.1499 14.3506 11.7799 14.7206 11.7799 15.1766V19.4786C11.7799 19.9346 12.1499 20.3038 12.6059 20.3038H17.2164" stroke="white" stroke-width="1.08398" stroke-miterlimit="10" stroke-linecap="round" stroke-linejoin="round"/>
<path d="M17.066 36.9164L16.637 36.4479C15.7891 35.5221 15.3187 34.3121 15.3187 33.0566V31.0993C15.3187 30.1273 15.7927 29.2164 16.5887 28.6586L17.2163 28.2188" stroke="white" stroke-width="1.08398" stroke-miterlimit="10" stroke-linecap="round" stroke-linejoin="round"/>
<path d="M23.5222 24.8733C23.5222 24.028 24.2074 23.3428 25.0527 23.3428H25.0529C25.8982 23.3428 26.5834 24.028 26.5834 24.8733V27.5876" stroke="white" stroke-width="1.08398" stroke-miterlimit="10" stroke-linecap="round" stroke-linejoin="round"/>
<path d="M20.4609 24.1321C20.4609 23.2869 21.1462 22.6016 21.9915 22.6016C22.8368 22.6016 23.5221 23.2869 23.5221 24.1321V27.1705" stroke="white" stroke-width="1.08398" stroke-miterlimit="10" stroke-linecap="round" stroke-linejoin="round"/>
<path d="M29.6454 29.9971V31.1331C29.6454 32.3117 29.3332 33.4694 28.7406 34.4884C28.5202 34.8671 28.3316 35.2609 28.1762 35.667C28.0208 36.0732 27.8987 36.4909 27.8098 36.9158" stroke="white" stroke-width="1.08398" stroke-miterlimit="10" stroke-linecap="round" stroke-linejoin="round"/>
<path d="M26.5835 26.0333C26.5835 25.1878 27.2686 24.502 28.1141 24.502C28.5368 24.502 28.9191 24.6732 29.1966 24.95C29.4734 25.2268 29.6447 25.6098 29.6454 26.0318V27.4685" stroke="white" stroke-width="1.08398" stroke-miterlimit="10" stroke-linecap="round" stroke-linejoin="round"/>
<path d="M17.3998 31.3813V17.9476C17.3998 17.1023 18.0851 16.417 18.9304 16.417C19.7757 16.417 20.461 17.1023 20.461 17.9476V27.17" stroke="white" stroke-width="1.08398" stroke-miterlimit="10" stroke-linecap="round" stroke-linejoin="round"/>
<path d="M18.958 10.8545V14.1294" stroke="white" stroke-width="1.08398" stroke-miterlimit="10" stroke-linecap="round" stroke-linejoin="round"/>
<path d="M26.3279 17.327H31.1184C31.6667 17.327 32.1112 16.8825 32.1112 16.3341V15.3145" stroke="white" stroke-width="1.08398" stroke-miterlimit="10" stroke-linecap="round" stroke-linejoin="round"/>
<path d="M11.5882 17.327H6.79767C6.24932 17.327 5.80481 16.8825 5.80481 16.3341V15.3145" stroke="white" stroke-width="1.08398" stroke-miterlimit="10" stroke-linecap="round" stroke-linejoin="round"/>
<path d="M19.7408 4.10362C19.6867 4.04631 19.2735 3.63924 18.6293 3.83327C17.9938 4.0247 17.7972 4.78898 18.2444 5.30417C18.4761 5.57119 18.8654 5.65856 19.3682 5.83633C20.4937 6.23415 20.0777 7.82132 18.9328 7.82891C18.4861 7.83187 18.2772 7.80354 17.8848 7.54678" stroke="white" stroke-width="1.08398" stroke-miterlimit="10" stroke-linecap="round" stroke-linejoin="round"/>
<path d="M18.958 7.89648V8.55388" stroke="white" stroke-width="1.08398" stroke-miterlimit="10" stroke-linecap="round" stroke-linejoin="round"/>
<path d="M18.958 3.05566V3.71306" stroke="white" stroke-width="1.08398" stroke-miterlimit="10" stroke-linecap="round" stroke-linejoin="round"/>
<path d="M23.6958 6.60926C23.3135 8.87984 21.3377 10.6099 18.958 10.6099C16.3044 10.6099 14.1531 8.45854 14.1531 5.80494C14.1531 3.15135 16.3044 1 18.958 1C21.0039 1 22.7505 2.27838 23.4435 4.07996" stroke="white" stroke-width="1.08398" stroke-miterlimit="10" stroke-linecap="round" stroke-linejoin="round"/>
<path d="M6.58764 8.71495C6.53351 8.65764 6.1203 8.25057 5.47612 8.4446C4.84062 8.63603 4.64398 9.40031 5.09116 9.91549C5.32292 10.1825 5.71221 10.2699 6.21504 10.4477C7.3405 10.8455 6.92447 12.4327 5.77964 12.4402C5.33289 12.4432 5.12404 12.4149 4.73157 12.1581" stroke="white" stroke-width="1.08398" stroke-miterlimit="10" stroke-linecap="round" stroke-linejoin="round"/>
<path d="M5.80481 12.5078V13.1652" stroke="white" stroke-width="1.08398" stroke-miterlimit="10" stroke-linecap="round" stroke-linejoin="round"/>
<path d="M5.80481 7.66797V8.32537" stroke="white" stroke-width="1.08398" stroke-miterlimit="10" stroke-linecap="round" stroke-linejoin="round"/>
<path d="M3.42812 6.23932C4.1291 5.83969 4.93992 5.61133 5.80494 5.61133C8.45854 5.61133 10.6099 7.76268 10.6099 10.4163C10.6099 13.0699 8.45854 15.2212 5.80494 15.2212C3.15135 15.2212 1 13.0699 1 10.4163C1 9.54547 1.23125 8.72887 1.63666 8.02428" stroke="white" stroke-width="1.08398" stroke-miterlimit="10" stroke-linecap="round" stroke-linejoin="round"/>
<path d="M32.894 8.71495C32.8399 8.65764 32.4267 8.25057 31.7825 8.4446C31.147 8.63603 30.9504 9.40031 31.3976 9.91549C31.6293 10.1825 32.0186 10.2699 32.5214 10.4477C33.6469 10.8455 33.2308 12.4327 32.086 12.4402C31.6393 12.4432 31.4304 12.4149 31.038 12.1581" stroke="white" stroke-width="1.08398" stroke-miterlimit="10" stroke-linecap="round" stroke-linejoin="round"/>
<path d="M32.1112 12.5078V13.1652" stroke="white" stroke-width="1.08398" stroke-miterlimit="10" stroke-linecap="round" stroke-linejoin="round"/>
<path d="M32.1112 7.66797V8.32537" stroke="white" stroke-width="1.08398" stroke-miterlimit="10" stroke-linecap="round" stroke-linejoin="round"/>
<path d="M32.1112 15.2209C34.7648 15.2209 36.916 13.0697 36.916 10.4161C36.916 7.76251 34.7648 5.61133 32.1112 5.61133C29.4576 5.61133 27.3064 7.76251 27.3064 10.4161C27.3064 13.0697 29.4576 15.2209 32.1112 15.2209Z" stroke="white" stroke-width="1.08398" stroke-miterlimit="10" stroke-linecap="round" stroke-linejoin="round"/>
</svg>
