<svg width="37" height="31" viewBox="0 0 37 31" fill="none" xmlns="http://www.w3.org/2000/svg">
<path d="M28.4691 18.2402C28.1689 18.2402 27.9043 18.4411 27.8282 18.7315C27.6038 19.5875 27.2647 20.3969 26.8284 21.1426C26.6765 21.4021 26.7208 21.7317 26.9334 21.9443L28.4126 23.4234C29.5001 21.917 30.2525 20.1531 30.5609 18.2402H28.4691Z" stroke="white" stroke-width="1.08398" stroke-miterlimit="10" stroke-linecap="round" stroke-linejoin="round"/>
<path d="M28.1836 28.4998H31.8078V29.9211C31.8078 30.2726 32.2093 30.4731 32.4902 30.2618L36.2878 27.4074C36.5146 27.2369 36.5146 26.8964 36.2878 26.7259L32.4902 23.8714C32.2093 23.6603 31.8078 23.8607 31.8078 24.2122V25.6334H28.0549" stroke="white" stroke-width="1.08398" stroke-miterlimit="10" stroke-linecap="round" stroke-linejoin="round"/>
<path d="M24.2567 5.54264C23.0895 4.91378 21.8108 4.46545 20.459 4.2373" stroke="white" stroke-width="1.08398" stroke-miterlimit="10" stroke-linecap="round" stroke-linejoin="round"/>
<path d="M16.541 4.06348H11.9238" stroke="white" stroke-width="1.08398" stroke-miterlimit="10" stroke-linecap="round" stroke-linejoin="round"/>
<path d="M8.5874 9.14062C7.49987 10.647 6.74752 12.4109 6.43909 14.3238" stroke="white" stroke-width="1.08398" stroke-miterlimit="10" stroke-linecap="round" stroke-linejoin="round"/>
<path d="M6.43872 18.2412C6.74708 20.1542 7.49929 21.9184 8.58674 23.425" stroke="white" stroke-width="1.08398" stroke-miterlimit="10" stroke-linecap="round" stroke-linejoin="round"/>
<path d="M20.459 28.501H25.6543" stroke="white" stroke-width="1.08398" stroke-miterlimit="10" stroke-linecap="round" stroke-linejoin="round"/>
<path d="M11.3573 26.1953C12.8639 27.2828 14.628 28.035 16.5411 28.3433" stroke="white" stroke-width="1.08398" stroke-miterlimit="10" stroke-linecap="round" stroke-linejoin="round"/>
<path d="M9.39455 4.06413H5.19209V2.64288C5.19209 2.29138 4.79065 2.09092 4.50968 2.30215L0.712124 5.15657C0.485282 5.32712 0.485282 5.66756 0.712124 5.83811L4.50968 8.6926C4.79065 8.90376 5.19209 8.70329 5.19209 8.35187V6.93047H8.94506" stroke="white" stroke-width="1.08398" stroke-miterlimit="10" stroke-linecap="round" stroke-linejoin="round"/>
<path d="M23.4254 15.6949C23.0626 15.6949 22.7684 15.4008 22.7684 15.038V7.94913C22.7684 7.84803 22.792 7.75264 22.8328 7.66708C22.2379 7.36718 21.608 7.12639 20.9503 6.95404C20.6599 6.87794 20.459 6.6133 20.459 6.31311V3.57742C20.459 3.21053 20.1616 2.91309 19.7947 2.91309H17.2054C16.8385 2.91309 16.541 3.21046 16.541 3.57742V6.31311C16.541 6.6133 16.3401 6.87794 16.0498 6.95404C15.1938 7.17835 14.3844 7.51749 13.6387 7.95383C13.3791 8.10573 13.0497 8.06136 12.837 7.84876L10.9016 5.91334C10.6421 5.6539 10.2215 5.6539 9.96211 5.91334L8.13111 7.74426C7.87168 8.00369 7.87168 8.42428 8.13111 8.68371L10.0665 10.6191C10.2791 10.8317 10.3235 11.1613 10.1716 11.4208C9.73526 12.1666 9.39612 12.9759 9.17181 13.8319C9.09571 14.1223 8.83108 14.3232 8.53089 14.3232H5.7952C5.4283 14.3232 5.13086 14.6206 5.13086 14.9875V17.5769C5.13086 17.9438 5.4283 18.2412 5.7952 18.2412H8.53096C8.83115 18.2412 9.09579 18.4421 9.17188 18.7325C9.39619 19.5885 9.73534 20.3978 10.1717 21.1435C10.3235 21.4031 10.2792 21.7326 10.0666 21.9453L8.13118 23.8807C7.87175 24.1401 7.87175 24.5607 8.13118 24.8201L9.96218 26.651C10.2216 26.9105 10.6422 26.9105 10.9016 26.651L12.837 24.7156C13.0497 24.503 13.3792 24.4586 13.6388 24.6105C14.3845 25.0469 15.1938 25.386 16.0498 25.6103C16.3402 25.6864 16.5411 25.9511 16.5411 26.2513V28.987C16.5411 29.3539 16.8385 29.6514 17.2054 29.6514H19.7948C20.1617 29.6514 20.4591 29.3539 20.4591 28.987V26.2513C20.4591 25.9511 20.66 25.6864 20.9504 25.6103C21.8063 25.386 22.6157 25.0469 23.3615 24.6105C23.621 24.4587 23.9506 24.503 24.1632 24.7156L26.0986 26.651C26.358 26.9105 26.7786 26.9105 27.038 26.651L28.869 24.8201C29.1284 24.5607 29.1284 24.1401 28.869 23.8807L26.9335 21.9453C26.7209 21.7326 26.6766 21.4031 26.8285 21.1435C27.2648 20.3978 27.604 19.5885 27.8283 18.7325C27.9044 18.4421 28.169 18.2412 28.4692 18.2412H31.2049C31.5718 18.2412 31.8693 17.9438 31.8693 17.5769V15.6949H23.4254Z" stroke="white" stroke-width="1.08398" stroke-miterlimit="10" stroke-linecap="round" stroke-linejoin="round"/>
<path d="M22.7684 10.7454C21.5876 9.83373 20.1073 9.29102 18.5 9.29102C14.639 9.29102 11.5089 12.4211 11.5089 16.2821C11.5089 20.1432 14.639 23.2733 18.5 23.2733C22.3611 23.2733 25.4912 20.1432 25.4912 16.2821C25.4912 16.0843 25.4825 15.8885 25.4664 15.6949" stroke="white" stroke-width="1.08398" stroke-miterlimit="10" stroke-linecap="round" stroke-linejoin="round"/>
<path d="M20.7198 14.583C20.7198 13.8565 20.1309 13.2676 19.4044 13.2676H17.5958C16.8693 13.2676 16.2804 13.8565 16.2804 14.583V14.9666C16.2804 15.6931 16.8693 16.282 17.5958 16.282H19.4044C20.1309 16.282 20.7198 16.8709 20.7198 17.5974V17.981C20.7198 18.7075 20.1309 19.2964 19.4044 19.2964H17.5958C16.8693 19.2964 16.2804 18.7075 16.2804 17.981" stroke="white" stroke-width="1.08398" stroke-miterlimit="10" stroke-linecap="round" stroke-linejoin="round"/>
<path d="M18.5001 12.0615V13.2673" stroke="white" stroke-width="1.08398" stroke-miterlimit="10" stroke-linecap="round" stroke-linejoin="round"/>
<path d="M18.5001 19.2959V20.5017" stroke="white" stroke-width="1.08398" stroke-miterlimit="10" stroke-linecap="round" stroke-linejoin="round"/>
<path d="M26.5428 7.29225V4.94095C26.5428 3.83579 27.4419 2.93666 28.5472 2.93666C29.6524 2.93666 30.5515 3.83579 30.5515 4.94095V7.29225H32.8377V4.94095C32.8377 2.57511 30.913 0.650391 28.5471 0.650391C26.1812 0.650391 24.2565 2.57511 24.2565 4.94095V7.29225H26.5428Z" stroke="white" stroke-width="1.08398" stroke-miterlimit="10" stroke-linecap="round" stroke-linejoin="round"/>
<path d="M34.326 10.5853V7.94896C34.326 7.58611 34.0319 7.29199 33.6691 7.29199H23.4253C23.0624 7.29199 22.7683 7.58611 22.7683 7.94896V15.0378C22.7683 15.4006 23.0624 15.6948 23.4253 15.6948H33.6691C34.032 15.6948 34.3261 15.4006 34.3261 15.0378V13.1146" stroke="white" stroke-width="1.08398" stroke-miterlimit="10" stroke-linecap="round" stroke-linejoin="round"/>
<path d="M28.5471 12.0068C29.2356 12.0068 29.7937 11.4487 29.7937 10.7603C29.7937 10.0718 29.2356 9.51367 28.5471 9.51367C27.8587 9.51367 27.3005 10.0718 27.3005 10.7603C27.3005 11.4487 27.8587 12.0068 28.5471 12.0068Z" stroke="white" stroke-width="1.08398" stroke-miterlimit="10" stroke-linecap="round" stroke-linejoin="round"/>
<path d="M28.547 12.0068V13.6201" stroke="white" stroke-width="1.08398" stroke-miterlimit="10" stroke-linecap="round" stroke-linejoin="round"/>
</svg>
