<svg width="66" height="66" viewBox="0 0 66 66" fill="none" xmlns="http://www.w3.org/2000/svg">
<g clip-path="url(#clip0_2312_8531)">
<path d="M48.2344 41.2515C53.8449 41.2515 58.5 45.8173 58.5 51.4155C58.5 57.0199 53.8387 61.6812 48.2344 61.6812C42.6362 61.6812 38.0703 57.026 38.0703 51.4155C38.0703 45.8112 42.6301 41.2515 48.2344 41.2515ZM51.3858 46.9478L46.709 51.5952L45.0811 49.9927L44.7276 49.645L41.8916 52.481L42.2432 52.8345L46.3565 56.978L46.71 57.3345L47.0655 56.978L54.2256 49.7876L54.5772 49.4341L51.7393 46.5962L51.3858 46.9478Z" stroke="white"/>
<path d="M29.9531 10.6812C42.2882 10.6812 52.3047 20.7935 52.3047 33.1343C52.3047 34.3331 52.1747 35.5227 51.9629 36.7056L51.8672 37.2124C51.8226 37.4376 51.6052 37.6111 51.3428 37.6011L51.2276 37.5845C50.2745 37.3574 49.2833 37.2046 48.2344 37.2046C40.4021 37.2046 34.0235 43.583 34.0235 51.4155C34.0235 52.3336 34.1407 53.2076 34.3223 54.0503L34.4033 54.4087C34.4683 54.6812 34.3324 54.9275 34.125 55.019L34.0313 55.0483C32.6816 55.316 31.3234 55.4858 29.9531 55.4858C17.6123 55.4858 7.50002 45.4693 7.50002 33.1343C7.50002 20.7964 17.6152 10.6812 29.9531 10.6812ZM29.4297 46.3452C28.6013 46.3452 27.9297 47.0168 27.9297 47.8452V48.8921C27.9297 49.7205 28.6013 50.3921 29.4297 50.3921H30.4766C31.305 50.3921 31.9766 49.7205 31.9766 48.8921V47.8452C31.9766 47.0168 31.305 46.3452 30.4766 46.3452H29.4297ZM20.2334 42.1157C19.6814 41.5637 18.8066 41.5321 18.2178 42.019L18.1045 42.1226L17.376 42.8618C16.8335 43.4121 16.8018 44.2767 17.2803 44.8628L17.3828 44.9761L18.1114 45.7046C18.6577 46.251 19.5219 46.2882 20.1114 45.814L20.2256 45.7124L20.9649 44.9829C21.5203 44.4349 21.5576 43.5613 21.0752 42.9692L20.9717 42.855L20.2334 42.1157ZM14.1953 31.1108C13.3669 31.1108 12.6953 31.7824 12.6953 32.6108V33.6577C12.6953 34.4861 13.3669 35.1577 14.1953 35.1577H15.2422C16.0706 35.1577 16.7422 34.4861 16.7422 33.6577V32.6108C16.7422 31.7824 16.0706 31.1108 15.2422 31.1108H14.1953ZM29.4297 21.9702C28.6013 21.9702 27.9297 22.6418 27.9297 23.4702V33.6577C27.9297 34.4861 28.6013 35.1577 29.4297 35.1577H36.5703C37.3988 35.1577 38.0703 34.4861 38.0703 33.6577V32.6108C38.0703 31.7824 37.3988 31.1108 36.5703 31.1108H32.4766C32.2004 31.1108 31.9766 30.887 31.9766 30.6108V23.4702C31.9766 22.6418 31.305 21.9702 30.4766 21.9702H29.4297ZM44.6641 31.1108C43.8357 31.1108 43.1641 31.7824 43.1641 32.6108V33.6577C43.1641 34.4861 43.8357 35.1577 44.6641 35.1577H45.711C46.5394 35.1577 47.211 34.4861 47.211 33.6577V32.6108C47.211 31.7824 46.5394 31.1108 45.711 31.1108H44.6641ZM20.2256 20.5562C19.6753 20.0136 18.8107 19.9828 18.2246 20.4614L18.1114 20.564L17.3828 21.2925C16.8365 21.8389 16.7992 22.703 17.2735 23.2925L17.376 23.4067L18.1045 24.145C18.6525 24.7008 19.526 24.7387 20.1182 24.2563L20.2334 24.1528L20.9717 23.4136C21.5236 22.8616 21.5552 21.9877 21.0684 21.3989L20.9649 21.2847L20.2256 20.5562ZM41.7949 20.564C41.2486 20.0176 40.3844 19.9804 39.7949 20.4546L39.6807 20.5562L38.9414 21.2847C38.3856 21.8327 38.3485 22.7071 38.8311 23.2993L38.9346 23.4136L39.6729 24.1528C40.2249 24.7049 41.0997 24.7364 41.6885 24.2495L41.8018 24.145L42.5303 23.4067C43.0728 22.8565 43.1045 21.9919 42.626 21.4058L42.5235 21.2925L41.7949 20.564ZM29.4297 15.8765C28.6013 15.8765 27.9297 16.548 27.9297 17.3765V18.4233C27.9297 19.2518 28.6013 19.9233 29.4297 19.9233H30.4766C31.305 19.9233 31.9766 19.2518 31.9766 18.4233V17.3765C31.9766 16.548 31.305 15.8765 30.4766 15.8765H29.4297Z" stroke="white"/>
</g>
<defs>
<clipPath id="clip0_2312_8531">
<rect width="52" height="52" fill="white" transform="translate(7.00002 7)"/>
</clipPath>
</defs>
</svg>
