<svg width="73" height="71" viewBox="0 0 73 71" fill="none" xmlns="http://www.w3.org/2000/svg">
<path d="M46.333 5.76123L46.6357 5.77588C47.2357 5.83323 47.802 6.05862 48.2637 6.41943L48.4854 6.61084C48.9802 7.0828 49.2815 7.69727 49.3496 8.34619L49.3643 8.62646V12.0698L49.3496 12.3491C49.2913 12.9054 49.0616 13.436 48.6855 13.8735L48.4854 14.0845C47.9189 14.6247 47.1453 14.9333 46.333 14.9341H43.9482V19.5884L44.4893 19.6255C49.8101 19.9839 54.8611 21.9826 58.8809 25.3159L59.2783 25.646L59.6523 25.2896L63.5449 21.5757C63.7457 21.3909 64.0102 21.2747 64.2939 21.2505L64.417 21.2466C64.7054 21.2491 64.9786 21.346 65.1934 21.5142L65.2822 21.5903C65.4785 21.7776 65.5959 22.0183 65.624 22.27L65.6309 22.3784C65.6335 22.6666 65.5186 22.9497 65.3018 23.1665L61.4043 26.8843L60.9932 27.2759L61.376 27.6958C64.3832 30.9941 66.3625 35.0217 67.0986 39.3237L67.166 39.7407C67.8218 44.0599 67.2013 48.466 65.3779 52.4653L65.1973 52.8511C63.2961 56.8241 60.2705 60.2141 56.46 62.6401L56.0889 62.8716C52.2281 65.2351 47.7533 66.5246 43.168 66.5972L42.7236 66.6011H20.1533C19.8197 66.6011 19.5043 66.4737 19.2764 66.2563C19.0497 66.0399 18.9277 65.7521 18.9277 65.4585C18.9278 65.1649 19.0495 64.877 19.2764 64.6606C19.5043 64.4433 19.8197 64.3169 20.1533 64.3169H42.7227C46.8422 64.3169 50.8768 63.2248 54.3789 61.1675L55.0723 60.7427C58.6157 58.4842 61.4064 55.3017 63.1113 51.5728L63.2725 51.2104C64.9072 47.4461 65.3731 43.3138 64.6182 39.3071L64.541 38.9194C63.7342 35.0508 61.818 31.4808 59.0166 28.603L58.4443 28.0366C55.3314 25.0674 51.368 23.0478 47.0576 22.23C43.0169 21.4634 38.8376 21.7846 34.9844 23.1499L34.2178 23.437C30.2829 24.9917 26.8979 27.5924 24.4648 30.9302L24.2324 31.2554C21.7844 34.7499 20.4756 38.8614 20.4756 43.0698V44.7925C20.4755 45.0862 20.3529 45.3739 20.126 45.5903C19.8981 45.8075 19.5834 45.9341 19.25 45.9341C18.9166 45.934 18.6019 45.8076 18.374 45.5903C18.1471 45.3739 18.0255 45.0862 18.0254 44.7925V43.0698L18.0312 42.5415C18.1609 37.0817 20.2917 31.8265 24.0693 27.6958L24.4531 27.2769L24.042 26.8843L20.1436 23.1665C19.9267 22.9497 19.8118 22.6666 19.8145 22.3784C19.8168 22.1243 19.9103 21.875 20.084 21.6733L20.1631 21.5903C20.3602 21.4023 20.6229 21.2824 20.9062 21.2534L21.0293 21.2466C21.3176 21.2443 21.5926 21.3368 21.8105 21.5015L21.9004 21.5757L25.7939 25.2896L26.167 25.646L26.5645 25.3159C30.5842 21.9826 35.6352 19.9839 40.9561 19.6255L41.4971 19.5884V14.9341H39.1123C38.4015 14.9334 37.7203 14.6969 37.1816 14.2759L36.96 14.0845C36.3945 13.5452 36.0819 12.8201 36.0811 12.0698V8.62646C36.0817 7.96981 36.3211 7.33224 36.7598 6.82178L36.96 6.61084C37.4556 6.1382 38.1097 5.84281 38.8096 5.77588L39.1123 5.76123H46.333ZM13.5752 57.4282H31.1152C31.4487 57.4282 31.7633 57.5547 31.9912 57.772C32.2181 57.9884 32.3408 58.2761 32.3408 58.5698C32.3408 58.8636 32.2182 59.1512 31.9912 59.3677C31.7633 59.585 31.4488 59.7114 31.1152 59.7114H13.5752C13.2417 59.7114 12.9271 59.585 12.6992 59.3677C12.4723 59.1512 12.3496 58.8636 12.3496 58.5698C12.3497 58.2761 12.4723 57.9884 12.6992 57.772C12.9271 57.5547 13.2418 57.4282 13.5752 57.4282ZM4.80566 50.5396H31.1152C31.4488 50.5396 31.7633 50.666 31.9912 50.8833C32.2182 51.0998 32.3408 51.3874 32.3408 51.6812C32.3408 51.9749 32.2182 52.2625 31.9912 52.479C31.7633 52.6963 31.4487 52.8227 31.1152 52.8228H4.80566C4.51372 52.8228 4.23605 52.7261 4.01855 52.5562L3.92969 52.479C3.70272 52.2625 3.58008 51.9749 3.58008 51.6812C3.58008 51.4239 3.67397 51.1715 3.84961 50.9673L3.92969 50.8833C4.15757 50.666 4.47216 50.5396 4.80566 50.5396ZM51.7393 33.3384C52.0279 33.3408 52.3017 33.4376 52.5166 33.606L52.6045 33.6821C52.8008 33.8694 52.9191 34.11 52.9473 34.3618L52.9541 34.4702C52.9564 34.7243 52.8671 34.975 52.6973 35.1792L52.6191 35.2632L47.1963 40.436L46.8828 40.7358L47.0801 41.1206C47.3531 41.6541 47.5118 42.232 47.5498 42.8208L47.5596 43.0737C47.5589 43.8606 47.3441 44.6337 46.9375 45.3188L46.751 45.6079C46.2888 46.2675 45.6538 46.8024 44.9082 47.1606L44.582 47.3032C43.695 47.6537 42.7178 47.7458 41.7744 47.5669C40.9491 47.4103 40.1848 47.0536 39.5547 46.5356L39.293 46.3032C38.7028 45.7403 38.2796 45.0451 38.0596 44.2876L37.9785 43.9595C37.7941 43.0754 37.8885 42.1584 38.251 41.3237C38.5683 40.5932 39.0794 39.952 39.7354 39.4634L40.0254 39.2632C40.821 38.7562 41.759 38.4843 42.7207 38.4839C43.442 38.4877 44.1526 38.6459 44.7988 38.9468L45.1572 39.1147L45.4443 38.8413L50.875 33.6616C51.0748 33.4807 51.3359 33.3673 51.6162 33.3433L51.7393 33.3384Z" fill="#D9D9D9" stroke="white" stroke-width="1.16069"/>
</svg>
