<svg width="66" height="66" viewBox="0 0 66 66" fill="none" xmlns="http://www.w3.org/2000/svg">
<path d="M28.1866 16.7749C30.4517 16.7751 32.3125 18.6213 32.3126 20.9009V32.7925L33.0499 32.3931C33.6044 32.0933 34.2469 31.9156 34.9152 31.9155C36.5014 31.9155 37.881 32.828 38.5568 34.1646L38.8195 34.6831L39.2931 34.3462C39.967 33.8669 40.7746 33.5972 41.6447 33.5972C43.7114 33.5972 45.4085 35.1253 45.7091 37.1089L45.8165 37.8188L46.4454 37.4722C47.0186 37.1555 47.6767 36.9624 48.3741 36.9624C50.6549 36.9626 52.5001 38.8076 52.5001 41.0884V53.521C52.4663 60.1151 47.0138 65.4019 40.3322 65.4019H30.1378C26.2207 65.4019 22.5672 63.55 20.3185 60.4419L20.1046 60.1372C18.8277 58.2508 17.728 56.2248 16.84 54.1147L16.4728 53.2056L14.2697 47.4868L13.8029 47.6665L14.2697 47.4858L14.2648 47.4751L14.1573 47.186C13.1937 44.2902 15.5914 41.2186 18.6241 41.3433L18.9288 41.3667C20.2045 41.5084 21.3332 42.1806 22.0685 43.2251L22.2101 43.439L23.1085 45.02L24.0431 46.6646V20.9009C24.0432 18.6224 25.9034 16.7749 28.1866 16.7749ZM28.1866 11.728C33.2446 11.7282 37.3594 15.8437 37.3595 20.9009C37.3595 21.1693 37.2612 21.3341 37.1398 21.438C37.0076 21.5508 36.8142 21.6189 36.6007 21.6177C36.3872 21.6164 36.1914 21.5458 36.0568 21.4302C35.9325 21.3234 35.8362 21.1593 35.8361 20.9009L35.8263 20.5073C35.6208 16.4715 32.2735 13.2516 28.1866 13.2515C23.9677 13.2515 20.5364 16.6829 20.5363 20.9009C20.5363 21.1642 20.4404 21.3243 20.3204 21.4253C20.1892 21.5358 19.9949 21.6031 19.7794 21.6011C19.564 21.599 19.3659 21.5274 19.2306 21.4126C19.1061 21.3068 19.0128 21.1477 19.0128 20.9009L19.0255 20.4292C19.2719 15.5901 23.2867 11.728 28.1866 11.728ZM28.1866 6.68115C36.0276 6.6813 42.4062 13.0607 42.4064 20.9009C42.4064 21.1706 42.3083 21.3348 42.1876 21.438C42.056 21.5504 41.8623 21.6184 41.6486 21.6167C41.4348 21.6149 41.2378 21.5444 41.1027 21.4282C40.9779 21.3209 40.883 21.1568 40.8829 20.9009L40.879 20.5737C40.7048 13.7234 35.0791 8.20474 28.1866 8.20459C21.1847 8.20459 15.4895 13.8998 15.4894 20.9009C15.4894 21.1594 15.3947 21.3177 15.2745 21.4185C15.1429 21.5287 14.9477 21.5959 14.7316 21.5942C14.5156 21.5925 14.3176 21.5215 14.1827 21.4077C14.0589 21.303 13.9659 21.1454 13.9659 20.8999L13.9708 20.5337C14.1664 12.8623 20.4683 6.68115 28.1866 6.68115Z" stroke="white"/>
</svg>
